OpenSans-Bold.ufo
<glyph name="exclam" format="2">
  <advance width="586"/>
  <unicode hex="0021"/>
  <outline>
    <contour>
      <point x="416" y="485" type="line"/>
      <point x="467" y="1462" type="line"/>
      <point x="121" y="1462" type="line"/>
      <point x="172" y="485" type="line"/>
    </contour>
    <contour>
      <point x="117" y="143" type="curve" smooth="yes"/>
      <point x="117" y="23"/>
      <point x="195" y="-27"/>
      <point x="293" y="-27" type="curve" smooth="yes"/>
      <point x="387" y="-27"/>
      <point x="467" y="23"/>
      <point x="467" y="143" type="curve" smooth="yes"/>
      <point x="467" y="268"/>
      <point x="387" y="313"/>
      <point x="293" y="313" type="curve" smooth="yes"/>
      <point x="195" y="313"/>
      <point x="117" y="268"/>
    </contour>
  </outline>
</glyph>
<glyph name="ampersand" format="2">
  <advance width="1536"/>
  <unicode hex="0026"/>
  <outline>
    <contour>
      <point x="635" y="1483" type="curve" smooth="yes"/>
      <point x="383" y="1483"/>
      <point x="207" y="1352"/>
      <point x="207" y="1145" type="curve" smooth="yes"/>
      <point x="207" y="1026"/>
      <point x="244" y="932"/>
      <point x="350" y="809" type="curve"/>
      <point x="182" y="713"/>
      <point x="82" y="602"/>
      <point x="82" y="395" type="curve" smooth="yes"/>
      <point x="82" y="147"/>
      <point x="279" y="-20"/>
      <point x="612" y="-20" type="curve" smooth="yes"/>
      <point x="782" y="-20"/>
      <point x="926" y="31"/>
      <point x="1044" y="113" type="curve"/>
      <point x="1159" y="0" type="line"/>
      <point x="1536" y="0" type="line"/>
      <point x="1235" y="293" type="line"/>
      <point x="1358" y="446"/>
      <point x="1436" y="631"/>
      <point x="1477" y="784" type="curve"/>
      <point x="1159" y="784" type="line"/>
      <point x="1130" y="680"/>
      <point x="1092" y="575"/>
      <point x="1036" y="483" type="curve"/>
      <point x="752" y="760" type="line"/>
      <point x="918" y="856"/>
      <point x="1044" y="977"/>
      <point x="1044" y="1165" type="curve" smooth="yes"/>
      <point x="1044" y="1368"/>
      <point x="870" y="1483"/>
    </contour>
    <contour>
      <point x="528" y="627" type="curve"/>
      <point x="860" y="297" type="line"/>
      <point x="797" y="258"/>
      <point x="721" y="236"/>
      <point x="633" y="236" type="curve" smooth="yes"/>
      <point x="502" y="236"/>
      <point x="403" y="307"/>
      <point x="403" y="424" type="curve" smooth="yes"/>
      <point x="403" y="508"/>
      <point x="451" y="569"/>
    </contour>
    <contour>
      <point x="633" y="1247" type="curve" smooth="yes"/>
      <point x="694" y="1247"/>
      <point x="762" y="1214"/>
      <point x="762" y="1133" type="curve" smooth="yes"/>
      <point x="762" y="1051"/>
      <point x="698" y="993"/>
      <point x="584" y="930" type="curve"/>
      <point x="526" y="995"/>
      <point x="489" y="1057"/>
      <point x="489" y="1124" type="curve" smooth="yes"/>
      <point x="489" y="1219"/>
      <point x="565" y="1247"/>
    </contour>
  </outline>
</glyph>
<glyph name="quotesingle" format="2">
  <advance width="545"/>
  <unicode hex="0027"/>
  <outline>
    <contour>
      <point x="412" y="1462" type="line"/>
      <point x="133" y="1462" type="line"/>
      <point x="174" y="934" type="line"/>
      <point x="371" y="934" type="line"/>
    </contour>
  </outline>
</glyph>
<glyph name="comma" format="2">
  <advance width="584"/>
  <unicode hex="002C"/>
  <outline>
    <contour>
      <point x="444" y="238" type="line"/>
      <point x="164" y="238" type="line"/>
      <point x="143" y="96"/>
      <point x="102" y="-102"/>
      <point x="63" y="-264" type="curve"/>
      <point x="283" y="-264" type="line"/>
      <point x="350" y="-115"/>
      <point x="422" y="70"/>
      <point x="459" y="215" type="curve"/>
    </contour>
  </outline>
</glyph>
<glyph name="period" format="2">
  <advance width="584"/>
  <unicode hex="002E"/>
  <outline>
    <contour>
      <point x="117" y="143" type="curve" smooth="yes"/>
      <point x="117" y="23"/>
      <point x="195" y="-27"/>
      <point x="293" y="-27" type="curve" smooth="yes"/>
      <point x="387" y="-27"/>
      <point x="467" y="23"/>
      <point x="467" y="143" type="curve" smooth="yes"/>
      <point x="467" y="268"/>
      <point x="387" y="313"/>
      <point x="293" y="313" type="curve" smooth="yes"/>
      <point x="195" y="313"/>
      <point x="117" y="268"/>
    </contour>
  </outline>
</glyph>
<glyph name="one" format="2">
  <advance width="1171"/>
  <unicode hex="0031"/>
  <outline>
    <contour>
      <point x="846" y="0" type="line"/>
      <point x="846" y="1462" type="line"/>
      <point x="592" y="1462" type="line"/>
      <point x="121" y="1087" type="line"/>
      <point x="270" y="901" type="line"/>
      <point x="438" y="1036" type="line" smooth="yes"/>
      <point x="477" y="1069"/>
      <point x="530" y="1120"/>
      <point x="545" y="1137" type="curve"/>
      <point x="541" y="1049"/>
      <point x="537" y="915"/>
      <point x="537" y="846" type="curve"/>
      <point x="537" y="0" type="line"/>
    </contour>
  </outline>
</glyph>
<glyph name="two" format="2">
  <advance width="1171"/>
  <unicode hex="0032"/>
  <outline>
    <contour>
      <point x="1104" y="0" type="line"/>
      <point x="1104" y="260" type="line"/>
      <point x="467" y="260" type="line"/>
      <point x="467" y="274" type="line"/>
      <point x="655" y="451" type="line" smooth="yes"/>
      <point x="913" y="688"/>
      <point x="1063" y="844"/>
      <point x="1063" y="1087" type="curve" smooth="yes"/>
      <point x="1063" y="1313"/>
      <point x="887" y="1483"/>
      <point x="600" y="1483" type="curve" smooth="yes"/>
      <point x="338" y="1483"/>
      <point x="203" y="1382"/>
      <point x="78" y="1274" type="curve"/>
      <point x="246" y="1075" type="line"/>
      <point x="362" y="1171"/>
      <point x="465" y="1225"/>
      <point x="578" y="1225" type="curve" smooth="yes"/>
      <point x="686" y="1225"/>
      <point x="756" y="1167"/>
      <point x="756" y="1051" type="curve" smooth="yes"/>
      <point x="756" y="907"/>
      <point x="670" y="813"/>
      <point x="449" y="586" type="curve" smooth="yes"/>
      <point x="82" y="215" type="line"/>
      <point x="82" y="0" type="line"/>
    </contour>
  </outline>
</glyph>
<glyph name="three" format="2">
  <advance width="1171"/>
  <unicode hex="0033"/>
  <outline>
    <contour>
      <point x="1047" y="1135" type="curve" smooth="yes"/>
      <point x="1047" y="1356"/>
      <point x="858" y="1483"/>
      <point x="557" y="1483" type="curve" smooth="yes"/>
      <point x="344" y="1483"/>
      <point x="195" y="1421"/>
      <point x="80" y="1339" type="curve"/>
      <point x="223" y="1126" type="line"/>
      <point x="293" y="1171"/>
      <point x="395" y="1233"/>
      <point x="535" y="1233" type="curve" smooth="yes"/>
      <point x="684" y="1233"/>
      <point x="743" y="1171"/>
      <point x="743" y="1067" type="curve" smooth="yes"/>
      <point x="743" y="952"/>
      <point x="686" y="870"/>
      <point x="416" y="870" type="curve" smooth="yes"/>
      <point x="303" y="870" type="line"/>
      <point x="303" y="633" type="line"/>
      <point x="414" y="633" type="line" smooth="yes"/>
      <point x="688" y="633"/>
      <point x="766" y="565"/>
      <point x="766" y="444" type="curve" smooth="yes"/>
      <point x="766" y="305"/>
      <point x="688" y="225"/>
      <point x="467" y="225" type="curve" smooth="yes"/>
      <point x="348" y="225"/>
      <point x="203" y="258"/>
      <point x="78" y="322" type="curve"/>
      <point x="78" y="59" type="line"/>
      <point x="201" y="6"/>
      <point x="338" y="-20"/>
      <point x="500" y="-20" type="curve" smooth="yes"/>
      <point x="909" y="-20"/>
      <point x="1090" y="170"/>
      <point x="1090" y="426" type="curve" smooth="yes"/>
      <point x="1090" y="618"/>
      <point x="965" y="735"/>
      <point x="731" y="764" type="curve"/>
      <point x="731" y="770" type="line"/>
      <point x="909" y="813"/>
      <point x="1047" y="932"/>
    </contour>
  </outline>
</glyph>
<glyph name="four" format="2">
  <advance width="1171"/>
  <unicode hex="0034"/>
  <outline>
    <contour>
      <point x="1137" y="303" type="line"/>
      <point x="1137" y="543" type="line"/>
      <point x="961" y="543" type="line"/>
      <point x="961" y="1462" type="line"/>
      <point x="676" y="1462" type="line"/>
      <point x="35" y="518" type="line"/>
      <point x="35" y="303" type="line"/>
      <point x="659" y="303" type="line"/>
      <point x="659" y="0" type="line"/>
      <point x="961" y="0" type="line"/>
      <point x="961" y="303" type="line"/>
    </contour>
    <contour>
      <point x="659" y="543" type="line"/>
      <point x="307" y="543" type="line"/>
      <point x="575" y="948" type="line" smooth="yes"/>
      <point x="612" y="1004"/>
      <point x="639" y="1053"/>
      <point x="664" y="1108" type="curve"/>
      <point x="672" y="1108" type="line"/>
      <point x="668" y="1069"/>
      <point x="659" y="885"/>
      <point x="659" y="791" type="curve" smooth="yes"/>
    </contour>
  </outline>
</glyph>
<glyph name="five" format="2">
  <advance width="1171"/>
  <unicode hex="0035"/>
  <outline>
    <contour>
      <point x="614" y="934" type="curve" smooth="yes"/>
      <point x="518" y="934"/>
      <point x="473" y="922"/>
      <point x="428" y="913" type="curve"/>
      <point x="455" y="1200" type="line"/>
      <point x="977" y="1200" type="line"/>
      <point x="977" y="1462" type="line"/>
      <point x="184" y="1462" type="line"/>
      <point x="129" y="717" type="line"/>
      <point x="252" y="651" type="line"/>
      <point x="307" y="666"/>
      <point x="397" y="684"/>
      <point x="473" y="684" type="curve" smooth="yes"/>
      <point x="672" y="684"/>
      <point x="766" y="606"/>
      <point x="766" y="463" type="curve" smooth="yes"/>
      <point x="766" y="303"/>
      <point x="666" y="231"/>
      <point x="483" y="231" type="curve" smooth="yes"/>
      <point x="358" y="231"/>
      <point x="201" y="272"/>
      <point x="100" y="326" type="curve"/>
      <point x="100" y="59" type="line"/>
      <point x="201" y="6"/>
      <point x="340" y="-20"/>
      <point x="494" y="-20" type="curve" smooth="yes"/>
      <point x="879" y="-20"/>
      <point x="1077" y="172"/>
      <point x="1077" y="489" type="curve" smooth="yes"/>
      <point x="1077" y="778"/>
      <point x="881" y="934"/>
    </contour>
  </outline>
</glyph>
<glyph name="less" format="2">
  <advance width="1171"/>
  <unicode hex="003C"/>
  <outline>
    <contour>
      <point x="1081" y="203" type="line"/>
      <point x="1081" y="442" type="line"/>
      <point x="397" y="723" type="line"/>
      <point x="1081" y="1040" type="line"/>
      <point x="1081" y="1280" type="line"/>
      <point x="88" y="784" type="line"/>
      <point x="88" y="641" type="line"/>
    </contour>
  </outline>
</glyph>
<glyph name="question" format="2">
  <advance width="977"/>
  <unicode hex="003F"/>
  <outline>
    <contour>
      <point x="276" y="485" type="line"/>
      <point x="541" y="485" type="line"/>
      <point x="541" y="545" type="line"/>
      <point x="541" y="629"/>
      <point x="567" y="662"/>
      <point x="688" y="750" type="curve" smooth="yes"/>
      <point x="848" y="866"/>
      <point x="928" y="952"/>
      <point x="928" y="1120" type="curve" smooth="yes"/>
      <point x="928" y="1331"/>
      <point x="764" y="1483"/>
      <point x="479" y="1483" type="curve" smooth="yes"/>
      <point x="293" y="1483"/>
      <point x="139" y="1432"/>
      <point x="6" y="1358" type="curve"/>
      <point x="115" y="1139" type="line"/>
      <point x="231" y="1198"/>
      <point x="342" y="1237"/>
      <point x="457" y="1237" type="curve" smooth="yes"/>
      <point x="571" y="1237"/>
      <point x="639" y="1190"/>
      <point x="639" y="1104" type="curve" smooth="yes"/>
      <point x="639" y="1016"/>
      <point x="590" y="965"/>
      <point x="467" y="877" type="curve" smooth="yes"/>
      <point x="328" y="776"/>
      <point x="276" y="694"/>
      <point x="276" y="559" type="curve"/>
    </contour>
    <contour>
      <point x="244" y="143" type="curve" smooth="yes"/>
      <point x="244" y="23"/>
      <point x="322" y="-27"/>
      <point x="420" y="-27" type="curve" smooth="yes"/>
      <point x="514" y="-27"/>
      <point x="594" y="23"/>
      <point x="594" y="143" type="curve" smooth="yes"/>
      <point x="594" y="268"/>
      <point x="514" y="313"/>
      <point x="420" y="313" type="curve" smooth="yes"/>
      <point x="322" y="313"/>
      <point x="244" y="268"/>
    </contour>
  </outline>
</glyph>
<glyph name="at" format="2">
  <advance width="1837"/>
  <unicode hex="0040"/>
  <outline>
    <contour>
      <point x="1735" y="733" type="curve"/>
      <point x="1735" y="1184"/>
      <point x="1419" y="1462"/>
      <point x="981" y="1462" type="curve" smooth="yes"/>
      <point x="444" y="1462"/>
      <point x="102" y="1079"/>
      <point x="102" y="584" type="curve" smooth="yes"/>
      <point x="102" y="109"/>
      <point x="399" y="-172"/>
      <point x="907" y="-172" type="curve" smooth="yes"/>
      <point x="1087" y="-172"/>
      <point x="1251" y="-137"/>
      <point x="1382" y="-82" type="curve"/>
      <point x="1382" y="111" type="line"/>
      <point x="1239" y="57"/>
      <point x="1057" y="18"/>
      <point x="899" y="18" type="curve" smooth="yes"/>
      <point x="526" y="18"/>
      <point x="324" y="221"/>
      <point x="324" y="590" type="curve" smooth="yes"/>
      <point x="324" y="985"/>
      <point x="553" y="1274"/>
      <point x="983" y="1274" type="curve" smooth="yes"/>
      <point x="1288" y="1274"/>
      <point x="1516" y="1077"/>
      <point x="1516" y="735" type="curve" smooth="yes"/>
      <point x="1516" y="551"/>
      <point x="1468" y="397"/>
      <point x="1376" y="397" type="curve" smooth="yes"/>
      <point x="1337" y="397"/>
      <point x="1300" y="424"/>
      <point x="1300" y="537" type="curve" smooth="yes"/>
      <point x="1300" y="545"/>
      <point x="1300" y="578"/>
      <point x="1303" y="606" type="curve" smooth="yes"/>
      <point x="1323" y="1026" type="line"/>
      <point x="1245" y="1053"/>
      <point x="1092" y="1081"/>
      <point x="963" y="1081" type="curve" smooth="yes"/>
      <point x="666" y="1081"/>
      <point x="479" y="887"/>
      <point x="479" y="612" type="curve" smooth="yes"/>
      <point x="479" y="375"/>
      <point x="616" y="215"/>
      <point x="860" y="215" type="curve" smooth="yes"/>
      <point x="989" y="215"/>
      <point x="1079" y="276"/>
      <point x="1135" y="344" type="curve"/>
      <point x="1151" y="344" type="line"/>
      <point x="1182" y="268"/>
      <point x="1264" y="215"/>
      <point x="1364" y="215" type="curve" smooth="yes"/>
      <point x="1616" y="215"/>
      <point x="1735" y="479"/>
    </contour>
    <contour>
      <point x="711" y="608" type="curve"/>
      <point x="711" y="754"/>
      <point x="780" y="899"/>
      <point x="975" y="899" type="curve" smooth="yes"/>
      <point x="1020" y="899"/>
      <point x="1059" y="895"/>
      <point x="1090" y="889" type="curve"/>
      <point x="1077" y="668" type="line"/>
      <point x="1067" y="506"/>
      <point x="1020" y="397"/>
      <point x="883" y="397" type="curve" smooth="yes"/>
      <point x="778" y="397"/>
      <point x="711" y="459"/>
    </contour>
  </outline>
</glyph>
<glyph name="A" format="2">
  <advance width="1413"/>
  <unicode hex="0041"/>
  <anchor x="707" y="0" name="bottom"/>
  <anchor x="707" y="1462" name="top"/>
  <anchor x="1208" y="1462" name="topright"/>
  <outline>
    <contour>
      <point x="1079" y="0" type="line"/>
      <point x="1413" y="0" type="line"/>
      <point x="895" y="1468" type="line"/>
      <point x="516" y="1468" type="line"/>
      <point x="0" y="0" type="line"/>
      <point x="334" y="0" type="line"/>
      <point x="440" y="348" type="line"/>
      <point x="973" y="348" type="line"/>
    </contour>
    <contour>
      <point x="899" y="608" type="line"/>
      <point x="518" y="608" type="line"/>
      <point x="623" y="948" type="line" smooth="yes"/>
      <point x="637" y="993"/>
      <point x="686" y="1159"/>
      <point x="707" y="1241" type="curve"/>
      <point x="727" y="1159"/>
      <point x="772" y="1016"/>
      <point x="793" y="948" type="curve" smooth="yes"/>
    </contour>
  </outline>
</glyph>
<glyph name="K" format="2">
  <advance width="1360"/>
  <unicode hex="004B"/>
  <anchor x="713" y="0" name="bottom"/>
  <anchor x="717" y="1462" name="top"/>
  <anchor x="1319" y="1462" name="topright"/>
  <outline>
    <contour>
      <point x="1360" y="0" type="line"/>
      <point x="846" y="815" type="line"/>
      <point x="1356" y="1462" type="line"/>
      <point x="1012" y="1462" type="line"/>
      <point x="616" y="965" type="line"/>
      <point x="575" y="907"/>
      <point x="535" y="850"/>
      <point x="494" y="793" type="curve"/>
      <point x="494" y="1462" type="line"/>
      <point x="184" y="1462" type="line"/>
      <point x="184" y="0" type="line"/>
      <point x="494" y="0" type="line"/>
      <point x="494" y="522" type="line"/>
      <point x="625" y="616" type="line"/>
      <point x="1008" y="0" type="line"/>
    </contour>
  </outline>
</glyph>
<glyph name="L" format="2">
  <advance width="1157"/>
  <unicode hex="004C"/>
  <anchor x="631" y="0" name="bottom"/>
  <anchor x="580" y="731" name="center"/>
  <anchor x="336" y="1462" name="top"/>
  <anchor x="788" y="1462" name="topright"/>
  <outline>
    <contour>
      <point x="184" y="0" type="line"/>
      <point x="1087" y="0" type="line"/>
      <point x="1087" y="256" type="line"/>
      <point x="494" y="256" type="line"/>
      <point x="494" y="1462" type="line"/>
      <point x="184" y="1462" type="line"/>
    </contour>
  </outline>
</glyph>
<glyph name="P" format="2">
  <advance width="1286"/>
  <unicode hex="0050"/>
  <anchor x="643" y="0" name="bottom"/>
  <anchor x="666" y="1462" name="top"/>
  <anchor x="1245" y="1462" name="topright"/>
  <outline>
    <contour>
      <point x="651" y="1462" type="curve"/>
      <point x="184" y="1462" type="line"/>
      <point x="184" y="0" type="line"/>
      <point x="494" y="0" type="line"/>
      <point x="494" y="520" type="line"/>
      <point x="627" y="520" type="line"/>
      <point x="1053" y="520"/>
      <point x="1194" y="750"/>
      <point x="1194" y="1006" type="curve"/>
      <point x="1194" y="1290"/>
      <point x="1028" y="1462"/>
    </contour>
    <contour>
      <point x="635" y="1208" type="line"/>
      <point x="803" y="1208"/>
      <point x="881" y="1139"/>
      <point x="881" y="995" type="curve" smooth="yes"/>
      <point x="881" y="840"/>
      <point x="770" y="774"/>
      <point x="596" y="774" type="curve"/>
      <point x="494" y="774" type="line"/>
      <point x="494" y="1208" type="line"/>
    </contour>
  </outline>
</glyph>
<glyph name="T" format="2">
  <advance width="1186"/>
  <unicode hex="0054"/>
  <anchor x="594" y="0" name="bottom"/>
  <anchor x="594" y="731" name="center"/>
  <anchor x="594" y="1462" name="top"/>
  <anchor x="1145" y="1462" name="topright"/>
  <outline>
    <contour>
      <point x="748" y="0" type="line"/>
      <point x="748" y="1204" type="line"/>
      <point x="1145" y="1204" type="line"/>
      <point x="1145" y="1462" type="line"/>
      <point x="41" y="1462" type="line"/>
      <point x="41" y="1204" type="line"/>
      <point x="438" y="1204" type="line"/>
      <point x="438" y="0" type="line"/>
    </contour>
  </outline>
</glyph>
<glyph name="V" format="2">
  <advance width="1331"/>
  <unicode hex="0056"/>
  <anchor x="662" y="0" name="bottom"/>
  <anchor x="668" y="1462" name="top"/>
  <anchor x="1290" y="1462" name="topright"/>
  <outline>
    <contour>
      <point x="1331" y="1462" type="line"/>
      <point x="1018" y="1462" type="line"/>
      <point x="741" y="592" type="line"/>
      <point x="727" y="545"/>
      <point x="678" y="358"/>
      <point x="666" y="270" type="curve"/>
      <point x="653" y="358"/>
      <point x="602" y="547"/>
      <point x="588" y="592" type="curve" smooth="yes"/>
      <point x="313" y="1462" type="line"/>
      <point x="0" y="1462" type="line"/>
      <point x="496" y="0" type="line"/>
      <point x="834" y="0" type="line"/>
    </contour>
  </outline>
</glyph>
<glyph name="bracketleft" format="2">
  <advance width="678"/>
  <unicode hex="005B"/>
  <outline>
    <contour>
      <point x="627" y="-324" type="line"/>
      <point x="627" y="-113" type="line"/>
      <point x="403" y="-113" type="line"/>
      <point x="403" y="1251" type="line"/>
      <point x="627" y="1251" type="line"/>
      <point x="627" y="1462" type="line"/>
      <point x="143" y="1462" type="line"/>
      <point x="143" y="-324" type="line"/>
    </contour>
  </outline>
</glyph>
<glyph name="grave" format="2">
  <advance width="741"/>
  <unicode hex="0060"/>
  <outline>
    <contour>
      <point x="424" y="1569" type="curve"/>
      <point x="82" y="1569" type="line"/>
      <point x="82" y="1548" type="line"/>
      <point x="160" y="1473"/>
      <point x="352" y="1313"/>
      <point x="457" y="1241" type="curve"/>
      <point x="659" y="1241" type="line"/>
      <point x="659" y="1268" type="line"/>
      <point x="594" y="1343"/>
      <point x="483" y="1477"/>
    </contour>
  </outline>
</glyph>
<glyph name="b" format="2">
  <advance width="1296"/>
  <unicode hex="0062"/>
  <anchor x="682" y="0" name="bottom"/>
  <anchor x="666" y="1556" name="top"/>
  <anchor x="1112" y="1556" name="topright"/>
  <outline>
    <contour>
      <point x="465" y="1556" type="line"/>
      <point x="160" y="1556" type="line"/>
      <point x="160" y="0" type="line"/>
      <point x="393" y="0" type="line"/>
      <point x="444" y="123" type="line"/>
      <point x="465" y="123" type="line"/>
      <point x="524" y="49"/>
      <point x="610" y="-20"/>
      <point x="774" y="-20" type="curve" smooth="yes"/>
      <point x="1030" y="-20"/>
      <point x="1204" y="178"/>
      <point x="1204" y="561" type="curve" smooth="yes"/>
      <point x="1204" y="940"/>
      <point x="1032" y="1139"/>
      <point x="782" y="1139" type="curve" smooth="yes"/>
      <point x="621" y="1139"/>
      <point x="524" y="1065"/>
      <point x="465" y="973" type="curve"/>
      <point x="453" y="973" type="line"/>
      <point x="459" y="1018"/>
      <point x="465" y="1110"/>
      <point x="465" y="1194" type="curve" smooth="yes"/>
    </contour>
    <contour>
      <point x="684" y="895" type="curve"/>
      <point x="813" y="895"/>
      <point x="893" y="784"/>
      <point x="893" y="565" type="curve" smooth="yes"/>
      <point x="893" y="346"/>
      <point x="813" y="227"/>
      <point x="688" y="227" type="curve" smooth="yes"/>
      <point x="518" y="227"/>
      <point x="465" y="346"/>
      <point x="465" y="563" type="curve" smooth="yes"/>
      <point x="465" y="596" type="line" smooth="yes"/>
      <point x="469" y="797"/>
      <point x="524" y="895"/>
    </contour>
  </outline>
</glyph>
<glyph name="d" format="2">
  <advance width="1296"/>
  <unicode hex="0064"/>
  <anchor x="616" y="0" name="bottom"/>
  <anchor x="649" y="559" name="center"/>
  <anchor x="508" y="1556" name="top"/>
  <anchor x="1194" y="1556" name="topright"/>
  <outline>
    <contour>
      <point x="514" y="-20" type="curve" smooth="yes"/>
      <point x="676" y="-20"/>
      <point x="772" y="53"/>
      <point x="831" y="145" type="curve"/>
      <point x="844" y="145" type="line"/>
      <point x="903" y="0" type="line"/>
      <point x="1137" y="0" type="line"/>
      <point x="1137" y="1556" type="line"/>
      <point x="831" y="1556" type="line"/>
      <point x="831" y="1198" type="line" smooth="yes"/>
      <point x="831" y="1110"/>
      <point x="846" y="1018"/>
      <point x="854" y="975" type="curve"/>
      <point x="844" y="975" type="line"/>
      <point x="782" y="1067"/>
      <point x="682" y="1139"/>
      <point x="522" y="1139" type="curve" smooth="yes"/>
      <point x="266" y="1139"/>
      <point x="92" y="940"/>
      <point x="92" y="557" type="curve" smooth="yes"/>
      <point x="92" y="178"/>
      <point x="264" y="-20"/>
    </contour>
    <contour>
      <point x="621" y="223" type="curve" smooth="yes"/>
      <point x="481" y="223"/>
      <point x="401" y="334"/>
      <point x="401" y="553" type="curve" smooth="yes"/>
      <point x="401" y="772"/>
      <point x="481" y="891"/>
      <point x="616" y="891" type="curve" smooth="yes"/>
      <point x="797" y="891"/>
      <point x="852" y="772"/>
      <point x="852" y="555" type="curve" smooth="yes"/>
      <point x="852" y="522" type="line" smooth="yes"/>
      <point x="848" y="322"/>
      <point x="788" y="223"/>
    </contour>
  </outline>
</glyph>
<glyph name="e" format="2">
  <advance width="1210"/>
  <unicode hex="0065"/>
  <anchor x="606" y="0" name="bottom"/>
  <anchor x="606" y="1118" name="top"/>
  <anchor x="1169" y="1118" name="topright"/>
  <outline>
    <contour>
      <point x="621" y="1139" type="curve" smooth="yes"/>
      <point x="305" y="1139"/>
      <point x="92" y="942"/>
      <point x="92" y="551" type="curve" smooth="yes"/>
      <point x="92" y="164"/>
      <point x="330" y="-20"/>
      <point x="666" y="-20" type="curve" smooth="yes"/>
      <point x="838" y="-20"/>
      <point x="948" y="4"/>
      <point x="1059" y="59" type="curve"/>
      <point x="1059" y="295" type="line"/>
      <point x="934" y="236"/>
      <point x="823" y="207"/>
      <point x="680" y="207" type="curve" smooth="yes"/>
      <point x="508" y="207"/>
      <point x="408" y="311"/>
      <point x="401" y="483" type="curve"/>
      <point x="1122" y="483" type="line"/>
      <point x="1122" y="631" type="line"/>
      <point x="1122" y="956"/>
      <point x="930" y="1139"/>
    </contour>
    <contour>
      <point x="623" y="922" type="curve" smooth="yes"/>
      <point x="766" y="922"/>
      <point x="834" y="821"/>
      <point x="836" y="686" type="curve"/>
      <point x="408" y="686" type="line"/>
      <point x="420" y="848"/>
      <point x="504" y="922"/>
    </contour>
  </outline>
</glyph>
<glyph name="g" format="2">
  <advance width="1157"/>
  <unicode hex="0067"/>
  <anchor x="563" y="-492" name="bottom"/>
  <anchor x="548" y="1118" name="top"/>
  <anchor x="1180" y="1118" name="topright"/>
  <outline>
    <contour>
      <point x="487" y="-492" type="curve"/>
      <point x="895" y="-492"/>
      <point x="1120" y="-341.333"/>
      <point x="1120" y="-80" type="curve" smooth="yes"/>
      <point x="1120" y="124"/>
      <point x="988" y="231"/>
      <point x="743" y="231" type="curve"/>
      <point x="553" y="231" type="line"/>
      <point x="441" y="231"/>
      <point x="385" y="253"/>
      <point x="385" y="297" type="curve" smooth="yes"/>
      <point x="385" y="326.333"/>
      <point x="400.667" y="353"/>
      <point x="432" y="377" type="curve"/>
      <point x="468" y="373"/>
      <point x="494" y="371"/>
      <point x="532" y="369" type="curve" smooth="yes"/>
      <point x="829.333" y="369"/>
      <point x="1006" y="510"/>
      <point x="1006" y="750" type="curve" smooth="yes"/>
      <point x="1006" y="812"/>
      <point x="990" y="868"/>
      <point x="958" y="918" type="curve"/>
      <point x="1133" y="963" type="line"/>
      <point x="1133" y="1118" type="line"/>
      <point x="743" y="1118" type="line"/>
      <point x="719" y="1123.333"/>
      <point x="611.667" y="1139"/>
      <point x="549" y="1139" type="curve" smooth="yes"/>
      <point x="254.333" y="1139"/>
      <point x="90" y="1000"/>
      <point x="90" y="756" type="curve" smooth="yes"/>
      <point x="90" y="604"/>
      <point x="163.667" y="486.667"/>
      <point x="281" y="436" type="curve"/>
      <point x="187.667" y="381.333"/>
      <point x="137" y="331.333"/>
      <point x="137" y="246" type="curve" smooth="yes"/>
      <point x="137" y="178"/>
      <point x="191.333" y="110.667"/>
      <point x="254" y="84" type="curve"/>
      <point x="91.333" y="45.333"/>
      <point x="6" y="-47.333"/>
      <point x="6" y="-182" type="curve" smooth="yes"/>
      <point x="6" y="-378"/>
      <point x="175" y="-492"/>
    </contour>
    <contour>
      <point x="500" y="-293" type="curve"/>
      <point x="354.667" y="-293"/>
      <point x="270" y="-242"/>
      <point x="270" y="-158" type="curve" smooth="yes"/>
      <point x="270" y="-71.333"/>
      <point x="355" y="-14"/>
      <point x="467" y="-14" type="curve"/>
      <point x="625" y="-14" type="line"/>
      <point x="778" y="-14"/>
      <point x="850" y="-41"/>
      <point x="850" y="-125" type="curve" smooth="yes"/>
      <point x="850" y="-229"/>
      <point x="718.667" y="-293"/>
    </contour>
    <contour>
      <point x="549" y="555" type="curve"/>
      <point x="435.667" y="555"/>
      <point x="381" y="630.667"/>
      <point x="381" y="752" type="curve" smooth="yes"/>
      <point x="381" y="886.667"/>
      <point x="437" y="954"/>
      <point x="549" y="954" type="curve" smooth="yes"/>
      <point x="659.667" y="954"/>
      <point x="715" y="886.667"/>
      <point x="715" y="752" type="curve" smooth="yes"/>
      <point x="715" y="630.667"/>
      <point x="663.667" y="555"/>
    </contour>
  </outline>
</glyph>
<glyph name="h" format="2">
  <advance width="1346"/>
  <unicode hex="0068"/>
  <anchor x="678" y="0" name="bottom"/>
  <anchor x="674" y="559" name="center"/>
  <anchor x="317" y="1556" name="top"/>
  <anchor x="1153" y="1556" name="topright"/>
  <outline>
    <contour>
      <point x="465" y="1556" type="line"/>
      <point x="160" y="1556" type="line"/>
      <point x="160" y="0" type="line"/>
      <point x="465" y="0" type="line"/>
      <point x="465" y="526" type="line" smooth="yes"/>
      <point x="465" y="764"/>
      <point x="522" y="895"/>
      <point x="707" y="895" type="curve" smooth="yes"/>
      <point x="829" y="895"/>
      <point x="887" y="813"/>
      <point x="887" y="653" type="curve" smooth="yes"/>
      <point x="887" y="0" type="line"/>
      <point x="1192" y="0" type="line"/>
      <point x="1192" y="729" type="line"/>
      <point x="1192" y="1016"/>
      <point x="1032" y="1139"/>
      <point x="791" y="1139" type="curve" smooth="yes"/>
      <point x="653" y="1139"/>
      <point x="539" y="1090"/>
      <point x="467" y="975" type="curve"/>
      <point x="451" y="975" type="line"/>
      <point x="455" y="1016"/>
      <point x="465" y="1128"/>
      <point x="465" y="1239" type="curve"/>
    </contour>
  </outline>
</glyph>
<glyph name="j" format="2">
  <advance width="625"/>
  <unicode hex="006A"/>
  <anchor x="70" y="-492" name="bottom"/>
  <anchor x="313" y="1556" name="top"/>
  <anchor x="584" y="1556" name="topright"/>
  <outline>
    <contour>
      <point x="70" y="-492" type="curve" smooth="yes"/>
      <point x="356" y="-492"/>
      <point x="465" y="-326"/>
      <point x="465" y="-121" type="curve" smooth="yes"/>
      <point x="465" y="1118" type="line"/>
      <point x="160" y="1118" type="line"/>
      <point x="160" y="-76" type="line" smooth="yes"/>
      <point x="160" y="-211"/>
      <point x="94" y="-246"/>
      <point x="12" y="-246" type="curve" smooth="yes"/>
      <point x="-43" y="-246"/>
      <point x="-82" y="-240"/>
      <point x="-131" y="-227" type="curve"/>
      <point x="-131" y="-467" type="line"/>
      <point x="-82" y="-481"/>
      <point x="0" y="-492"/>
    </contour>
    <contour>
      <point x="147" y="1407" type="curve" smooth="yes"/>
      <point x="147" y="1294"/>
      <point x="221" y="1257"/>
      <point x="313" y="1257" type="curve" smooth="yes"/>
      <point x="403" y="1257"/>
      <point x="479" y="1294"/>
      <point x="479" y="1407" type="curve" smooth="yes"/>
      <point x="479" y="1522"/>
      <point x="403" y="1556"/>
      <point x="313" y="1556" type="curve" smooth="yes"/>
      <point x="221" y="1556"/>
      <point x="147" y="1522"/>
    </contour>
  </outline>
</glyph>
<glyph name="l" format="2">
  <advance width="625"/>
  <unicode hex="006C"/>
  <anchor x="313" y="0" name="bottom"/>
  <anchor x="313" y="559" name="center"/>
  <anchor x="313" y="1556" name="top"/>
  <anchor x="508" y="1556" name="topright"/>
  <outline>
    <contour>
      <point x="465" y="0" type="line"/>
      <point x="465" y="1556" type="line"/>
      <point x="160" y="1556" type="line"/>
      <point x="160" y="0" type="line"/>
    </contour>
  </outline>
</glyph>
<glyph name="o" format="2">
  <advance width="1268"/>
  <unicode hex="006F"/>
  <anchor x="635" y="0" name="bottom"/>
  <anchor x="635" y="559" name="center"/>
  <anchor x="635" y="1118" name="top"/>
  <anchor x="1227" y="1118" name="topright"/>
  <outline>
    <contour>
      <point x="1176" y="561" type="curve"/>
      <point x="1176" y="932"/>
      <point x="950" y="1139"/>
      <point x="637" y="1139" type="curve" smooth="yes"/>
      <point x="299" y="1139"/>
      <point x="92" y="932"/>
      <point x="92" y="561" type="curve" smooth="yes"/>
      <point x="92" y="188"/>
      <point x="317" y="-20"/>
      <point x="631" y="-20" type="curve" smooth="yes"/>
      <point x="967" y="-20"/>
      <point x="1176" y="188"/>
    </contour>
    <contour>
      <point x="403" y="561" type="curve"/>
      <point x="403" y="782"/>
      <point x="471" y="893"/>
      <point x="633" y="893" type="curve" smooth="yes"/>
      <point x="797" y="893"/>
      <point x="864" y="782"/>
      <point x="864" y="561" type="curve" smooth="yes"/>
      <point x="864" y="340"/>
      <point x="797" y="225"/>
      <point x="635" y="225" type="curve" smooth="yes"/>
      <point x="471" y="225"/>
      <point x="403" y="340"/>
    </contour>
  </outline>
</glyph>
<glyph name="p" format="2">
  <advance width="1296"/>
  <unicode hex="0070"/>
  <anchor x="315" y="-492" name="bottom"/>
  <anchor x="696" y="1118" name="top"/>
  <anchor x="1255" y="1118" name="topright"/>
  <outline>
    <contour>
      <point x="782" y="1139" type="curve" smooth="yes"/>
      <point x="621" y="1139"/>
      <point x="524" y="1063"/>
      <point x="465" y="973" type="curve"/>
      <point x="451" y="973" type="line"/>
      <point x="408" y="1118" type="line"/>
      <point x="160" y="1118" type="line"/>
      <point x="160" y="-492" type="line"/>
      <point x="465" y="-492" type="line"/>
      <point x="465" y="-41" type="line" smooth="yes"/>
      <point x="465" y="12"/>
      <point x="459" y="70"/>
      <point x="449" y="123" type="curve"/>
      <point x="465" y="123" type="line"/>
      <point x="524" y="49"/>
      <point x="612" y="-20"/>
      <point x="774" y="-20" type="curve" smooth="yes"/>
      <point x="1026" y="-20"/>
      <point x="1204" y="180"/>
      <point x="1204" y="561" type="curve" smooth="yes"/>
      <point x="1204" y="940"/>
      <point x="1034" y="1139"/>
    </contour>
    <contour>
      <point x="684" y="895" type="curve" smooth="yes"/>
      <point x="827" y="895"/>
      <point x="893" y="784"/>
      <point x="893" y="565" type="curve" smooth="yes"/>
      <point x="893" y="346"/>
      <point x="827" y="227"/>
      <point x="688" y="227" type="curve" smooth="yes"/>
      <point x="518" y="227"/>
      <point x="465" y="346"/>
      <point x="465" y="563" type="curve" smooth="yes"/>
      <point x="465" y="596" type="line" smooth="yes"/>
      <point x="469" y="797"/>
      <point x="524" y="895"/>
    </contour>
  </outline>
</glyph>
<glyph name="r" format="2">
  <advance width="930"/>
  <unicode hex="0072"/>
  <anchor x="319" y="0" name="bottom"/>
  <anchor x="520" y="1118" name="top"/>
  <anchor x="889" y="1118" name="topright"/>
  <outline>
    <contour>
      <point x="784" y="1139" type="curve" smooth="yes"/>
      <point x="635" y="1139"/>
      <point x="516" y="1044"/>
      <point x="451" y="930" type="curve"/>
      <point x="436" y="930" type="line"/>
      <point x="391" y="1118" type="line"/>
      <point x="160" y="1118" type="line"/>
      <point x="160" y="0" type="line"/>
      <point x="465" y="0" type="line"/>
      <point x="465" y="569" type="line" smooth="yes"/>
      <point x="465" y="780"/>
      <point x="616" y="854"/>
      <point x="774" y="854" type="curve" smooth="yes"/>
      <point x="801" y="854"/>
      <point x="844" y="850"/>
      <point x="864" y="844" type="curve"/>
      <point x="887" y="1130" type="line"/>
      <point x="862" y="1135"/>
      <point x="815" y="1139"/>
    </contour>
  </outline>
</glyph>
<glyph name="s" format="2">
  <advance width="1018"/>
  <unicode hex="0073"/>
  <anchor x="510" y="0" name="bottom"/>
  <anchor x="510" y="1118" name="top"/>
  <anchor x="936" y="1118" name="topright"/>
  <outline>
    <contour>
      <point x="940" y="332" type="curve" smooth="yes"/>
      <point x="940" y="530"/>
      <point x="819" y="602"/>
      <point x="629" y="680" type="curve" smooth="yes"/>
      <point x="432" y="760"/>
      <point x="395" y="786"/>
      <point x="395" y="840" type="curve" smooth="yes"/>
      <point x="395" y="889"/>
      <point x="440" y="913"/>
      <point x="530" y="913" type="curve" smooth="yes"/>
      <point x="631" y="913"/>
      <point x="725" y="879"/>
      <point x="836" y="831" type="curve"/>
      <point x="928" y="1051" type="line"/>
      <point x="795" y="1112"/>
      <point x="674" y="1139"/>
      <point x="535" y="1139" type="curve" smooth="yes"/>
      <point x="266" y="1139"/>
      <point x="92" y="1034"/>
      <point x="92" y="827" type="curve" smooth="yes"/>
      <point x="92" y="637"/>
      <point x="186" y="563"/>
      <point x="397" y="475" type="curve" smooth="yes"/>
      <point x="614" y="383"/>
      <point x="639" y="354"/>
      <point x="639" y="299" type="curve" smooth="yes"/>
      <point x="639" y="242"/>
      <point x="592" y="203"/>
      <point x="473" y="203" type="curve" smooth="yes"/>
      <point x="367" y="203"/>
      <point x="215" y="242"/>
      <point x="94" y="297" type="curve"/>
      <point x="94" y="45" type="line"/>
      <point x="207" y="-2"/>
      <point x="307" y="-20"/>
      <point x="463" y="-20" type="curve" smooth="yes"/>
      <point x="778" y="-20"/>
      <point x="940" y="104"/>
    </contour>
  </outline>
</glyph>
<glyph name="v" format="2">
  <advance width="1165"/>
  <unicode hex="0076"/>
  <anchor x="582" y="0" name="bottom"/>
  <anchor x="575" y="1118" name="top"/>
  <anchor x="1124" y="1118" name="topright"/>
  <outline>
    <contour>
      <point x="426" y="0" type="line"/>
      <point x="739" y="0" type="line"/>
      <point x="1165" y="1118" type="line"/>
      <point x="846" y="1118" type="line"/>
      <point x="631" y="481" type="line" smooth="yes"/>
      <point x="606" y="406"/>
      <point x="590" y="322"/>
      <point x="586" y="252" type="curve"/>
      <point x="578" y="252" type="line"/>
      <point x="573" y="317"/>
      <point x="559" y="406"/>
      <point x="535" y="481" type="curve" smooth="yes"/>
      <point x="319" y="1118" type="line"/>
      <point x="0" y="1118" type="line"/>
    </contour>
  </outline>
</glyph>
<glyph name="y" format="2">
  <advance width="1165"/>
  <unicode hex="0079"/>
  <anchor x="246" y="-492" name="bottom"/>
  <anchor x="584" y="1118" name="top"/>
  <anchor x="1124" y="1118" name="topright"/>
  <outline>
    <contour>
      <point x="0" y="1118" type="line"/>
      <point x="444" y="8" type="line"/>
      <point x="426" y="-47" type="line" smooth="yes"/>
      <point x="389" y="-156"/>
      <point x="317" y="-246"/>
      <point x="190" y="-246" type="curve" smooth="yes"/>
      <point x="143" y="-246"/>
      <point x="98" y="-240"/>
      <point x="70" y="-233" type="curve"/>
      <point x="70" y="-475" type="line"/>
      <point x="106" y="-483"/>
      <point x="156" y="-492"/>
      <point x="225" y="-492" type="curve" smooth="yes"/>
      <point x="438" y="-492"/>
      <point x="606" y="-375"/>
      <point x="692" y="-143" type="curve" smooth="yes"/>
      <point x="1165" y="1118" type="line"/>
      <point x="838" y="1118" type="line"/>
      <point x="631" y="489" type="line" smooth="yes"/>
      <point x="610" y="428"/>
      <point x="596" y="367"/>
      <point x="588" y="295" type="curve"/>
      <point x="582" y="295" type="line"/>
      <point x="575" y="367"/>
      <point x="565" y="428"/>
      <point x="545" y="489" type="curve" smooth="yes"/>
      <point x="334" y="1118" type="line"/>
    </contour>
  </outline>
</glyph>
<glyph name="z" format="2">
  <advance width="999"/>
  <unicode hex="007A"/>
  <anchor x="508" y="0" name="bottom"/>
  <anchor x="500" y="1118" name="top"/>
  <anchor x="938" y="1118" name="topright"/>
  <outline>
    <contour>
      <point x="938" y="0" type="line"/>
      <point x="938" y="233" type="line"/>
      <point x="416" y="233" type="line"/>
      <point x="920" y="920" type="line"/>
      <point x="920" y="1118" type="line"/>
      <point x="86" y="1118" type="line"/>
      <point x="86" y="885" type="line"/>
      <point x="573" y="885" type="line"/>
      <point x="55" y="180" type="line"/>
      <point x="55" y="0" type="line"/>
    </contour>
  </outline>
</glyph>
<glyph name="asciitilde" format="2">
  <advance width="1171"/>
  <unicode hex="007E"/>
  <outline>
    <contour>
      <point x="549" y="616" type="curve" smooth="yes"/>
      <point x="678" y="563"/>
      <point x="745" y="553"/>
      <point x="825" y="553" type="curve" smooth="yes"/>
      <point x="930" y="553"/>
      <point x="1014" y="590"/>
      <point x="1081" y="662" type="curve"/>
      <point x="1081" y="893" type="line"/>
      <point x="1014" y="825"/>
      <point x="926" y="772"/>
      <point x="848" y="772" type="curve" smooth="yes"/>
      <point x="788" y="772"/>
      <point x="721" y="784"/>
      <point x="621" y="827" type="curve" smooth="yes"/>
      <point x="492" y="881"/>
      <point x="424" y="891"/>
      <point x="344" y="891" type="curve" smooth="yes"/>
      <point x="240" y="891"/>
      <point x="156" y="854"/>
      <point x="88" y="782" type="curve"/>
      <point x="88" y="551" type="line"/>
      <point x="156" y="618"/>
      <point x="244" y="672"/>
      <point x="322" y="672" type="curve" smooth="yes"/>
      <point x="383" y="672"/>
      <point x="449" y="659"/>
    </contour>
  </outline>
</glyph>
<glyph name="exclamdown" format="2">
  <advance width="586"/>
  <unicode hex="00A1"/>
  <outline>
    <contour>
      <point x="168" y="606" type="line"/>
      <point x="117" y="-369" type="line"/>
      <point x="463" y="-369" type="line"/>
      <point x="412" y="606" type="line"/>
    </contour>
    <contour>
      <point x="467" y="948" type="curve" smooth="yes"/>
      <point x="467" y="1069"/>
      <point x="389" y="1118"/>
      <point x="291" y="1118" type="curve" smooth="yes"/>
      <point x="197" y="1118"/>
      <point x="117" y="1069"/>
      <point x="117" y="948" type="curve" smooth="yes"/>
      <point x="117" y="823"/>
      <point x="197" y="778"/>
      <point x="291" y="778" type="curve" smooth="yes"/>
      <point x="389" y="778"/>
      <point x="467" y="823"/>
    </contour>
  </outline>
</glyph>
<glyph name="currency" format="2">
  <advance width="1171"/>
  <unicode hex="00A4"/>
  <outline>
    <contour>
      <point x="188" y="723" type="curve" smooth="yes"/>
      <point x="188" y="651"/>
      <point x="207" y="586"/>
      <point x="242" y="526" type="curve"/>
      <point x="115" y="401" type="line"/>
      <point x="260" y="256" type="line"/>
      <point x="385" y="379" type="line"/>
      <point x="442" y="344"/>
      <point x="510" y="328"/>
      <point x="584" y="328" type="curve" smooth="yes"/>
      <point x="655" y="328"/>
      <point x="723" y="348"/>
      <point x="780" y="379" type="curve"/>
      <point x="907" y="254" type="line"/>
      <point x="1053" y="399" type="line"/>
      <point x="928" y="524" type="line"/>
      <point x="963" y="584"/>
      <point x="981" y="649"/>
      <point x="981" y="723" type="curve" smooth="yes"/>
      <point x="981" y="795"/>
      <point x="961" y="866"/>
      <point x="928" y="922" type="curve"/>
      <point x="1057" y="1051" type="line"/>
      <point x="907" y="1194" type="line"/>
      <point x="780" y="1065" type="line"/>
      <point x="719" y="1102"/>
      <point x="655" y="1120"/>
      <point x="584" y="1120" type="curve" smooth="yes"/>
      <point x="516" y="1120"/>
      <point x="444" y="1100"/>
      <point x="387" y="1067" type="curve"/>
      <point x="260" y="1194" type="line"/>
      <point x="113" y="1047" type="line"/>
      <point x="242" y="920" type="line"/>
      <point x="209" y="862"/>
      <point x="188" y="795"/>
    </contour>
    <contour>
      <point x="395" y="723" type="curve" smooth="yes"/>
      <point x="395" y="829"/>
      <point x="479" y="913"/>
      <point x="584" y="913" type="curve" smooth="yes"/>
      <point x="690" y="913"/>
      <point x="776" y="829"/>
      <point x="776" y="723" type="curve" smooth="yes"/>
      <point x="776" y="618"/>
      <point x="690" y="535"/>
      <point x="584" y="535" type="curve" smooth="yes"/>
      <point x="479" y="535"/>
      <point x="395" y="618"/>
    </contour>
  </outline>
</glyph>
<glyph name="yen" format="2">
  <advance width="1171"/>
  <unicode hex="00A5"/>
  <outline>
    <contour>
      <point x="584" y="860" type="line"/>
      <point x="322" y="1462" type="line"/>
      <point x="6" y="1462" type="line"/>
      <point x="383" y="715" type="line"/>
      <point x="193" y="715" type="line"/>
      <point x="193" y="537" type="line"/>
      <point x="440" y="537" type="line"/>
      <point x="440" y="399" type="line"/>
      <point x="193" y="399" type="line"/>
      <point x="193" y="221" type="line"/>
      <point x="440" y="221" type="line"/>
      <point x="440" y="0" type="line"/>
      <point x="727" y="0" type="line"/>
      <point x="727" y="221" type="line"/>
      <point x="973" y="221" type="line"/>
      <point x="973" y="399" type="line"/>
      <point x="727" y="399" type="line"/>
      <point x="727" y="537" type="line"/>
      <point x="973" y="537" type="line"/>
      <point x="973" y="715" type="line"/>
      <point x="778" y="715" type="line"/>
      <point x="1161" y="1462" type="line"/>
      <point x="848" y="1462" type="line"/>
    </contour>
  </outline>
</glyph>
<glyph name="brokenbar" format="2">
  <advance width="1128"/>
  <unicode hex="00A6"/>
  <outline>
    <contour>
      <point x="455" y="1550" type="line"/>
      <point x="455" y="735" type="line"/>
      <point x="674" y="735" type="line"/>
      <point x="674" y="1550" type="line"/>
    </contour>
    <contour>
      <point x="455" y="350" type="line"/>
      <point x="455" y="-465" type="line"/>
      <point x="674" y="-465" type="line"/>
      <point x="674" y="350" type="line"/>
    </contour>
  </outline>
</glyph>
<glyph name="section" format="2">
  <advance width="995"/>
  <unicode hex="00A7"/>
  <outline>
    <contour>
      <point x="121" y="801" type="curve"/>
      <point x="121" y="618"/>
      <point x="238" y="541"/>
      <point x="442" y="457" type="curve" smooth="yes"/>
      <point x="618" y="383"/>
      <point x="649" y="352"/>
      <point x="649" y="285" type="curve" smooth="yes"/>
      <point x="649" y="219"/>
      <point x="604" y="168"/>
      <point x="455" y="168" type="curve" smooth="yes"/>
      <point x="352" y="168"/>
      <point x="211" y="213"/>
      <point x="106" y="266" type="curve"/>
      <point x="106" y="59" type="line"/>
      <point x="199" y="8"/>
      <point x="309" y="-20"/>
      <point x="455" y="-20" type="curve" smooth="yes"/>
      <point x="725" y="-20"/>
      <point x="895" y="106"/>
      <point x="895" y="303" type="curve" smooth="yes"/>
      <point x="895" y="401"/>
      <point x="852" y="469"/>
      <point x="770" y="522" type="curve"/>
      <point x="844" y="571"/>
      <point x="895" y="647"/>
      <point x="895" y="780" type="curve" smooth="yes"/>
      <point x="895" y="942"/>
      <point x="768" y="1042"/>
      <point x="578" y="1118" type="curve" smooth="yes"/>
      <point x="428" y="1178"/>
      <point x="365" y="1217"/>
      <point x="365" y="1284" type="curve" smooth="yes"/>
      <point x="365" y="1346"/>
      <point x="412" y="1376"/>
      <point x="520" y="1376" type="curve" smooth="yes"/>
      <point x="623" y="1376"/>
      <point x="717" y="1335"/>
      <point x="807" y="1292" type="curve"/>
      <point x="889" y="1483" type="line"/>
      <point x="776" y="1532"/>
      <point x="662" y="1567"/>
      <point x="526" y="1567" type="curve" smooth="yes"/>
      <point x="283" y="1567"/>
      <point x="121" y="1452"/>
      <point x="121" y="1280" type="curve" smooth="yes"/>
      <point x="121" y="1180"/>
      <point x="170" y="1102"/>
      <point x="254" y="1049" type="curve"/>
      <point x="182" y="999"/>
      <point x="121" y="918"/>
    </contour>
    <contour>
      <point x="344" y="823" type="curve"/>
      <point x="344" y="891"/>
      <point x="387" y="942"/>
      <point x="434" y="961" type="curve"/>
      <point x="621" y="895"/>
      <point x="668" y="836"/>
      <point x="668" y="754" type="curve" smooth="yes"/>
      <point x="668" y="684"/>
      <point x="629" y="639"/>
      <point x="590" y="610" type="curve"/>
      <point x="575" y="616" type="line"/>
      <point x="418" y="682"/>
      <point x="344" y="741"/>
    </contour>
  </outline>
</glyph>
<glyph name="copyright" format="2">
  <advance width="1704"/>
  <unicode hex="00A9"/>
  <outline>
    <contour>
      <point x="852" y="-20" type="curve" smooth="yes"/>
      <point x="1288" y="-20"/>
      <point x="1604" y="295"/>
      <point x="1604" y="731" type="curve" smooth="yes"/>
      <point x="1604" y="1167"/>
      <point x="1268" y="1483"/>
      <point x="852" y="1483" type="curve" smooth="yes"/>
      <point x="424" y="1483"/>
      <point x="100" y="1147"/>
      <point x="100" y="731" type="curve" smooth="yes"/>
      <point x="100" y="295"/>
      <point x="416" y="-20"/>
    </contour>
    <contour>
      <point x="883" y="262" type="curve" smooth="yes"/>
      <point x="979" y="262"/>
      <point x="1040" y="283"/>
      <point x="1106" y="311" type="curve"/>
      <point x="1106" y="453" type="line"/>
      <point x="1038" y="426"/>
      <point x="954" y="406"/>
      <point x="891" y="406" type="curve" smooth="yes"/>
      <point x="711" y="406"/>
      <point x="639" y="522"/>
      <point x="639" y="731" type="curve" smooth="yes"/>
      <point x="639" y="932"/>
      <point x="731" y="1055"/>
      <point x="893" y="1055" type="curve" smooth="yes"/>
      <point x="950" y="1055"/>
      <point x="1016" y="1036"/>
      <point x="1083" y="1001" type="curve"/>
      <point x="1143" y="1139" type="line"/>
      <point x="1067" y="1178"/>
      <point x="975" y="1200"/>
      <point x="891" y="1200" type="curve" smooth="yes"/>
      <point x="616" y="1200"/>
      <point x="467" y="1004"/>
      <point x="467" y="731" type="curve" smooth="yes"/>
      <point x="467" y="449"/>
      <point x="604" y="262"/>
    </contour>
    <contour>
      <point x="852" y="111" type="curve" smooth="yes"/>
      <point x="494" y="111"/>
      <point x="240" y="369"/>
      <point x="240" y="731" type="curve" smooth="yes"/>
      <point x="240" y="1094"/>
      <point x="502" y="1354"/>
      <point x="852" y="1354" type="curve" smooth="yes"/>
      <point x="1198" y="1354"/>
      <point x="1460" y="1073"/>
      <point x="1460" y="731" type="curve" smooth="yes"/>
      <point x="1460" y="369"/>
      <point x="1188" y="111"/>
    </contour>
  </outline>
</glyph>
<glyph name="ordfeminine" format="2">
  <advance width="784"/>
  <unicode hex="00AA"/>
  <anchor x="373" y="756" name="bottom"/>
  <anchor x="373" y="1485" name="top"/>
  <outline>
    <contour>
      <point x="410" y="1479" type="curve" smooth="yes"/>
      <point x="279" y="1479"/>
      <point x="174" y="1440"/>
      <point x="86" y="1397" type="curve"/>
      <point x="152" y="1262" type="line"/>
      <point x="231" y="1298"/>
      <point x="307" y="1323"/>
      <point x="369" y="1323" type="curve" smooth="yes"/>
      <point x="453" y="1323"/>
      <point x="496" y="1286"/>
      <point x="496" y="1223" type="curve" smooth="yes"/>
      <point x="496" y="1206" type="line"/>
      <point x="397" y="1202" type="line" smooth="yes"/>
      <point x="176" y="1192"/>
      <point x="47" y="1135"/>
      <point x="47" y="975" type="curve" smooth="yes"/>
      <point x="47" y="823"/>
      <point x="143" y="752"/>
      <point x="289" y="752" type="curve" smooth="yes"/>
      <point x="387" y="752"/>
      <point x="473" y="797"/>
      <point x="530" y="874" type="curve"/>
      <point x="561" y="764" type="line"/>
      <point x="696" y="764" type="line"/>
      <point x="696" y="1206" type="line" smooth="yes"/>
      <point x="696" y="1372"/>
      <point x="604" y="1479"/>
    </contour>
    <contour>
      <point x="496" y="1087" type="line"/>
      <point x="496" y="1051" type="line"/>
      <point x="496" y="965"/>
      <point x="432" y="903"/>
      <point x="330" y="903" type="curve" smooth="yes"/>
      <point x="287" y="903"/>
      <point x="252" y="926"/>
      <point x="252" y="977" type="curve" smooth="yes"/>
      <point x="252" y="1024"/>
      <point x="276" y="1073"/>
      <point x="397" y="1081" type="curve" smooth="yes"/>
    </contour>
  </outline>
</glyph>
<glyph name="twosuperior" format="2">
  <advance width="776"/>
  <unicode hex="00B2"/>
  <outline>
    <contour>
      <point x="702" y="852" type="line"/>
      <point x="702" y="1053" type="line"/>
      <point x="350" y="1053" type="line"/>
      <point x="455" y="1147" type="line" smooth="yes"/>
      <point x="614" y="1292"/>
      <point x="678" y="1376"/>
      <point x="678" y="1499" type="curve" smooth="yes"/>
      <point x="678" y="1661"/>
      <point x="559" y="1749"/>
      <point x="383" y="1749" type="curve" smooth="yes"/>
      <point x="238" y="1749"/>
      <point x="133" y="1696"/>
      <point x="47" y="1620" type="curve"/>
      <point x="170" y="1468" type="line"/>
      <point x="240" y="1530"/>
      <point x="297" y="1556"/>
      <point x="350" y="1556" type="curve" smooth="yes"/>
      <point x="403" y="1556"/>
      <point x="438" y="1528"/>
      <point x="438" y="1479" type="curve" smooth="yes"/>
      <point x="438" y="1407"/>
      <point x="401" y="1358"/>
      <point x="279" y="1239" type="curve" smooth="yes"/>
      <point x="55" y="1020" type="line"/>
      <point x="55" y="852" type="line"/>
    </contour>
  </outline>
</glyph>
<glyph name="micro" format="2">
  <advance width="1352"/>
  <unicode hex="00B5"/>
  <outline>
    <contour>
      <point x="1192" y="1118" type="line"/>
      <point x="887" y="1118" type="line"/>
      <point x="887" y="592" type="line" smooth="yes"/>
      <point x="887" y="354"/>
      <point x="829" y="223"/>
      <point x="647" y="223" type="curve" smooth="yes"/>
      <point x="522" y="223"/>
      <point x="465" y="305"/>
      <point x="465" y="465" type="curve" smooth="yes"/>
      <point x="465" y="1118" type="line"/>
      <point x="160" y="1118" type="line"/>
      <point x="160" y="-492" type="line"/>
      <point x="465" y="-492" type="line"/>
      <point x="465" y="-172" type="line"/>
      <point x="465" y="-98"/>
      <point x="461" y="27"/>
      <point x="455" y="70" type="curve"/>
      <point x="461" y="70" type="line"/>
      <point x="504" y="12"/>
      <point x="571" y="-20"/>
      <point x="653" y="-20" type="curve" smooth="yes"/>
      <point x="770" y="-20"/>
      <point x="848" y="37"/>
      <point x="903" y="150" type="curve"/>
      <point x="918" y="150" type="line"/>
      <point x="961" y="0" type="line"/>
      <point x="1192" y="0" type="line"/>
    </contour>
  </outline>
</glyph>
<glyph name="paragraph" format="2">
  <advance width="1341"/>
  <unicode hex="00B6"/>
  <outline>
    <contour>
      <point x="1167" y="-260" type="line"/>
      <point x="1167" y="1556" type="line"/>
      <point x="563" y="1556" type="line" smooth="yes"/>
      <point x="295" y="1556"/>
      <point x="113" y="1434"/>
      <point x="113" y="1042" type="curve" smooth="yes"/>
      <point x="113" y="668"/>
      <point x="279" y="541"/>
      <point x="532" y="541" type="curve" smooth="yes"/>
      <point x="590" y="541"/>
      <point x="637" y="547"/>
      <point x="678" y="559" type="curve"/>
      <point x="678" y="-260" type="line"/>
      <point x="840" y="-260" type="line"/>
      <point x="840" y="1356" type="line"/>
      <point x="1006" y="1356" type="line"/>
      <point x="1006" y="-260" type="line"/>
    </contour>
  </outline>
</glyph>
<glyph name="onesuperior" format="2">
  <advance width="776"/>
  <unicode hex="00B9"/>
  <outline>
    <contour>
      <point x="584" y="1729" type="line"/>
      <point x="393" y="1729" type="line"/>
      <point x="92" y="1493" type="line"/>
      <point x="201" y="1366" type="line"/>
      <point x="279" y="1427" type="line"/>
      <point x="301" y="1446"/>
      <point x="338" y="1483"/>
      <point x="354" y="1505" type="curve"/>
      <point x="350" y="1475"/>
      <point x="346" y="1352"/>
      <point x="346" y="1298" type="curve" smooth="yes"/>
      <point x="346" y="852" type="line"/>
      <point x="584" y="852" type="line"/>
    </contour>
  </outline>
</glyph>
<glyph name="ordmasculine" format="2">
  <advance width="795"/>
  <unicode hex="00BA"/>
  <anchor x="397" y="737" name="bottom"/>
  <anchor x="410" y="1485" name="top"/>
  <outline>
    <contour>
      <point x="737" y="1116" type="curve"/>
      <point x="737" y="1348"/>
      <point x="592" y="1479"/>
      <point x="399" y="1479" type="curve" smooth="yes"/>
      <point x="188" y="1479"/>
      <point x="57" y="1348"/>
      <point x="57" y="1116" type="curve" smooth="yes"/>
      <point x="57" y="885"/>
      <point x="199" y="752"/>
      <point x="395" y="752" type="curve" smooth="yes"/>
      <point x="604" y="752"/>
      <point x="737" y="885"/>
    </contour>
    <contour>
      <point x="260" y="1116" type="curve"/>
      <point x="260" y="1249"/>
      <point x="301" y="1315"/>
      <point x="397" y="1315" type="curve" smooth="yes"/>
      <point x="492" y="1315"/>
      <point x="532" y="1249"/>
      <point x="532" y="1116" type="curve" smooth="yes"/>
      <point x="532" y="983"/>
      <point x="492" y="915"/>
      <point x="397" y="915" type="curve" smooth="yes"/>
      <point x="301" y="915"/>
      <point x="260" y="983"/>
    </contour>
  </outline>
</glyph>
<glyph name="guillemotright" format="2">
  <advance width="1260"/>
  <unicode hex="00BB"/>
  <outline>
    <contour>
      <point x="1178" y="547" type="line"/>
      <point x="1178" y="573" type="line"/>
      <point x="807" y="1028" type="line"/>
      <point x="588" y="909" type="line"/>
      <point x="866" y="561" type="line"/>
      <point x="588" y="213" type="line"/>
      <point x="807" y="94" type="line"/>
    </contour>
    <contour>
      <point x="672" y="547" type="line"/>
      <point x="672" y="573" type="line"/>
      <point x="301" y="1028" type="line"/>
      <point x="82" y="909" type="line"/>
      <point x="360" y="561" type="line"/>
      <point x="82" y="213" type="line"/>
      <point x="301" y="94" type="line"/>
    </contour>
  </outline>
</glyph>
<glyph name="onequarter" format="2">
  <advance width="1700"/>
  <unicode hex="00BC"/>
  <outline>
    <contour>
      <point x="319" y="0" type="line"/>
      <point x="559" y="0" type="line"/>
      <point x="1370" y="1462" type="line"/>
      <point x="1130" y="1462" type="line"/>
    </contour>
    <contour>
      <point x="299" y="586" type="line"/>
      <point x="537" y="586" type="line"/>
      <point x="537" y="1462" type="line"/>
      <point x="346" y="1462" type="line"/>
      <point x="45" y="1227" type="line"/>
      <point x="154" y="1100" type="line"/>
      <point x="231" y="1161" type="line"/>
      <point x="254" y="1180"/>
      <point x="291" y="1217"/>
      <point x="307" y="1239" type="curve"/>
      <point x="303" y="1208"/>
      <point x="299" y="1085"/>
      <point x="299" y="1032" type="curve" smooth="yes"/>
    </contour>
    <contour>
      <point x="1319" y="0" type="line"/>
      <point x="1556" y="0" type="line"/>
      <point x="1556" y="152" type="line"/>
      <point x="1681" y="152" type="line"/>
      <point x="1681" y="319" type="line"/>
      <point x="1556" y="319" type="line"/>
      <point x="1556" y="883" type="line"/>
      <point x="1321" y="883" type="line"/>
      <point x="936" y="305" type="line"/>
      <point x="936" y="152" type="line"/>
      <point x="1319" y="152" type="line"/>
    </contour>
    <contour>
      <point x="1120" y="319" type="line"/>
      <point x="1247" y="510" type="line"/>
      <point x="1272" y="547"/>
      <point x="1311" y="631"/>
      <point x="1325" y="668" type="curve"/>
      <point x="1321" y="602"/>
      <point x="1319" y="539"/>
      <point x="1319" y="483" type="curve"/>
      <point x="1319" y="319" type="line"/>
    </contour>
  </outline>
</glyph>
<glyph name="threequarters" format="2">
  <advance width="1731"/>
  <unicode hex="00BE"/>
  <outline>
    <contour>
      <point x="391" y="0" type="line"/>
      <point x="631" y="0" type="line"/>
      <point x="1442" y="1462" type="line"/>
      <point x="1202" y="1462" type="line"/>
    </contour>
    <contour>
      <point x="362" y="569" type="curve" smooth="yes"/>
      <point x="610" y="569"/>
      <point x="725" y="668"/>
      <point x="725" y="829" type="curve"/>
      <point x="725" y="924"/>
      <point x="662" y="1010"/>
      <point x="526" y="1038" type="curve"/>
      <point x="526" y="1051" type="line"/>
      <point x="645" y="1090"/>
      <point x="696" y="1157"/>
      <point x="696" y="1249" type="curve" smooth="yes"/>
      <point x="696" y="1391"/>
      <point x="573" y="1481"/>
      <point x="408" y="1481" type="curve" smooth="yes"/>
      <point x="270" y="1481"/>
      <point x="174" y="1434"/>
      <point x="92" y="1372" type="curve"/>
      <point x="193" y="1231" type="line"/>
      <point x="268" y="1284"/>
      <point x="317" y="1309"/>
      <point x="381" y="1309" type="curve" smooth="yes"/>
      <point x="449" y="1309"/>
      <point x="481" y="1272"/>
      <point x="481" y="1221" type="curve" smooth="yes"/>
      <point x="481" y="1165"/>
      <point x="457" y="1112"/>
      <point x="317" y="1112" type="curve"/>
      <point x="225" y="1112" type="line"/>
      <point x="225" y="952" type="line"/>
      <point x="338" y="952" type="line" smooth="yes"/>
      <point x="467" y="952"/>
      <point x="504" y="901"/>
      <point x="504" y="846" type="curve" smooth="yes"/>
      <point x="504" y="776"/>
      <point x="459" y="739"/>
      <point x="360" y="739" type="curve" smooth="yes"/>
      <point x="264" y="739"/>
      <point x="178" y="776"/>
      <point x="90" y="829" type="curve"/>
      <point x="90" y="639" type="line"/>
      <point x="176" y="592"/>
      <point x="262" y="569"/>
    </contour>
    <contour>
      <point x="1350" y="0" type="line"/>
      <point x="1587" y="0" type="line"/>
      <point x="1587" y="152" type="line"/>
      <point x="1712" y="152" type="line"/>
      <point x="1712" y="319" type="line"/>
      <point x="1587" y="319" type="line"/>
      <point x="1587" y="883" type="line"/>
      <point x="1352" y="883" type="line"/>
      <point x="967" y="305" type="line"/>
      <point x="967" y="152" type="line"/>
      <point x="1350" y="152" type="line"/>
    </contour>
    <contour>
      <point x="1151" y="319" type="line"/>
      <point x="1278" y="510" type="line"/>
      <point x="1303" y="547"/>
      <point x="1341" y="631"/>
      <point x="1356" y="668" type="curve"/>
      <point x="1352" y="602"/>
      <point x="1350" y="539"/>
      <point x="1350" y="483" type="curve"/>
      <point x="1350" y="319" type="line"/>
    </contour>
  </outline>
</glyph>
<glyph name="Eth" format="2">
  <advance width="1516"/>
  <unicode hex="00D0"/>
  <anchor x="758" y="0" name="bottom"/>
  <anchor x="758" y="1462" name="top"/>
  <outline>
    <contour>
      <point x="643" y="1462" type="curve" smooth="yes"/>
      <point x="184" y="1462" type="line"/>
      <point x="184" y="850" type="line"/>
      <point x="47" y="850" type="line"/>
      <point x="47" y="596" type="line"/>
      <point x="184" y="596" type="line"/>
      <point x="184" y="0" type="line"/>
      <point x="598" y="0" type="line" smooth="yes"/>
      <point x="1102" y="0"/>
      <point x="1397" y="252"/>
      <point x="1397" y="745" type="curve" smooth="yes"/>
      <point x="1397" y="1214"/>
      <point x="1102" y="1462"/>
    </contour>
    <contour>
      <point x="657" y="1208" type="line" smooth="yes"/>
      <point x="924" y="1208"/>
      <point x="1075" y="1061"/>
      <point x="1075" y="737" type="curve" smooth="yes"/>
      <point x="1075" y="418"/>
      <point x="924" y="256"/>
      <point x="625" y="256" type="curve" smooth="yes"/>
      <point x="494" y="256" type="line"/>
      <point x="494" y="596" type="line"/>
      <point x="731" y="596" type="line"/>
      <point x="731" y="850" type="line"/>
      <point x="494" y="850" type="line"/>
      <point x="494" y="1208" type="line"/>
    </contour>
  </outline>
</glyph>
<glyph name="multiply" format="2">
  <advance width="1171"/>
  <unicode hex="00D7"/>
  <outline>
    <contour>
      <point x="887" y="1178" type="line"/>
      <point x="582" y="879" type="line"/>
      <point x="281" y="1178" type="line"/>
      <point x="129" y="1024" type="line"/>
      <point x="428" y="723" type="line"/>
      <point x="131" y="422" type="line"/>
      <point x="281" y="270" type="line"/>
      <point x="582" y="569" type="line"/>
      <point x="887" y="268" type="line"/>
      <point x="1036" y="420" type="line"/>
      <point x="735" y="723" type="line"/>
      <point x="1040" y="1028" type="line"/>
    </contour>
  </outline>
</glyph>
<glyph name="germandbls" format="2">
  <advance width="1456"/>
  <unicode hex="00DF"/>
  <anchor x="729" y="0" name="bottom"/>
  <anchor x="729" y="1567" name="top"/>
  <outline>
    <contour>
      <point x="1249" y="1241" type="curve" smooth="yes"/>
      <point x="1249" y="1450"/>
      <point x="1018" y="1567"/>
      <point x="711" y="1567" type="curve" smooth="yes"/>
      <point x="397" y="1567"/>
      <point x="160" y="1430"/>
      <point x="160" y="1139" type="curve" smooth="yes"/>
      <point x="160" y="0" type="line"/>
      <point x="465" y="0" type="line"/>
      <point x="465" y="1128" type="line" smooth="yes"/>
      <point x="465" y="1266"/>
      <point x="567" y="1329"/>
      <point x="711" y="1329" type="curve" smooth="yes"/>
      <point x="840" y="1329"/>
      <point x="938" y="1272"/>
      <point x="938" y="1188" type="curve" smooth="yes"/>
      <point x="938" y="1026"/>
      <point x="659" y="1001"/>
      <point x="659" y="788" type="curve" smooth="yes"/>
      <point x="659" y="680"/>
      <point x="715" y="612"/>
      <point x="883" y="516" type="curve" smooth="yes"/>
      <point x="1042" y="424"/>
      <point x="1071" y="393"/>
      <point x="1071" y="322" type="curve" smooth="yes"/>
      <point x="1071" y="240"/>
      <point x="1010" y="199"/>
      <point x="903" y="199" type="curve" smooth="yes"/>
      <point x="811" y="199"/>
      <point x="684" y="242"/>
      <point x="621" y="285" type="curve"/>
      <point x="621" y="43" type="line"/>
      <point x="700" y="-2"/>
      <point x="793" y="-20"/>
      <point x="924" y="-20" type="curve" smooth="yes"/>
      <point x="1225" y="-20"/>
      <point x="1384" y="98"/>
      <point x="1384" y="326" type="curve" smooth="yes"/>
      <point x="1384" y="487"/>
      <point x="1305" y="573"/>
      <point x="1171" y="657" type="curve" smooth="yes"/>
      <point x="1018" y="756"/>
      <point x="963" y="782"/>
      <point x="963" y="834" type="curve" smooth="yes"/>
      <point x="963" y="922"/>
      <point x="1249" y="987"/>
    </contour>
  </outline>
</glyph>
<glyph name="eth" format="2">
  <advance width="1268"/>
  <unicode hex="00F0"/>
  <anchor x="635" y="0" name="bottom"/>
  <anchor x="635" y="1567" name="top"/>
  <outline>
    <contour>
      <point x="459" y="1567" type="curve"/>
      <point x="358" y="1391" type="line"/>
      <point x="414" y="1360"/>
      <point x="463" y="1329"/>
      <point x="510" y="1298" type="curve"/>
      <point x="334" y="1192" type="line"/>
      <point x="434" y="1036" type="line"/>
      <point x="664" y="1178" type="line"/>
      <point x="750" y="1096"/>
      <point x="811" y="1010"/>
      <point x="856" y="901" type="curve"/>
      <point x="848" y="897" type="line"/>
      <point x="801" y="963"/>
      <point x="711" y="995"/>
      <point x="573" y="995" type="curve" smooth="yes"/>
      <point x="291" y="995"/>
      <point x="92" y="813"/>
      <point x="92" y="489" type="curve" smooth="yes"/>
      <point x="92" y="164"/>
      <point x="317" y="-20"/>
      <point x="631" y="-20" type="curve" smooth="yes"/>
      <point x="965" y="-20"/>
      <point x="1176" y="195"/>
      <point x="1176" y="573" type="curve" smooth="yes"/>
      <point x="1176" y="897"/>
      <point x="1071" y="1124"/>
      <point x="872" y="1307" type="curve"/>
      <point x="1042" y="1411" type="line"/>
      <point x="942" y="1565" type="line"/>
      <point x="717" y="1425" type="line"/>
      <point x="641" y="1477"/>
      <point x="553" y="1524"/>
    </contour>
    <contour>
      <point x="635" y="770" type="curve" smooth="yes"/>
      <point x="793" y="770"/>
      <point x="864" y="657"/>
      <point x="864" y="532" type="curve" smooth="yes"/>
      <point x="864" y="315"/>
      <point x="799" y="205"/>
      <point x="635" y="205" type="curve" smooth="yes"/>
      <point x="471" y="205"/>
      <point x="403" y="319"/>
      <point x="403" y="487" type="curve" smooth="yes"/>
      <point x="403" y="676"/>
      <point x="469" y="770"/>
    </contour>
  </outline>
</glyph>
<glyph name="divide" format="2">
  <advance width="1171"/>
  <unicode hex="00F7"/>
  <outline>
    <contour>
      <point x="88" y="612" type="line"/>
      <point x="1081" y="612" type="line"/>
      <point x="1081" y="831" type="line"/>
      <point x="88" y="831" type="line"/>
    </contour>
    <contour>
      <point x="584" y="221" type="curve" smooth="yes"/>
      <point x="657" y="221"/>
      <point x="723" y="266"/>
      <point x="723" y="373" type="curve" smooth="yes"/>
      <point x="723" y="485"/>
      <point x="657" y="524"/>
      <point x="584" y="524" type="curve" smooth="yes"/>
      <point x="508" y="524"/>
      <point x="444" y="485"/>
      <point x="444" y="373" type="curve" smooth="yes"/>
      <point x="444" y="266"/>
      <point x="508" y="221"/>
    </contour>
    <contour>
      <point x="584" y="920" type="curve" smooth="yes"/>
      <point x="657" y="920"/>
      <point x="723" y="965"/>
      <point x="723" y="1071" type="curve" smooth="yes"/>
      <point x="723" y="1184"/>
      <point x="657" y="1223"/>
      <point x="584" y="1223" type="curve" smooth="yes"/>
      <point x="508" y="1223"/>
      <point x="444" y="1184"/>
      <point x="444" y="1071" type="curve" smooth="yes"/>
      <point x="444" y="965"/>
      <point x="508" y="920"/>
    </contour>
  </outline>
</glyph>
<glyph name="eogonek" format="2">
  <advance width="1210"/>
  <unicode hex="0119"/>
  <anchor x="606" y="-492" name="bottom"/>
  <anchor x="606" y="1118" name="top"/>
  <outline>
    <contour>
      <point x="846" y="-227" type="curve" smooth="yes"/>
      <point x="846" y="-158"/>
      <point x="895" y="-86"/>
      <point x="1059" y="59" type="curve"/>
      <point x="860" y="35" type="line"/>
      <point x="735" y="-35"/>
      <point x="635" y="-143"/>
      <point x="635" y="-262" type="curve" smooth="yes"/>
      <point x="635" y="-397"/>
      <point x="731" y="-492"/>
      <point x="885" y="-492" type="curve" smooth="yes"/>
      <point x="950" y="-492"/>
      <point x="997" y="-481"/>
      <point x="1040" y="-469" type="curve"/>
      <point x="1040" y="-291" type="line"/>
      <point x="1014" y="-299"/>
      <point x="969" y="-309"/>
      <point x="926" y="-309" type="curve" smooth="yes"/>
      <point x="879" y="-309"/>
      <point x="846" y="-283"/>
    </contour>
    <component base="e"/>
  </outline>
</glyph>
<glyph name="Hbar" format="2">
  <advance width="1567"/>
  <unicode hex="0126"/>
  <anchor x="784" y="0" name="bottom"/>
  <anchor x="784" y="1462" name="top"/>
  <outline>
    <contour>
      <point x="184" y="0" type="line"/>
      <point x="494" y="0" type="line"/>
      <point x="494" y="631" type="line"/>
      <point x="1073" y="631" type="line"/>
      <point x="1073" y="0" type="line"/>
      <point x="1382" y="0" type="line"/>
      <point x="1382" y="1069" type="line"/>
      <point x="1567" y="1069" type="line"/>
      <point x="1567" y="1268" type="line"/>
      <point x="1382" y="1268" type="line"/>
      <point x="1382" y="1462" type="line"/>
      <point x="1073" y="1462" type="line"/>
      <point x="1073" y="1268" type="line"/>
      <point x="494" y="1268" type="line"/>
      <point x="494" y="1462" type="line"/>
      <point x="184" y="1462" type="line"/>
      <point x="184" y="1268" type="line"/>
      <point x="0" y="1268" type="line"/>
      <point x="0" y="1069" type="line"/>
      <point x="184" y="1069" type="line"/>
    </contour>
    <contour>
      <point x="494" y="889" type="line"/>
      <point x="494" y="1069" type="line"/>
      <point x="1073" y="1069" type="line"/>
      <point x="1073" y="889" type="line"/>
    </contour>
  </outline>
</glyph>
<glyph name="hbar" format="2">
  <advance width="1346"/>
  <unicode hex="0127"/>
  <anchor x="674" y="0" name="bottom"/>
  <anchor x="317" y="1556" name="top"/>
  <outline>
    <contour>
      <point x="465" y="1556" type="line"/>
      <point x="160" y="1556" type="line"/>
      <point x="160" y="1395" type="line"/>
      <point x="4" y="1395" type="line"/>
      <point x="4" y="1196" type="line"/>
      <point x="160" y="1196" type="line"/>
      <point x="160" y="0" type="line"/>
      <point x="465" y="0" type="line"/>
      <point x="465" y="465" type="line" smooth="yes"/>
      <point x="465" y="702"/>
      <point x="522" y="834"/>
      <point x="707" y="834" type="curve" smooth="yes"/>
      <point x="829" y="834"/>
      <point x="887" y="752"/>
      <point x="887" y="592" type="curve" smooth="yes"/>
      <point x="887" y="0" type="line"/>
      <point x="1192" y="0" type="line"/>
      <point x="1192" y="668" type="line"/>
      <point x="1192" y="954"/>
      <point x="1034" y="1077"/>
      <point x="793" y="1077" type="curve" smooth="yes"/>
      <point x="653" y="1077"/>
      <point x="541" y="1028"/>
      <point x="469" y="913" type="curve"/>
      <point x="451" y="913" type="line"/>
      <point x="455" y="954"/>
      <point x="465" y="1067"/>
      <point x="465" y="1178" type="curve" smooth="yes"/>
      <point x="465" y="1196" type="line"/>
      <point x="780" y="1196" type="line"/>
      <point x="780" y="1395" type="line"/>
      <point x="465" y="1395" type="line"/>
    </contour>
  </outline>
</glyph>
<glyph name="lslash" format="2">
  <advance width="625"/>
  <unicode hex="0142"/>
  <anchor x="313" y="0" name="bottom"/>
  <anchor x="313" y="1556" name="top"/>
  <outline>
    <contour>
      <point x="160" y="0" type="line"/>
      <point x="465" y="0" type="line"/>
      <point x="465" y="664" type="line"/>
      <point x="651" y="776" type="line"/>
      <point x="535" y="973" type="line"/>
      <point x="465" y="930" type="line"/>
      <point x="465" y="1556" type="line"/>
      <point x="160" y="1556" type="line"/>
      <point x="160" y="743" type="line"/>
      <point x="-25" y="631" type="line"/>
      <point x="88" y="434" type="line"/>
      <point x="160" y="477" type="line"/>
    </contour>
  </outline>
</glyph>
<glyph name="Eng" format="2">
  <advance width="1665"/>
  <unicode hex="014A"/>
  <anchor x="834" y="-430" name="bottom"/>
  <anchor x="834" y="1462" name="top"/>
  <outline>
    <contour>
      <point x="1016" y="-430" type="curve" smooth="yes"/>
      <point x="1292" y="-430"/>
      <point x="1481" y="-297"/>
      <point x="1481" y="0" type="curve" smooth="yes"/>
      <point x="1481" y="1462" type="line"/>
      <point x="1202" y="1462" type="line"/>
      <point x="1202" y="965" type="line" smooth="yes"/>
      <point x="1202" y="864"/>
      <point x="1210" y="676"/>
      <point x="1217" y="561" type="curve"/>
      <point x="1210" y="561" type="line"/>
      <point x="575" y="1462" type="line"/>
      <point x="184" y="1462" type="line"/>
      <point x="184" y="0" type="line"/>
      <point x="461" y="0" type="line"/>
      <point x="461" y="688" type="line" smooth="yes"/>
      <point x="461" y="797"/>
      <point x="451" y="991"/>
      <point x="442" y="1106" type="curve"/>
      <point x="451" y="1106" type="line"/>
      <point x="1210" y="4" type="line"/>
      <point x="1204" y="-131"/>
      <point x="1137" y="-186"/>
      <point x="985" y="-186" type="curve" smooth="yes"/>
      <point x="922" y="-186"/>
      <point x="868" y="-176"/>
      <point x="819" y="-166" type="curve"/>
      <point x="819" y="-408" type="line"/>
      <point x="864" y="-420"/>
      <point x="930" y="-430"/>
    </contour>
  </outline>
</glyph>
<glyph name="oe" format="2">
  <advance width="2003"/>
  <unicode hex="0153"/>
  <anchor x="1001" y="0" name="bottom"/>
  <anchor x="1001" y="1118" name="top"/>
  <outline>
    <contour>
      <point x="1399" y="1139" type="curve" smooth="yes"/>
      <point x="1243" y="1139"/>
      <point x="1112" y="1087"/>
      <point x="1016" y="983" type="curve"/>
      <point x="922" y="1085"/>
      <point x="782" y="1139"/>
      <point x="633" y="1139" type="curve" smooth="yes"/>
      <point x="291" y="1139"/>
      <point x="92" y="932"/>
      <point x="92" y="561" type="curve" smooth="yes"/>
      <point x="92" y="188"/>
      <point x="317" y="-20"/>
      <point x="635" y="-20" type="curve" smooth="yes"/>
      <point x="795" y="-20"/>
      <point x="932" y="31"/>
      <point x="1026" y="135" type="curve"/>
      <point x="1128" y="29"/>
      <point x="1276" y="-20"/>
      <point x="1446" y="-20" type="curve" smooth="yes"/>
      <point x="1624" y="-20"/>
      <point x="1737" y="4"/>
      <point x="1851" y="59" type="curve"/>
      <point x="1851" y="295" type="line"/>
      <point x="1722" y="236"/>
      <point x="1608" y="207"/>
      <point x="1458" y="207" type="curve" smooth="yes"/>
      <point x="1282" y="207"/>
      <point x="1178" y="307"/>
      <point x="1169" y="483" type="curve"/>
      <point x="1915" y="483" type="line"/>
      <point x="1915" y="631" type="line" smooth="yes"/>
      <point x="1915" y="956"/>
      <point x="1716" y="1139"/>
    </contour>
    <contour>
      <point x="633" y="893" type="curve" smooth="yes"/>
      <point x="797" y="893"/>
      <point x="864" y="782"/>
      <point x="864" y="561" type="curve" smooth="yes"/>
      <point x="864" y="340"/>
      <point x="797" y="225"/>
      <point x="635" y="225" type="curve" smooth="yes"/>
      <point x="471" y="225"/>
      <point x="403" y="340"/>
      <point x="403" y="561" type="curve" smooth="yes"/>
      <point x="403" y="782"/>
      <point x="471" y="893"/>
    </contour>
    <contour>
      <point x="1405" y="922" type="curve" smooth="yes"/>
      <point x="1554" y="922"/>
      <point x="1626" y="821"/>
      <point x="1628" y="686" type="curve"/>
      <point x="1178" y="686" type="line"/>
      <point x="1190" y="848"/>
      <point x="1280" y="922"/>
    </contour>
  </outline>
</glyph>
<glyph name="longs" format="2">
  <advance width="784"/>
  <unicode hex="017F"/>
  <anchor x="393" y="0" name="bottom"/>
  <anchor x="475" y="1567" name="top"/>
  <outline>
    <contour>
      <point x="592" y="1325" type="curve" smooth="yes"/>
      <point x="662" y="1325"/>
      <point x="713" y="1311"/>
      <point x="760" y="1296" type="curve"/>
      <point x="831" y="1520" type="line"/>
      <point x="770" y="1544"/>
      <point x="684" y="1567"/>
      <point x="553" y="1567" type="curve" smooth="yes"/>
      <point x="313" y="1567"/>
      <point x="160" y="1485"/>
      <point x="160" y="1200" type="curve" smooth="yes"/>
      <point x="160" y="0" type="line"/>
      <point x="465" y="0" type="line"/>
      <point x="465" y="1188" type="line"/>
      <point x="465" y="1268"/>
      <point x="498" y="1325"/>
    </contour>
  </outline>
</glyph>
<glyph name="uni0180" format="2">
  <advance width="1296"/>
  <unicode hex="0180"/>
  <anchor x="649" y="0" name="bottom"/>
  <anchor x="649" y="1556" name="top"/>
  <outline>
    <contour>
      <point x="774" y="-20" type="curve" smooth="yes"/>
      <point x="1030" y="-20"/>
      <point x="1204" y="178"/>
      <point x="1204" y="561" type="curve" smooth="yes"/>
      <point x="1204" y="961"/>
      <point x="1032" y="1118"/>
      <point x="782" y="1118" type="curve" smooth="yes"/>
      <point x="621" y="1118"/>
      <point x="524" y="1044"/>
      <point x="465" y="952" type="curve"/>
      <point x="453" y="952" type="line"/>
      <point x="461" y="1026"/>
      <point x="465" y="1094"/>
      <point x="465" y="1167" type="curve" smooth="yes"/>
      <point x="465" y="1196" type="line"/>
      <point x="780" y="1196" type="line"/>
      <point x="780" y="1395" type="line"/>
      <point x="465" y="1395" type="line"/>
      <point x="465" y="1556" type="line"/>
      <point x="160" y="1556" type="line"/>
      <point x="160" y="1395" type="line"/>
      <point x="4" y="1395" type="line"/>
      <point x="4" y="1196" type="line"/>
      <point x="160" y="1196" type="line"/>
      <point x="160" y="0" type="line"/>
      <point x="393" y="0" type="line"/>
      <point x="444" y="123" type="line"/>
      <point x="465" y="123" type="line"/>
      <point x="524" y="49"/>
      <point x="610" y="-20"/>
    </contour>
    <contour>
      <point x="688" y="227" type="curve" smooth="yes"/>
      <point x="518" y="227"/>
      <point x="465" y="346"/>
      <point x="465" y="563" type="curve" smooth="yes"/>
      <point x="465" y="575" type="line" smooth="yes"/>
      <point x="469" y="776"/>
      <point x="545" y="874"/>
      <point x="684" y="874" type="curve" smooth="yes"/>
      <point x="813" y="874"/>
      <point x="893" y="784"/>
      <point x="893" y="565" type="curve" smooth="yes"/>
      <point x="893" y="346"/>
      <point x="813" y="227"/>
    </contour>
  </outline>
</glyph>
<glyph name="uni0181" format="2">
  <advance width="1626"/>
  <unicode hex="0181"/>
  <anchor x="813" y="0" name="bottom"/>
  <anchor x="813" y="1462" name="top"/>
  <outline>
    <contour>
      <point x="436" y="0" type="line"/>
      <point x="981" y="0" type="line" smooth="yes"/>
      <point x="1313" y="0"/>
      <point x="1518" y="158"/>
      <point x="1518" y="424" type="curve" smooth="yes"/>
      <point x="1518" y="653"/>
      <point x="1401" y="735"/>
      <point x="1255" y="766" type="curve"/>
      <point x="1255" y="776" type="line"/>
      <point x="1399" y="801"/>
      <point x="1481" y="926"/>
      <point x="1481" y="1092" type="curve" smooth="yes"/>
      <point x="1481" y="1366"/>
      <point x="1280" y="1462"/>
      <point x="891" y="1462" type="curve" smooth="yes"/>
      <point x="391" y="1462" type="line" smooth="yes"/>
      <point x="111" y="1462"/>
      <point x="12" y="1303"/>
      <point x="12" y="1114" type="curve" smooth="yes"/>
      <point x="12" y="1061"/>
      <point x="27" y="1018"/>
      <point x="37" y="995" type="curve"/>
      <point x="279" y="995" type="line"/>
      <point x="270" y="1016"/>
      <point x="258" y="1047"/>
      <point x="258" y="1094" type="curve" smooth="yes"/>
      <point x="258" y="1157"/>
      <point x="297" y="1208"/>
      <point x="383" y="1208" type="curve" smooth="yes"/>
      <point x="436" y="1208" type="line"/>
    </contour>
    <contour>
      <point x="743" y="256" type="line"/>
      <point x="743" y="637" type="line"/>
      <point x="936" y="637" type="line"/>
      <point x="1133" y="637"/>
      <point x="1196" y="563"/>
      <point x="1196" y="455" type="curve" smooth="yes"/>
      <point x="1196" y="334"/>
      <point x="1133" y="256"/>
      <point x="946" y="256" type="curve" smooth="yes"/>
    </contour>
    <contour>
      <point x="743" y="883" type="line"/>
      <point x="743" y="1208" type="line"/>
      <point x="907" y="1208" type="line" smooth="yes"/>
      <point x="1083" y="1208"/>
      <point x="1163" y="1163"/>
      <point x="1163" y="1051" type="curve" smooth="yes"/>
      <point x="1163" y="940"/>
      <point x="1104" y="883"/>
      <point x="924" y="883" type="curve" smooth="yes"/>
    </contour>
  </outline>
</glyph>
<glyph name="uni0185" format="2">
  <advance width="1298"/>
  <unicode hex="0185"/>
  <anchor x="649" y="0" name="bottom"/>
  <anchor x="649" y="1556" name="top"/>
  <outline>
    <contour>
      <point x="686" y="-20" type="curve" smooth="yes"/>
      <point x="987" y="-20"/>
      <point x="1206" y="170"/>
      <point x="1206" y="559" type="curve" smooth="yes"/>
      <point x="1206" y="940"/>
      <point x="1034" y="1139"/>
      <point x="784" y="1139" type="curve" smooth="yes"/>
      <point x="623" y="1139"/>
      <point x="518" y="1065"/>
      <point x="459" y="973" type="curve"/>
      <point x="446" y="973" type="line"/>
      <point x="453" y="1024"/>
      <point x="459" y="1112"/>
      <point x="459" y="1194" type="curve" smooth="yes"/>
      <point x="459" y="1556" type="line"/>
      <point x="154" y="1556" type="line"/>
      <point x="154" y="547" type="line" smooth="yes"/>
      <point x="154" y="180"/>
      <point x="348" y="-20"/>
    </contour>
    <contour>
      <point x="680" y="225" type="curve" smooth="yes"/>
      <point x="535" y="225"/>
      <point x="459" y="317"/>
      <point x="459" y="543" type="curve" smooth="yes"/>
      <point x="459" y="596" type="line" smooth="yes"/>
      <point x="459" y="791"/>
      <point x="526" y="895"/>
      <point x="686" y="895" type="curve" smooth="yes"/>
      <point x="815" y="895"/>
      <point x="895" y="784"/>
      <point x="895" y="559" type="curve" smooth="yes"/>
      <point x="895" y="322"/>
      <point x="819" y="225"/>
    </contour>
  </outline>
</glyph>
<glyph name="uni0187" format="2">
  <advance width="1305"/>
  <unicode hex="0187"/>
  <anchor x="758" y="0" name="bottom"/>
  <anchor x="772" y="1769" name="top"/>
  <outline>
    <contour>
      <point x="1303" y="1800" type="curve" smooth="yes"/>
      <point x="1126" y="1800"/>
      <point x="987" y="1700"/>
      <point x="987" y="1481" type="curve" smooth="yes"/>
      <point x="987" y="1460" type="line"/>
      <point x="930" y="1475"/>
      <point x="868" y="1483"/>
      <point x="805" y="1483" type="curve" smooth="yes"/>
      <point x="362" y="1483"/>
      <point x="119" y="1171"/>
      <point x="119" y="729" type="curve" smooth="yes"/>
      <point x="119" y="279"/>
      <point x="324" y="-20"/>
      <point x="776" y="-20" type="curve" smooth="yes"/>
      <point x="932" y="-20"/>
      <point x="1049" y="2"/>
      <point x="1178" y="55" type="curve"/>
      <point x="1178" y="315" type="line"/>
      <point x="1038" y="266"/>
      <point x="924" y="238"/>
      <point x="805" y="238" type="curve" smooth="yes"/>
      <point x="549" y="238"/>
      <point x="438" y="416"/>
      <point x="438" y="727" type="curve" smooth="yes"/>
      <point x="438" y="1034"/>
      <point x="567" y="1225"/>
      <point x="805" y="1225" type="curve" smooth="yes"/>
      <point x="911" y="1225"/>
      <point x="1024" y="1180"/>
      <point x="1133" y="1128" type="curve"/>
      <point x="1233" y="1360" type="line"/>
      <point x="1233" y="1442" type="line" smooth="yes"/>
      <point x="1233" y="1524"/>
      <point x="1270" y="1556"/>
      <point x="1333" y="1556" type="curve" smooth="yes"/>
      <point x="1380" y="1556"/>
      <point x="1423" y="1544"/>
      <point x="1446" y="1536" type="curve"/>
      <point x="1446" y="1769" type="line"/>
      <point x="1421" y="1782"/>
      <point x="1364" y="1800"/>
    </contour>
  </outline>
</glyph>
<glyph name="uni018A" format="2">
  <advance width="1765"/>
  <unicode hex="018A"/>
  <anchor x="883" y="0" name="bottom"/>
  <anchor x="883" y="1462" name="top"/>
  <outline>
    <contour>
      <point x="434" y="0" type="line"/>
      <point x="848" y="0" type="line" smooth="yes"/>
      <point x="1352" y="0"/>
      <point x="1647" y="252"/>
      <point x="1647" y="745" type="curve" smooth="yes"/>
      <point x="1647" y="1214"/>
      <point x="1352" y="1462"/>
      <point x="893" y="1462" type="curve" smooth="yes"/>
      <point x="389" y="1462" type="line" smooth="yes"/>
      <point x="109" y="1462"/>
      <point x="10" y="1303"/>
      <point x="10" y="1114" type="curve" smooth="yes"/>
      <point x="10" y="1061"/>
      <point x="25" y="1018"/>
      <point x="35" y="995" type="curve"/>
      <point x="276" y="995" type="line"/>
      <point x="268" y="1016"/>
      <point x="256" y="1047"/>
      <point x="256" y="1094" type="curve" smooth="yes"/>
      <point x="256" y="1157"/>
      <point x="295" y="1208"/>
      <point x="381" y="1208" type="curve" smooth="yes"/>
      <point x="434" y="1208" type="line"/>
    </contour>
    <contour>
      <point x="743" y="256" type="line"/>
      <point x="743" y="1208" type="line"/>
      <point x="909" y="1208" type="line" smooth="yes"/>
      <point x="1180" y="1208"/>
      <point x="1325" y="1061"/>
      <point x="1325" y="737" type="curve" smooth="yes"/>
      <point x="1325" y="418"/>
      <point x="1180" y="256"/>
      <point x="877" y="256" type="curve" smooth="yes"/>
    </contour>
  </outline>
</glyph>
<glyph name="uni018C" format="2">
  <advance width="1296"/>
  <unicode hex="018C"/>
  <anchor x="649" y="0" name="bottom"/>
  <anchor x="649" y="1556" name="top"/>
  <outline>
    <contour>
      <point x="514" y="-20" type="curve" smooth="yes"/>
      <point x="676" y="-20"/>
      <point x="772" y="53"/>
      <point x="831" y="145" type="curve"/>
      <point x="844" y="145" type="line"/>
      <point x="903" y="0" type="line"/>
      <point x="1137" y="0" type="line"/>
      <point x="1137" y="1556" type="line"/>
      <point x="203" y="1556" type="line"/>
      <point x="203" y="1327" type="line"/>
      <point x="831" y="1327" type="line"/>
      <point x="831" y="1178" type="line" smooth="yes"/>
      <point x="831" y="1114"/>
      <point x="844" y="1012"/>
      <point x="854" y="954" type="curve"/>
      <point x="844" y="954" type="line"/>
      <point x="782" y="1047"/>
      <point x="682" y="1118"/>
      <point x="522" y="1118" type="curve" smooth="yes"/>
      <point x="266" y="1118"/>
      <point x="92" y="918"/>
      <point x="92" y="557" type="curve" smooth="yes"/>
      <point x="92" y="178"/>
      <point x="264" y="-20"/>
    </contour>
    <contour>
      <point x="621" y="223" type="curve" smooth="yes"/>
      <point x="481" y="223"/>
      <point x="401" y="334"/>
      <point x="401" y="553" type="curve" smooth="yes"/>
      <point x="401" y="758"/>
      <point x="481" y="870"/>
      <point x="616" y="870" type="curve" smooth="yes"/>
      <point x="797" y="870"/>
      <point x="852" y="756"/>
      <point x="852" y="555" type="curve" smooth="yes"/>
      <point x="852" y="522" type="line" smooth="yes"/>
      <point x="848" y="322"/>
      <point x="788" y="223"/>
    </contour>
  </outline>
</glyph>
<glyph name="uni0191" format="2">
  <advance width="1391"/>
  <unicode hex="0191"/>
  <anchor x="360" y="0" name="bottom"/>
  <anchor x="897" y="1462" name="top"/>
  <anchor x="1370" y="1462" name="topright"/>
  <outline>
    <contour>
      <point x="360" y="-31" type="curve" smooth="yes"/>
      <point x="623" y="-31"/>
      <point x="797" y="100"/>
      <point x="797" y="379" type="curve" smooth="yes"/>
      <point x="797" y="639" type="line"/>
      <point x="1251" y="639" type="line"/>
      <point x="1251" y="893" type="line"/>
      <point x="797" y="893" type="line"/>
      <point x="797" y="1208" type="line"/>
      <point x="1288" y="1208" type="line"/>
      <point x="1288" y="1462" type="line"/>
      <point x="492" y="1462" type="line"/>
      <point x="492" y="387" type="line" smooth="yes"/>
      <point x="492" y="250"/>
      <point x="442" y="195"/>
      <point x="360" y="195" type="curve" smooth="yes"/>
      <point x="276" y="195"/>
      <point x="227" y="242"/>
      <point x="227" y="330" type="curve" smooth="yes"/>
      <point x="227" y="356"/>
      <point x="233" y="389"/>
      <point x="252" y="424" type="curve"/>
      <point x="20" y="516" type="line"/>
      <point x="-10" y="465"/>
      <point x="-35" y="401"/>
      <point x="-35" y="315" type="curve" smooth="yes"/>
      <point x="-35" y="92"/>
      <point x="119" y="-31"/>
    </contour>
  </outline>
</glyph>
<glyph name="florin" format="2">
  <advance width="1171"/>
  <unicode hex="0192"/>
  <anchor x="586" y="-492" name="bottom"/>
  <anchor x="748" y="1483" name="top"/>
  <outline>
    <contour>
      <point x="809" y="1483" type="curve" smooth="yes"/>
      <point x="584" y="1483"/>
      <point x="440" y="1401"/>
      <point x="440" y="1116" type="curve" smooth="yes"/>
      <point x="440" y="1034" type="line"/>
      <point x="272" y="952" type="line"/>
      <point x="272" y="805" type="line"/>
      <point x="440" y="805" type="line"/>
      <point x="440" y="-76" type="line"/>
      <point x="440" y="-211"/>
      <point x="383" y="-246"/>
      <point x="315" y="-246" type="curve" smooth="yes"/>
      <point x="270" y="-246"/>
      <point x="238" y="-240"/>
      <point x="197" y="-227" type="curve"/>
      <point x="197" y="-467" type="line"/>
      <point x="242" y="-481"/>
      <point x="317" y="-492"/>
      <point x="381" y="-492" type="curve" smooth="yes"/>
      <point x="643" y="-492"/>
      <point x="745" y="-326"/>
      <point x="745" y="-121" type="curve"/>
      <point x="745" y="805" type="line"/>
      <point x="973" y="805" type="line"/>
      <point x="973" y="1034" type="line"/>
      <point x="745" y="1034" type="line"/>
      <point x="745" y="1104" type="line" smooth="yes"/>
      <point x="745" y="1184"/>
      <point x="774" y="1241"/>
      <point x="854" y="1241" type="curve" smooth="yes"/>
      <point x="915" y="1241"/>
      <point x="958" y="1227"/>
      <point x="999" y="1212" type="curve"/>
      <point x="1071" y="1436" type="line"/>
      <point x="1014" y="1460"/>
      <point x="932" y="1483"/>
    </contour>
  </outline>
</glyph>
<glyph name="uni0193" format="2">
  <advance width="1483"/>
  <unicode hex="0193"/>
  <anchor x="803" y="0" name="bottom"/>
  <anchor x="885" y="1729" name="top"/>
  <outline>
    <contour>
      <point x="1389" y="1800" type="curve" smooth="yes"/>
      <point x="1214" y="1800"/>
      <point x="1073" y="1702"/>
      <point x="1073" y="1483" type="curve" smooth="yes"/>
      <point x="1073" y="1464" type="line"/>
      <point x="1012" y="1477"/>
      <point x="948" y="1483"/>
      <point x="883" y="1483" type="curve" smooth="yes"/>
      <point x="391" y="1483"/>
      <point x="119" y="1192"/>
      <point x="119" y="733" type="curve" smooth="yes"/>
      <point x="119" y="242"/>
      <point x="362" y="-20"/>
      <point x="799" y="-20" type="curve" smooth="yes"/>
      <point x="1008" y="-20"/>
      <point x="1165" y="12"/>
      <point x="1319" y="63" type="curve"/>
      <point x="1319" y="821" type="line"/>
      <point x="739" y="821" type="line"/>
      <point x="739" y="563" type="line"/>
      <point x="1016" y="563" type="line"/>
      <point x="1016" y="258" type="line"/>
      <point x="963" y="248"/>
      <point x="907" y="238"/>
      <point x="819" y="238" type="curve" smooth="yes"/>
      <point x="549" y="238"/>
      <point x="438" y="440"/>
      <point x="438" y="727" type="curve" smooth="yes"/>
      <point x="438" y="1028"/>
      <point x="610" y="1225"/>
      <point x="881" y="1225" type="curve" smooth="yes"/>
      <point x="1006" y="1225"/>
      <point x="1124" y="1190"/>
      <point x="1214" y="1145" type="curve"/>
      <point x="1319" y="1374" type="line"/>
      <point x="1319" y="1442" type="line" smooth="yes"/>
      <point x="1319" y="1524"/>
      <point x="1356" y="1556"/>
      <point x="1419" y="1556" type="curve" smooth="yes"/>
      <point x="1466" y="1556"/>
      <point x="1509" y="1544"/>
      <point x="1532" y="1536" type="curve"/>
      <point x="1532" y="1769" type="line"/>
      <point x="1507" y="1782"/>
      <point x="1450" y="1800"/>
    </contour>
  </outline>
</glyph>
<glyph name="uni0194" format="2">
  <advance width="1331"/>
  <unicode hex="0194"/>
  <anchor x="666" y="-492" name="bottom"/>
  <anchor x="666" y="1462" name="top"/>
  <outline>
    <contour>
      <point x="653" y="-492" type="curve" smooth="yes"/>
      <point x="842" y="-492"/>
      <point x="946" y="-365"/>
      <point x="946" y="-199" type="curve" smooth="yes"/>
      <point x="946" y="-78"/>
      <point x="891" y="80"/>
      <point x="805" y="252" type="curve"/>
      <point x="1331" y="1462" type="line"/>
      <point x="1012" y="1462" type="line"/>
      <point x="750" y="823" type="line"/>
      <point x="719" y="750"/>
      <point x="674" y="625"/>
      <point x="653" y="541" type="curve"/>
      <point x="635" y="623"/>
      <point x="590" y="766"/>
      <point x="567" y="825" type="curve" smooth="yes"/>
      <point x="319" y="1462" type="line"/>
      <point x="0" y="1462" type="line"/>
      <point x="500" y="256" type="line"/>
      <point x="420" y="80"/>
      <point x="365" y="-61"/>
      <point x="365" y="-197" type="curve" smooth="yes"/>
      <point x="365" y="-373"/>
      <point x="465" y="-492"/>
    </contour>
    <contour>
      <point x="655" y="-309" type="curve" smooth="yes"/>
      <point x="614" y="-309"/>
      <point x="586" y="-274"/>
      <point x="586" y="-195" type="curve" smooth="yes"/>
      <point x="586" y="-139"/>
      <point x="606" y="-39"/>
      <point x="655" y="51" type="curve"/>
      <point x="702" y="-41"/>
      <point x="725" y="-141"/>
      <point x="725" y="-199" type="curve" smooth="yes"/>
      <point x="725" y="-276"/>
      <point x="698" y="-309"/>
    </contour>
  </outline>
</glyph>
<glyph name="uni0196" format="2">
  <advance width="825"/>
  <unicode hex="0196"/>
  <anchor x="475" y="0" name="bottom"/>
  <anchor x="336" y="1462" name="top"/>
  <outline>
    <contour>
      <point x="541" y="-20" type="curve" smooth="yes"/>
      <point x="649" y="-20"/>
      <point x="743" y="2"/>
      <point x="805" y="31" type="curve"/>
      <point x="805" y="274" type="line"/>
      <point x="748" y="254"/>
      <point x="698" y="240"/>
      <point x="631" y="240" type="curve" smooth="yes"/>
      <point x="551" y="240"/>
      <point x="498" y="293"/>
      <point x="498" y="389" type="curve" smooth="yes"/>
      <point x="498" y="1462" type="line"/>
      <point x="174" y="1462" type="line"/>
      <point x="174" y="362" type="line" smooth="yes"/>
      <point x="174" y="74"/>
      <point x="332" y="-20"/>
    </contour>
  </outline>
</glyph>
<glyph name="uni0197" format="2">
  <advance width="797"/>
  <unicode hex="0197"/>
  <anchor x="399" y="0" name="bottom"/>
  <anchor x="399" y="1462" name="top"/>
  <outline>
    <contour>
      <point x="731" y="1462" type="line"/>
      <point x="66" y="1462" type="line"/>
      <point x="66" y="1286" type="line"/>
      <point x="244" y="1204" type="line"/>
      <point x="244" y="858" type="line"/>
      <point x="55" y="858" type="line"/>
      <point x="55" y="604" type="line"/>
      <point x="244" y="604" type="line"/>
      <point x="244" y="258" type="line"/>
      <point x="66" y="176" type="line"/>
      <point x="66" y="0" type="line"/>
      <point x="731" y="0" type="line"/>
      <point x="731" y="176" type="line"/>
      <point x="553" y="258" type="line"/>
      <point x="553" y="604" type="line"/>
      <point x="741" y="604" type="line"/>
      <point x="741" y="858" type="line"/>
      <point x="553" y="858" type="line"/>
      <point x="553" y="1204" type="line"/>
      <point x="731" y="1286" type="line"/>
    </contour>
  </outline>
</glyph>
<glyph name="uni0198" format="2">
  <advance width="1360"/>
  <unicode hex="0198"/>
  <anchor x="680" y="0" name="bottom"/>
  <anchor x="680" y="1462" name="top"/>
  <outline>
    <contour>
      <point x="1186" y="1485" type="curve" smooth="yes"/>
      <point x="1020" y="1485"/>
      <point x="913" y="1362"/>
      <point x="791" y="1196" type="curve" smooth="yes"/>
      <point x="625" y="975" type="line"/>
      <point x="582" y="913"/>
      <point x="537" y="850"/>
      <point x="494" y="788" type="curve"/>
      <point x="494" y="1462" type="line"/>
      <point x="184" y="1462" type="line"/>
      <point x="184" y="0" type="line"/>
      <point x="494" y="0" type="line"/>
      <point x="494" y="522" type="line"/>
      <point x="625" y="616" type="line"/>
      <point x="1008" y="0" type="line"/>
      <point x="1360" y="0" type="line"/>
      <point x="844" y="815" type="line"/>
      <point x="1090" y="1141" type="line" smooth="yes"/>
      <point x="1130" y="1194"/>
      <point x="1184" y="1229"/>
      <point x="1241" y="1229" type="curve" smooth="yes"/>
      <point x="1282" y="1229"/>
      <point x="1317" y="1219"/>
      <point x="1339" y="1210" type="curve"/>
      <point x="1339" y="1454" type="line"/>
      <point x="1309" y="1468"/>
      <point x="1257" y="1485"/>
    </contour>
  </outline>
</glyph>
<glyph name="uni0199" format="2">
  <advance width="1270"/>
  <unicode hex="0199"/>
  <anchor x="635" y="0" name="bottom"/>
  <anchor x="635" y="1571" name="top"/>
  <outline>
    <contour>
      <point x="518" y="1571" type="curve" smooth="yes"/>
      <point x="305" y="1571"/>
      <point x="160" y="1470"/>
      <point x="160" y="1219" type="curve" smooth="yes"/>
      <point x="160" y="0" type="line"/>
      <point x="465" y="0" type="line"/>
      <point x="465" y="348" type="line"/>
      <point x="596" y="453" type="line"/>
      <point x="918" y="0" type="line"/>
      <point x="1270" y="0" type="line"/>
      <point x="799" y="633" type="line"/>
      <point x="1243" y="1118" type="line"/>
      <point x="899" y="1118" type="line"/>
      <point x="586" y="778" type="line" smooth="yes"/>
      <point x="537" y="725"/>
      <point x="489" y="666"/>
      <point x="453" y="608" type="curve"/>
      <point x="449" y="608" type="line"/>
      <point x="457" y="690"/>
      <point x="465" y="776"/>
      <point x="465" y="860" type="curve" smooth="yes"/>
      <point x="465" y="1212" type="line" smooth="yes"/>
      <point x="465" y="1294"/>
      <point x="502" y="1327"/>
      <point x="565" y="1327" type="curve" smooth="yes"/>
      <point x="612" y="1327"/>
      <point x="655" y="1315"/>
      <point x="678" y="1307" type="curve"/>
      <point x="678" y="1540" type="line"/>
      <point x="649" y="1552"/>
      <point x="588" y="1571"/>
    </contour>
  </outline>
</glyph>
<glyph name="uni019B" format="2">
  <advance width="1260"/>
  <unicode hex="019B"/>
  <anchor x="631" y="0" name="bottom"/>
  <anchor x="631" y="1569" name="top"/>
  <outline>
    <contour>
      <point x="8" y="0" type="line"/>
      <point x="324" y="0" type="line"/>
      <point x="530" y="485" type="line" smooth="yes"/>
      <point x="557" y="551"/>
      <point x="586" y="643"/>
      <point x="606" y="715" type="curve"/>
      <point x="612" y="715" type="line"/>
      <point x="627" y="655"/>
      <point x="655" y="567"/>
      <point x="686" y="479" type="curve" smooth="yes"/>
      <point x="782" y="207" type="line" smooth="yes"/>
      <point x="831" y="70"/>
      <point x="907" y="-20"/>
      <point x="1073" y="-20" type="curve" smooth="yes"/>
      <point x="1124" y="-20"/>
      <point x="1217" y="-6"/>
      <point x="1249" y="10" type="curve"/>
      <point x="1249" y="246" type="line"/>
      <point x="1225" y="240"/>
      <point x="1200" y="236"/>
      <point x="1180" y="236" type="curve" smooth="yes"/>
      <point x="1122" y="236"/>
      <point x="1073" y="268"/>
      <point x="1012" y="438" type="curve" smooth="yes"/>
      <point x="735" y="1200" type="line"/>
      <point x="905" y="1251" type="line"/>
      <point x="854" y="1421" type="line"/>
      <point x="664" y="1362" type="line"/>
      <point x="588" y="1495"/>
      <point x="481" y="1569"/>
      <point x="287" y="1569" type="curve" smooth="yes"/>
      <point x="238" y="1569"/>
      <point x="158" y="1561"/>
      <point x="121" y="1552" type="curve"/>
      <point x="121" y="1300" type="line"/>
      <point x="147" y="1307"/>
      <point x="186" y="1313"/>
      <point x="223" y="1313" type="curve" smooth="yes"/>
      <point x="285" y="1313"/>
      <point x="332" y="1305"/>
      <point x="373" y="1272" type="curve"/>
      <point x="203" y="1221" type="line"/>
      <point x="254" y="1053" type="line"/>
      <point x="459" y="1114" type="line"/>
      <point x="481" y="1057" type="line"/>
    </contour>
  </outline>
</glyph>
<glyph name="uni019C" format="2">
  <advance width="2120"/>
  <unicode hex="019C"/>
  <anchor x="1061" y="0" name="bottom"/>
  <anchor x="1061" y="1462" name="top"/>
  <outline>
    <contour>
      <point x="590" y="-20" type="curve" smooth="yes"/>
      <point x="752" y="-20"/>
      <point x="868" y="47"/>
      <point x="940" y="164" type="curve"/>
      <point x="954" y="164" type="line"/>
      <point x="1020" y="49"/>
      <point x="1126" y="-20"/>
      <point x="1296" y="-20" type="curve" smooth="yes"/>
      <point x="1440" y="-20"/>
      <point x="1571" y="39"/>
      <point x="1640" y="156" type="curve"/>
      <point x="1659" y="156" type="line"/>
      <point x="1702" y="0" type="line"/>
      <point x="1935" y="0" type="line"/>
      <point x="1935" y="1462" type="line"/>
      <point x="1624" y="1462" type="line"/>
      <point x="1624" y="614" type="line" smooth="yes"/>
      <point x="1624" y="373"/>
      <point x="1567" y="240"/>
      <point x="1386" y="240" type="curve" smooth="yes"/>
      <point x="1266" y="240"/>
      <point x="1208" y="324"/>
      <point x="1208" y="485" type="curve" smooth="yes"/>
      <point x="1208" y="1462" type="line"/>
      <point x="899" y="1462" type="line"/>
      <point x="899" y="580" type="line"/>
      <point x="899" y="360"/>
      <point x="834" y="240"/>
      <point x="662" y="240" type="curve" smooth="yes"/>
      <point x="541" y="240"/>
      <point x="483" y="324"/>
      <point x="483" y="485" type="curve" smooth="yes"/>
      <point x="483" y="1462" type="line"/>
      <point x="174" y="1462" type="line"/>
      <point x="174" y="397" type="line" smooth="yes"/>
      <point x="174" y="104"/>
      <point x="340" y="-20"/>
    </contour>
  </outline>
</glyph>
<glyph name="Ohorn" format="2">
  <advance width="1690"/>
  <unicode hex="01A0"/>
  <anchor x="815" y="0" name="bottom"/>
  <anchor x="815" y="1462" name="top"/>
  <outline>
    <contour>
      <point x="1511" y="733" type="curve" smooth="yes"/>
      <point x="1511" y="874"/>
      <point x="1491" y="999"/>
      <point x="1450" y="1106" type="curve"/>
      <point x="1622" y="1176"/>
      <point x="1706" y="1311"/>
      <point x="1751" y="1534" type="curve"/>
      <point x="1737" y="1556" type="line"/>
      <point x="1436" y="1556" type="line"/>
      <point x="1436" y="1425"/>
      <point x="1405" y="1323"/>
      <point x="1343" y="1282" type="curve"/>
      <point x="1231" y="1411"/>
      <point x="1055" y="1485"/>
      <point x="819" y="1485" type="curve" smooth="yes"/>
      <point x="340" y="1485"/>
      <point x="119" y="1188"/>
      <point x="119" y="735" type="curve" smooth="yes"/>
      <point x="119" y="281"/>
      <point x="338" y="-20"/>
      <point x="815" y="-20" type="curve" smooth="yes"/>
      <point x="1292" y="-20"/>
      <point x="1511" y="281"/>
    </contour>
    <contour>
      <point x="444" y="733" type="curve" smooth="yes"/>
      <point x="444" y="1040"/>
      <point x="555" y="1227"/>
      <point x="817" y="1227" type="curve" smooth="yes"/>
      <point x="1079" y="1227"/>
      <point x="1186" y="1040"/>
      <point x="1186" y="733" type="curve" smooth="yes"/>
      <point x="1186" y="426"/>
      <point x="1079" y="240"/>
      <point x="815" y="240" type="curve" smooth="yes"/>
      <point x="555" y="240"/>
      <point x="444" y="426"/>
    </contour>
  </outline>
</glyph>
<glyph name="uni01A4" format="2">
  <advance width="1536"/>
  <unicode hex="01A4"/>
  <anchor x="768" y="0" name="bottom"/>
  <anchor x="768" y="1462" name="top"/>
  <outline>
    <contour>
      <point x="434" y="0" type="line"/>
      <point x="743" y="0" type="line"/>
      <point x="743" y="520" type="line"/>
      <point x="877" y="520" type="line" smooth="yes"/>
      <point x="1303" y="520"/>
      <point x="1444" y="750"/>
      <point x="1444" y="1006" type="curve" smooth="yes"/>
      <point x="1444" y="1290"/>
      <point x="1278" y="1462"/>
      <point x="901" y="1462" type="curve" smooth="yes"/>
      <point x="389" y="1462" type="line" smooth="yes"/>
      <point x="109" y="1462"/>
      <point x="10" y="1303"/>
      <point x="10" y="1114" type="curve" smooth="yes"/>
      <point x="10" y="1061"/>
      <point x="25" y="1018"/>
      <point x="35" y="995" type="curve"/>
      <point x="276" y="995" type="line"/>
      <point x="268" y="1016"/>
      <point x="256" y="1047"/>
      <point x="256" y="1094" type="curve" smooth="yes"/>
      <point x="256" y="1157"/>
      <point x="295" y="1208"/>
      <point x="381" y="1208" type="curve" smooth="yes"/>
      <point x="434" y="1208" type="line"/>
    </contour>
    <contour>
      <point x="743" y="774" type="line"/>
      <point x="743" y="1208" type="line"/>
      <point x="885" y="1208" type="line" smooth="yes"/>
      <point x="1053" y="1208"/>
      <point x="1130" y="1139"/>
      <point x="1130" y="995" type="curve" smooth="yes"/>
      <point x="1130" y="840"/>
      <point x="1020" y="774"/>
      <point x="846" y="774" type="curve" smooth="yes"/>
    </contour>
  </outline>
</glyph>
<glyph name="uni01A5" format="2">
  <advance width="1296"/>
  <unicode hex="01A5"/>
  <anchor x="649" y="-492" name="bottom"/>
  <anchor x="649" y="1567" name="top"/>
  <outline>
    <contour>
      <point x="518" y="1567" type="curve" smooth="yes"/>
      <point x="305" y="1567"/>
      <point x="160" y="1466"/>
      <point x="160" y="1214" type="curve" smooth="yes"/>
      <point x="160" y="-492" type="line"/>
      <point x="465" y="-492" type="line"/>
      <point x="465" y="-45" type="line" smooth="yes"/>
      <point x="465" y="12"/>
      <point x="463" y="63"/>
      <point x="455" y="117" type="curve"/>
      <point x="467" y="117" type="line"/>
      <point x="526" y="41"/>
      <point x="621" y="-20"/>
      <point x="782" y="-20" type="curve" smooth="yes"/>
      <point x="1034" y="-20"/>
      <point x="1204" y="180"/>
      <point x="1204" y="561" type="curve" smooth="yes"/>
      <point x="1204" y="940"/>
      <point x="1032" y="1139"/>
      <point x="782" y="1139" type="curve" smooth="yes"/>
      <point x="623" y="1139"/>
      <point x="522" y="1065"/>
      <point x="465" y="973" type="curve"/>
      <point x="453" y="973" type="line"/>
      <point x="459" y="1038"/>
      <point x="465" y="1098"/>
      <point x="465" y="1151" type="curve" smooth="yes"/>
      <point x="465" y="1210" type="line" smooth="yes"/>
      <point x="465" y="1286"/>
      <point x="502" y="1323"/>
      <point x="565" y="1323" type="curve" smooth="yes"/>
      <point x="612" y="1323"/>
      <point x="655" y="1311"/>
      <point x="678" y="1303" type="curve"/>
      <point x="678" y="1536" type="line"/>
      <point x="649" y="1548"/>
      <point x="588" y="1567"/>
    </contour>
    <contour>
      <point x="684" y="895" type="curve" smooth="yes"/>
      <point x="827" y="895"/>
      <point x="893" y="784"/>
      <point x="893" y="565" type="curve" smooth="yes"/>
      <point x="893" y="346"/>
      <point x="827" y="227"/>
      <point x="688" y="227" type="curve" smooth="yes"/>
      <point x="518" y="227"/>
      <point x="465" y="346"/>
      <point x="465" y="563" type="curve" smooth="yes"/>
      <point x="465" y="596" type="line" smooth="yes"/>
      <point x="469" y="797"/>
      <point x="524" y="895"/>
    </contour>
  </outline>
</glyph>
<glyph name="uni01A7" format="2">
  <advance width="1128"/>
  <unicode hex="01A7"/>
  <anchor x="565" y="0" name="bottom"/>
  <anchor x="565" y="1462" name="top"/>
  <outline>
    <contour>
      <point x="575" y="1483" type="curve" smooth="yes"/>
      <point x="403" y="1483"/>
      <point x="250" y="1444"/>
      <point x="109" y="1380" type="curve"/>
      <point x="201" y="1139" type="line"/>
      <point x="336" y="1194"/>
      <point x="440" y="1225"/>
      <point x="551" y="1225" type="curve" smooth="yes"/>
      <point x="672" y="1225"/>
      <point x="737" y="1174"/>
      <point x="737" y="1085" type="curve" smooth="yes"/>
      <point x="737" y="971"/>
      <point x="641" y="926"/>
      <point x="442" y="842" type="curve" smooth="yes"/>
      <point x="217" y="745"/>
      <point x="86" y="618"/>
      <point x="86" y="395" type="curve" smooth="yes"/>
      <point x="86" y="135"/>
      <point x="250" y="-20"/>
      <point x="584" y="-20" type="curve" smooth="yes"/>
      <point x="758" y="-20"/>
      <point x="913" y="14"/>
      <point x="1032" y="72" type="curve"/>
      <point x="1032" y="330" type="line"/>
      <point x="891" y="272"/>
      <point x="750" y="236"/>
      <point x="602" y="236" type="curve" smooth="yes"/>
      <point x="461" y="236"/>
      <point x="389" y="295"/>
      <point x="389" y="395" type="curve" smooth="yes"/>
      <point x="389" y="508"/>
      <point x="506" y="565"/>
      <point x="674" y="635" type="curve" smooth="yes"/>
      <point x="860" y="713"/>
      <point x="1040" y="813"/>
      <point x="1040" y="1079" type="curve" smooth="yes"/>
      <point x="1040" y="1341"/>
      <point x="860" y="1483"/>
    </contour>
  </outline>
</glyph>
<glyph name="uni01A8" format="2">
  <advance width="1018"/>
  <unicode hex="01A8"/>
  <anchor x="510" y="0" name="bottom"/>
  <anchor x="510" y="1118" name="top"/>
  <outline>
    <contour>
      <point x="518" y="1139" type="curve" smooth="yes"/>
      <point x="379" y="1139"/>
      <point x="236" y="1112"/>
      <point x="102" y="1051" type="curve"/>
      <point x="184" y="831" type="line"/>
      <point x="293" y="879"/>
      <point x="387" y="913"/>
      <point x="487" y="913" type="curve" smooth="yes"/>
      <point x="578" y="913"/>
      <point x="633" y="883"/>
      <point x="633" y="829" type="curve" smooth="yes"/>
      <point x="633" y="776"/>
      <point x="588" y="748"/>
      <point x="391" y="674" type="curve" smooth="yes"/>
      <point x="201" y="602"/>
      <point x="78" y="506"/>
      <point x="78" y="311" type="curve" smooth="yes"/>
      <point x="78" y="96"/>
      <point x="233" y="-20"/>
      <point x="535" y="-20" type="curve" smooth="yes"/>
      <point x="684" y="-20"/>
      <point x="803" y="4"/>
      <point x="915" y="59" type="curve"/>
      <point x="915" y="291" type="line"/>
      <point x="793" y="227"/>
      <point x="666" y="203"/>
      <point x="559" y="203" type="curve" smooth="yes"/>
      <point x="440" y="203"/>
      <point x="379" y="238"/>
      <point x="379" y="305" type="curve" smooth="yes"/>
      <point x="379" y="360"/>
      <point x="406" y="393"/>
      <point x="623" y="479" type="curve" smooth="yes"/>
      <point x="836" y="563"/>
      <point x="936" y="645"/>
      <point x="936" y="834" type="curve" smooth="yes"/>
      <point x="936" y="1044"/>
      <point x="754" y="1139"/>
    </contour>
  </outline>
</glyph>
<glyph name="uni01AA" format="2">
  <advance width="856"/>
  <unicode hex="01AA"/>
  <anchor x="428" y="-492" name="bottom"/>
  <anchor x="428" y="1577" name="top"/>
  <outline>
    <contour>
      <point x="285" y="1577" type="curve" smooth="yes"/>
      <point x="80" y="1577"/>
      <point x="-16" y="1462"/>
      <point x="-16" y="1337" type="curve" smooth="yes"/>
      <point x="-16" y="1190"/>
      <point x="74" y="1085"/>
      <point x="274" y="1085" type="curve" smooth="yes"/>
      <point x="330" y="1085" type="line"/>
      <point x="330" y="-121" type="line" smooth="yes"/>
      <point x="330" y="-410"/>
      <point x="489" y="-492"/>
      <point x="698" y="-492" type="curve" smooth="yes"/>
      <point x="805" y="-492"/>
      <point x="899" y="-469"/>
      <point x="961" y="-440" type="curve"/>
      <point x="961" y="-213" type="line"/>
      <point x="897" y="-233"/>
      <point x="836" y="-248"/>
      <point x="768" y="-248" type="curve" smooth="yes"/>
      <point x="688" y="-248"/>
      <point x="635" y="-207"/>
      <point x="635" y="-121" type="curve" smooth="yes"/>
      <point x="635" y="1210" type="line" smooth="yes"/>
      <point x="635" y="1436"/>
      <point x="537" y="1577"/>
    </contour>
    <contour>
      <point x="242" y="1409" type="curve" smooth="yes"/>
      <point x="295" y="1409"/>
      <point x="330" y="1376"/>
      <point x="330" y="1307" type="curve" smooth="yes"/>
      <point x="330" y="1243" type="line"/>
      <point x="281" y="1243" type="line" smooth="yes"/>
      <point x="207" y="1243"/>
      <point x="168" y="1284"/>
      <point x="168" y="1335" type="curve" smooth="yes"/>
      <point x="168" y="1376"/>
      <point x="197" y="1409"/>
    </contour>
  </outline>
</glyph>
<glyph name="uni01AB" format="2">
  <advance width="889"/>
  <unicode hex="01AB"/>
  <anchor x="444" y="-492" name="bottom"/>
  <anchor x="444" y="1356" name="top"/>
  <outline>
    <contour>
      <point x="532" y="-492" type="curve" smooth="yes"/>
      <point x="723" y="-492"/>
      <point x="823" y="-387"/>
      <point x="823" y="-152" type="curve" smooth="yes"/>
      <point x="823" y="258" type="line"/>
      <point x="760" y="238"/>
      <point x="698" y="223"/>
      <point x="631" y="223" type="curve" smooth="yes"/>
      <point x="551" y="223"/>
      <point x="498" y="264"/>
      <point x="498" y="350" type="curve" smooth="yes"/>
      <point x="498" y="889" type="line"/>
      <point x="811" y="889" type="line"/>
      <point x="811" y="1118" type="line"/>
      <point x="498" y="1118" type="line"/>
      <point x="498" y="1356" type="line"/>
      <point x="303" y="1356" type="line"/>
      <point x="215" y="1120" type="line"/>
      <point x="47" y="1018" type="line"/>
      <point x="47" y="889" type="line"/>
      <point x="193" y="889" type="line"/>
      <point x="193" y="350" type="line" smooth="yes"/>
      <point x="193" y="61"/>
      <point x="342" y="-20"/>
      <point x="543" y="-20" type="curve" smooth="yes"/>
      <point x="551" y="-20"/>
      <point x="561" y="-20"/>
      <point x="569" y="-20" type="curve"/>
      <point x="569" y="-152" type="line" smooth="yes"/>
      <point x="569" y="-242"/>
      <point x="535" y="-270"/>
      <point x="467" y="-270" type="curve" smooth="yes"/>
      <point x="432" y="-270"/>
      <point x="397" y="-262"/>
      <point x="369" y="-252" type="curve"/>
      <point x="369" y="-465" type="line"/>
      <point x="414" y="-481"/>
      <point x="469" y="-492"/>
    </contour>
  </outline>
</glyph>
<glyph name="uni01AC" format="2">
  <advance width="1266"/>
  <unicode hex="01AC"/>
  <anchor x="633" y="0" name="bottom"/>
  <anchor x="633" y="1462" name="top"/>
  <outline>
    <contour>
      <point x="518" y="0" type="line"/>
      <point x="827" y="0" type="line"/>
      <point x="827" y="1204" type="line"/>
      <point x="1225" y="1204" type="line"/>
      <point x="1225" y="1462" type="line"/>
      <point x="389" y="1462" type="line" smooth="yes"/>
      <point x="109" y="1462"/>
      <point x="10" y="1303"/>
      <point x="10" y="1114" type="curve" smooth="yes"/>
      <point x="10" y="1061"/>
      <point x="25" y="1018"/>
      <point x="35" y="995" type="curve"/>
      <point x="276" y="995" type="line"/>
      <point x="268" y="1016"/>
      <point x="256" y="1047"/>
      <point x="256" y="1090" type="curve" smooth="yes"/>
      <point x="256" y="1153"/>
      <point x="295" y="1204"/>
      <point x="381" y="1204" type="curve" smooth="yes"/>
      <point x="518" y="1204" type="line"/>
    </contour>
  </outline>
</glyph>
<glyph name="uni01B3" format="2">
  <advance width="1298"/>
  <unicode hex="01B3"/>
  <anchor x="639" y="0" name="bottom"/>
  <anchor x="639" y="1462" name="top"/>
  <outline>
    <contour>
      <point x="485" y="0" type="line"/>
      <point x="793" y="0" type="line"/>
      <point x="793" y="569" type="line"/>
      <point x="1018" y="1030" type="line" smooth="yes"/>
      <point x="1104" y="1206"/>
      <point x="1135" y="1227"/>
      <point x="1202" y="1227" type="curve" smooth="yes"/>
      <point x="1223" y="1227"/>
      <point x="1257" y="1219"/>
      <point x="1278" y="1208" type="curve"/>
      <point x="1278" y="1448" type="line"/>
      <point x="1243" y="1464"/>
      <point x="1180" y="1483"/>
      <point x="1118" y="1483" type="curve" smooth="yes"/>
      <point x="958" y="1483"/>
      <point x="881" y="1393"/>
      <point x="811" y="1239" type="curve" smooth="yes"/>
      <point x="639" y="860" type="line"/>
      <point x="334" y="1462" type="line"/>
      <point x="0" y="1462" type="line"/>
      <point x="485" y="559" type="line"/>
    </contour>
  </outline>
</glyph>
<glyph name="uni01B6" format="2">
  <advance width="999"/>
  <unicode hex="01B6"/>
  <anchor x="500" y="0" name="bottom"/>
  <anchor x="500" y="1118" name="top"/>
  <outline>
    <contour>
      <point x="920" y="1118" type="line"/>
      <point x="86" y="1118" type="line"/>
      <point x="86" y="885" type="line"/>
      <point x="573" y="885" type="line"/>
      <point x="416" y="670" type="line"/>
      <point x="109" y="670" type="line"/>
      <point x="109" y="471" type="line"/>
      <point x="270" y="471" type="line"/>
      <point x="55" y="180" type="line"/>
      <point x="55" y="0" type="line"/>
      <point x="938" y="0" type="line"/>
      <point x="938" y="233" type="line"/>
      <point x="416" y="233" type="line"/>
      <point x="590" y="471" type="line"/>
      <point x="891" y="471" type="line"/>
      <point x="891" y="670" type="line"/>
      <point x="735" y="670" type="line"/>
      <point x="920" y="920" type="line"/>
    </contour>
  </outline>
</glyph>
<glyph name="uni01B8" format="2">
  <advance width="1210"/>
  <unicode hex="01B8"/>
  <anchor x="606" y="0" name="bottom"/>
  <anchor x="606" y="1462" name="top"/>
  <outline>
    <contour>
      <point x="692" y="-20" type="curve" smooth="yes"/>
      <point x="872" y="-20"/>
      <point x="1024" y="6"/>
      <point x="1153" y="59" type="curve"/>
      <point x="1153" y="322" type="line"/>
      <point x="1018" y="258"/>
      <point x="850" y="225"/>
      <point x="721" y="225" type="curve" smooth="yes"/>
      <point x="483" y="225"/>
      <point x="389" y="303"/>
      <point x="389" y="440" type="curve" smooth="yes"/>
      <point x="389" y="561"/>
      <point x="494" y="641"/>
      <point x="805" y="641" type="curve" smooth="yes"/>
      <point x="928" y="641" type="line"/>
      <point x="928" y="858" type="line"/>
      <point x="565" y="1206" type="line"/>
      <point x="1104" y="1206" type="line"/>
      <point x="1104" y="1462" type="line"/>
      <point x="145" y="1462" type="line"/>
      <point x="145" y="1264" type="line"/>
      <point x="578" y="852" type="line"/>
      <point x="264" y="827"/>
      <point x="80" y="688"/>
      <point x="80" y="416" type="curve" smooth="yes"/>
      <point x="80" y="154"/>
      <point x="287" y="-20"/>
    </contour>
  </outline>
</glyph>
<glyph name="uni01BA" format="2">
  <advance width="1190"/>
  <unicode hex="01BA"/>
  <anchor x="596" y="-492" name="bottom"/>
  <anchor x="596" y="1118" name="top"/>
  <outline>
    <contour>
      <point x="524" y="-492" type="curve" smooth="yes"/>
      <point x="709" y="-492"/>
      <point x="881" y="-453"/>
      <point x="979" y="-412" type="curve"/>
      <point x="979" y="-186" type="line"/>
      <point x="881" y="-221"/>
      <point x="737" y="-266"/>
      <point x="563" y="-266" type="curve" smooth="yes"/>
      <point x="436" y="-266"/>
      <point x="358" y="-238"/>
      <point x="358" y="-174" type="curve" smooth="yes"/>
      <point x="358" y="-119"/>
      <point x="426" y="-100"/>
      <point x="524" y="-92" type="curve" smooth="yes"/>
      <point x="985" y="-57"/>
      <point x="1069" y="109"/>
      <point x="1069" y="287" type="curve" smooth="yes"/>
      <point x="1069" y="510"/>
      <point x="897" y="608"/>
      <point x="664" y="627" type="curve"/>
      <point x="1026" y="922" type="line"/>
      <point x="1026" y="1118" type="line"/>
      <point x="119" y="1118" type="line"/>
      <point x="119" y="885" type="line"/>
      <point x="625" y="885" type="line"/>
      <point x="317" y="612" type="line"/>
      <point x="317" y="408" type="line"/>
      <point x="457" y="408" type="line" smooth="yes"/>
      <point x="676" y="408"/>
      <point x="760" y="381"/>
      <point x="760" y="293" type="curve" smooth="yes"/>
      <point x="760" y="199"/>
      <point x="684" y="174"/>
      <point x="494" y="160" type="curve" smooth="yes"/>
      <point x="209" y="139"/>
      <point x="98" y="10"/>
      <point x="98" y="-172" type="curve" smooth="yes"/>
      <point x="98" y="-387"/>
      <point x="276" y="-492"/>
    </contour>
  </outline>
</glyph>
<glyph name="uni01BC" format="2">
  <advance width="1184"/>
  <unicode hex="01BC"/>
  <anchor x="592" y="0" name="bottom"/>
  <anchor x="592" y="1462" name="top"/>
  <outline>
    <contour>
      <point x="471" y="-20" type="curve" smooth="yes"/>
      <point x="897" y="-20"/>
      <point x="1104" y="166"/>
      <point x="1104" y="473" type="curve" smooth="yes"/>
      <point x="1104" y="762"/>
      <point x="897" y="934"/>
      <point x="592" y="934" type="curve" smooth="yes"/>
      <point x="537" y="934" type="line"/>
      <point x="537" y="1204" type="line"/>
      <point x="1061" y="1204" type="line"/>
      <point x="1061" y="1462" type="line"/>
      <point x="49" y="1462" type="line"/>
      <point x="49" y="1204" type="line"/>
      <point x="231" y="1204" type="line"/>
      <point x="231" y="676" type="line"/>
      <point x="492" y="676" type="line" smooth="yes"/>
      <point x="690" y="676"/>
      <point x="793" y="606"/>
      <point x="793" y="453" type="curve" smooth="yes"/>
      <point x="793" y="293"/>
      <point x="655" y="231"/>
      <point x="461" y="231" type="curve" smooth="yes"/>
      <point x="336" y="231"/>
      <point x="158" y="272"/>
      <point x="57" y="326" type="curve"/>
      <point x="57" y="59" type="line"/>
      <point x="158" y="6"/>
      <point x="317" y="-20"/>
    </contour>
  </outline>
</glyph>
<glyph name="uni01BE" format="2">
  <advance width="1018"/>
  <unicode hex="01BE"/>
  <anchor x="510" y="0" name="bottom"/>
  <anchor x="510" y="1356" name="top"/>
  <outline>
    <contour>
      <point x="463" y="-20" type="curve" smooth="yes"/>
      <point x="809" y="-20"/>
      <point x="940" y="131"/>
      <point x="940" y="322" type="curve" smooth="yes"/>
      <point x="940" y="528"/>
      <point x="797" y="586"/>
      <point x="647" y="674" type="curve" smooth="yes"/>
      <point x="578" y="715"/>
      <point x="555" y="739"/>
      <point x="555" y="817" type="curve" smooth="yes"/>
      <point x="555" y="889" type="line"/>
      <point x="838" y="889" type="line"/>
      <point x="838" y="1118" type="line"/>
      <point x="555" y="1118" type="line"/>
      <point x="555" y="1356" type="line"/>
      <point x="360" y="1356" type="line"/>
      <point x="272" y="1120" type="line"/>
      <point x="74" y="1018" type="line"/>
      <point x="74" y="889" type="line"/>
      <point x="268" y="889" type="line"/>
      <point x="268" y="807" type="line" smooth="yes"/>
      <point x="268" y="590"/>
      <point x="371" y="528"/>
      <point x="489" y="457" type="curve" smooth="yes"/>
      <point x="571" y="408"/>
      <point x="643" y="387"/>
      <point x="643" y="313" type="curve" smooth="yes"/>
      <point x="643" y="240"/>
      <point x="582" y="203"/>
      <point x="436" y="203" type="curve" smooth="yes"/>
      <point x="315" y="203"/>
      <point x="162" y="254"/>
      <point x="74" y="301" type="curve"/>
      <point x="74" y="49" type="line"/>
      <point x="162" y="6"/>
      <point x="324" y="-20"/>
    </contour>
  </outline>
</glyph>
<glyph name="uni01C2" format="2">
  <advance width="1057"/>
  <unicode hex="01C2"/>
  <anchor x="528" y="0" name="bottom"/>
  <anchor x="528" y="1556" name="top"/>
  <outline>
    <contour>
      <point x="637" y="1556" type="line"/>
      <point x="418" y="1556" type="line"/>
      <point x="418" y="1087" type="line"/>
      <point x="102" y="1087" type="line"/>
      <point x="102" y="889" type="line"/>
      <point x="418" y="889" type="line"/>
      <point x="418" y="713" type="line"/>
      <point x="102" y="713" type="line"/>
      <point x="102" y="514" type="line"/>
      <point x="418" y="514" type="line"/>
      <point x="418" y="0" type="line"/>
      <point x="637" y="0" type="line"/>
      <point x="637" y="514" type="line"/>
      <point x="954" y="514" type="line"/>
      <point x="954" y="713" type="line"/>
      <point x="637" y="713" type="line"/>
      <point x="637" y="889" type="line"/>
      <point x="954" y="889" type="line"/>
      <point x="954" y="1087" type="line"/>
      <point x="637" y="1087" type="line"/>
    </contour>
  </outline>
</glyph>
<glyph name="uni01E4" format="2">
  <advance width="1483"/>
  <unicode hex="01E4"/>
  <anchor x="823" y="0" name="bottom"/>
  <anchor x="844" y="1462" name="top"/>
  <outline>
    <contour>
      <point x="799" y="-20" type="curve" smooth="yes"/>
      <point x="1008" y="-20"/>
      <point x="1165" y="12"/>
      <point x="1319" y="63" type="curve"/>
      <point x="1319" y="328" type="line"/>
      <point x="1452" y="328" type="line"/>
      <point x="1452" y="526" type="line"/>
      <point x="1319" y="526" type="line"/>
      <point x="1319" y="862" type="line"/>
      <point x="739" y="862" type="line"/>
      <point x="739" y="625" type="line"/>
      <point x="1016" y="625" type="line"/>
      <point x="1016" y="526" type="line"/>
      <point x="760" y="526" type="line"/>
      <point x="760" y="328" type="line"/>
      <point x="1016" y="328" type="line"/>
      <point x="1016" y="238" type="line"/>
      <point x="961" y="225"/>
      <point x="903" y="217"/>
      <point x="829" y="217" type="curve" smooth="yes"/>
      <point x="559" y="217"/>
      <point x="438" y="397"/>
      <point x="438" y="727" type="curve" smooth="yes"/>
      <point x="438" y="1028"/>
      <point x="610" y="1225"/>
      <point x="881" y="1225" type="curve" smooth="yes"/>
      <point x="1006" y="1225"/>
      <point x="1124" y="1190"/>
      <point x="1214" y="1145" type="curve"/>
      <point x="1317" y="1393" type="line"/>
      <point x="1194" y="1446"/>
      <point x="1038" y="1483"/>
      <point x="883" y="1483" type="curve" smooth="yes"/>
      <point x="391" y="1483"/>
      <point x="119" y="1192"/>
      <point x="119" y="733" type="curve" smooth="yes"/>
      <point x="119" y="242"/>
      <point x="362" y="-20"/>
    </contour>
  </outline>
</glyph>
<glyph name="uni01F7" format="2">
  <advance width="1384"/>
  <unicode hex="01F7"/>
  <anchor x="692" y="-492" name="bottom"/>
  <anchor x="692" y="1462" name="top"/>
  <outline>
    <contour>
      <point x="858" y="1485" type="curve" smooth="yes"/>
      <point x="682" y="1485"/>
      <point x="547" y="1378"/>
      <point x="477" y="1274" type="curve"/>
      <point x="469" y="1274" type="line"/>
      <point x="420" y="1462" type="line"/>
      <point x="184" y="1462" type="line"/>
      <point x="184" y="-492" type="line"/>
      <point x="494" y="-492" type="line"/>
      <point x="494" y="8" type="line"/>
      <point x="1030" y="174"/>
      <point x="1282" y="553"/>
      <point x="1282" y="946" type="curve" smooth="yes"/>
      <point x="1282" y="1294"/>
      <point x="1108" y="1485"/>
    </contour>
    <contour>
      <point x="768" y="1227" type="curve" smooth="yes"/>
      <point x="897" y="1227"/>
      <point x="969" y="1126"/>
      <point x="969" y="944" type="curve" smooth="yes"/>
      <point x="969" y="666"/>
      <point x="770" y="406"/>
      <point x="494" y="297" type="curve"/>
      <point x="494" y="801" type="line" smooth="yes"/>
      <point x="494" y="1067"/>
      <point x="596" y="1227"/>
    </contour>
  </outline>
</glyph>
<glyph name="uni021C" format="2">
  <advance width="1288"/>
  <unicode hex="021C"/>
  <anchor x="655" y="-215" name="bottom"/>
  <anchor x="633" y="1462" name="top"/>
  <outline>
    <contour>
      <point x="104" y="-369" type="line"/>
      <point x="868" y="-211"/>
      <point x="1200" y="14"/>
      <point x="1200" y="395" type="curve" smooth="yes"/>
      <point x="1200" y="584"/>
      <point x="1092" y="700"/>
      <point x="958" y="772" type="curve"/>
      <point x="1081" y="850"/>
      <point x="1157" y="950"/>
      <point x="1157" y="1079" type="curve" smooth="yes"/>
      <point x="1157" y="1352"/>
      <point x="965" y="1483"/>
      <point x="645" y="1483" type="curve" smooth="yes"/>
      <point x="442" y="1483"/>
      <point x="233" y="1432"/>
      <point x="78" y="1323" type="curve"/>
      <point x="213" y="1116" type="line"/>
      <point x="334" y="1188"/>
      <point x="467" y="1235"/>
      <point x="616" y="1235" type="curve" smooth="yes"/>
      <point x="766" y="1235"/>
      <point x="856" y="1184"/>
      <point x="856" y="1071" type="curve" smooth="yes"/>
      <point x="856" y="920"/>
      <point x="647" y="864"/>
      <point x="311" y="786" type="curve"/>
      <point x="360" y="561" type="line"/>
      <point x="489" y="590"/>
      <point x="612" y="623"/>
      <point x="721" y="659" type="curve"/>
      <point x="829" y="606"/>
      <point x="895" y="528"/>
      <point x="895" y="395" type="curve" smooth="yes"/>
      <point x="895" y="195"/>
      <point x="750" y="37"/>
      <point x="104" y="-106" type="curve"/>
    </contour>
  </outline>
</glyph>
<glyph name="uni0220" format="2">
  <advance width="1559"/>
  <unicode hex="0220"/>
  <anchor x="780" y="-492" name="bottom"/>
  <anchor x="780" y="1462" name="top"/>
  <outline>
    <contour>
      <point x="913" y="1485" type="curve" smooth="yes"/>
      <point x="727" y="1485"/>
      <point x="567" y="1409"/>
      <point x="477" y="1274" type="curve"/>
      <point x="469" y="1274" type="line"/>
      <point x="420" y="1462" type="line"/>
      <point x="184" y="1462" type="line"/>
      <point x="184" y="0" type="line"/>
      <point x="494" y="0" type="line"/>
      <point x="494" y="774" type="line" smooth="yes"/>
      <point x="494" y="1059"/>
      <point x="569" y="1227"/>
      <point x="817" y="1227" type="curve" smooth="yes"/>
      <point x="993" y="1227"/>
      <point x="1075" y="1124"/>
      <point x="1075" y="922" type="curve" smooth="yes"/>
      <point x="1075" y="-492" type="line"/>
      <point x="1384" y="-492" type="line"/>
      <point x="1384" y="997" type="line"/>
      <point x="1384" y="1335"/>
      <point x="1192" y="1485"/>
    </contour>
  </outline>
</glyph>
<glyph name="uni0234" format="2">
  <advance width="891"/>
  <unicode hex="0234"/>
  <anchor x="446" y="0" name="bottom"/>
  <anchor x="319" y="1556" name="top"/>
  <outline>
    <contour>
      <point x="221" y="-76" type="line"/>
      <point x="248" y="-25"/>
      <point x="266" y="10"/>
      <point x="291" y="47" type="curve"/>
      <point x="352" y="-2"/>
      <point x="449" y="-20"/>
      <point x="563" y="-20" type="curve" smooth="yes"/>
      <point x="780" y="-20"/>
      <point x="891" y="84"/>
      <point x="891" y="246" type="curve" smooth="yes"/>
      <point x="891" y="416"/>
      <point x="793" y="508"/>
      <point x="621" y="508" type="curve" smooth="yes"/>
      <point x="563" y="508"/>
      <point x="502" y="489"/>
      <point x="465" y="465" type="curve"/>
      <point x="465" y="1556" type="line"/>
      <point x="160" y="1556" type="line"/>
      <point x="160" y="395" type="line"/>
      <point x="160" y="307"/>
      <point x="162" y="227"/>
      <point x="184" y="180" type="curve"/>
      <point x="150" y="129"/>
      <point x="113" y="63"/>
      <point x="78" y="-2" type="curve"/>
    </contour>
    <contour>
      <point x="592" y="162" type="curve" smooth="yes"/>
      <point x="514" y="162"/>
      <point x="473" y="205"/>
      <point x="465" y="276" type="curve"/>
      <point x="500" y="307"/>
      <point x="547" y="326"/>
      <point x="590" y="326" type="curve" smooth="yes"/>
      <point x="651" y="326"/>
      <point x="686" y="299"/>
      <point x="686" y="244" type="curve" smooth="yes"/>
      <point x="686" y="195"/>
      <point x="651" y="162"/>
    </contour>
  </outline>
</glyph>
<glyph name="uni0236" format="2">
  <advance width="924"/>
  <unicode hex="0236"/>
  <anchor x="463" y="0" name="bottom"/>
  <anchor x="463" y="1356" name="top"/>
  <outline>
    <contour>
      <point x="254" y="-76" type="line"/>
      <point x="281" y="-25"/>
      <point x="299" y="10"/>
      <point x="324" y="47" type="curve"/>
      <point x="385" y="-2"/>
      <point x="481" y="-20"/>
      <point x="596" y="-20" type="curve" smooth="yes"/>
      <point x="813" y="-20"/>
      <point x="924" y="84"/>
      <point x="924" y="246" type="curve" smooth="yes"/>
      <point x="924" y="416"/>
      <point x="825" y="508"/>
      <point x="653" y="508" type="curve" smooth="yes"/>
      <point x="596" y="508"/>
      <point x="535" y="489"/>
      <point x="498" y="465" type="curve"/>
      <point x="498" y="889" type="line"/>
      <point x="811" y="889" type="line"/>
      <point x="811" y="1118" type="line"/>
      <point x="498" y="1118" type="line"/>
      <point x="498" y="1356" type="line"/>
      <point x="303" y="1356" type="line"/>
      <point x="215" y="1120" type="line"/>
      <point x="47" y="1018" type="line"/>
      <point x="47" y="889" type="line"/>
      <point x="193" y="889" type="line"/>
      <point x="193" y="395" type="line" smooth="yes"/>
      <point x="193" y="307"/>
      <point x="195" y="227"/>
      <point x="217" y="180" type="curve"/>
      <point x="182" y="129"/>
      <point x="145" y="63"/>
      <point x="111" y="-2" type="curve"/>
    </contour>
    <contour>
      <point x="625" y="162" type="curve" smooth="yes"/>
      <point x="547" y="162"/>
      <point x="506" y="205"/>
      <point x="498" y="276" type="curve"/>
      <point x="532" y="307"/>
      <point x="580" y="326"/>
      <point x="623" y="326" type="curve" smooth="yes"/>
      <point x="684" y="326"/>
      <point x="719" y="299"/>
      <point x="719" y="244" type="curve" smooth="yes"/>
      <point x="719" y="195"/>
      <point x="684" y="162"/>
    </contour>
  </outline>
</glyph>
<glyph name="uni0238" format="2">
  <advance width="1968"/>
  <unicode hex="0238"/>
  <anchor x="985" y="0" name="bottom"/>
  <anchor x="985" y="1556" name="top"/>
  <outline>
    <contour>
      <point x="602" y="-20" type="curve" smooth="yes"/>
      <point x="770" y="-20"/>
      <point x="901" y="45"/>
      <point x="981" y="168" type="curve"/>
      <point x="1059" y="45"/>
      <point x="1186" y="-20"/>
      <point x="1356" y="-20" type="curve" smooth="yes"/>
      <point x="1657" y="-20"/>
      <point x="1876" y="170"/>
      <point x="1876" y="559" type="curve" smooth="yes"/>
      <point x="1876" y="940"/>
      <point x="1704" y="1139"/>
      <point x="1454" y="1139" type="curve" smooth="yes"/>
      <point x="1292" y="1139"/>
      <point x="1196" y="1065"/>
      <point x="1137" y="973" type="curve"/>
      <point x="1124" y="973" type="line"/>
      <point x="1130" y="1034"/>
      <point x="1137" y="1106"/>
      <point x="1137" y="1194" type="curve" smooth="yes"/>
      <point x="1137" y="1556" type="line"/>
      <point x="831" y="1556" type="line"/>
      <point x="831" y="1194" type="line" smooth="yes"/>
      <point x="831" y="1106"/>
      <point x="838" y="1034"/>
      <point x="844" y="973" type="curve"/>
      <point x="831" y="973" type="line"/>
      <point x="772" y="1065"/>
      <point x="676" y="1139"/>
      <point x="514" y="1139" type="curve" smooth="yes"/>
      <point x="264" y="1139"/>
      <point x="92" y="940"/>
      <point x="92" y="559" type="curve" smooth="yes"/>
      <point x="92" y="170"/>
      <point x="301" y="-20"/>
    </contour>
    <contour>
      <point x="618" y="225" type="curve" smooth="yes"/>
      <point x="479" y="225"/>
      <point x="403" y="322"/>
      <point x="403" y="559" type="curve" smooth="yes"/>
      <point x="403" y="784"/>
      <point x="483" y="895"/>
      <point x="612" y="895" type="curve" smooth="yes"/>
      <point x="772" y="895"/>
      <point x="831" y="791"/>
      <point x="831" y="563" type="curve" smooth="yes"/>
      <point x="831" y="317"/>
      <point x="764" y="225"/>
    </contour>
    <contour>
      <point x="1350" y="225" type="curve" smooth="yes"/>
      <point x="1204" y="225"/>
      <point x="1137" y="317"/>
      <point x="1137" y="563" type="curve" smooth="yes"/>
      <point x="1137" y="791"/>
      <point x="1196" y="895"/>
      <point x="1356" y="895" type="curve" smooth="yes"/>
      <point x="1485" y="895"/>
      <point x="1565" y="784"/>
      <point x="1565" y="559" type="curve" smooth="yes"/>
      <point x="1565" y="322"/>
      <point x="1489" y="225"/>
    </contour>
  </outline>
</glyph>
<glyph name="uni0239" format="2">
  <advance width="1968"/>
  <unicode hex="0239"/>
  <anchor x="985" y="-492" name="bottom"/>
  <anchor x="985" y="1118" name="top"/>
  <outline>
    <contour>
      <point x="1366" y="1139" type="curve" smooth="yes"/>
      <point x="1198" y="1139"/>
      <point x="1067" y="1073"/>
      <point x="987" y="950" type="curve"/>
      <point x="909" y="1073"/>
      <point x="782" y="1139"/>
      <point x="612" y="1139" type="curve" smooth="yes"/>
      <point x="311" y="1139"/>
      <point x="92" y="948"/>
      <point x="92" y="559" type="curve" smooth="yes"/>
      <point x="92" y="178"/>
      <point x="264" y="-20"/>
      <point x="514" y="-20" type="curve" smooth="yes"/>
      <point x="676" y="-20"/>
      <point x="772" y="53"/>
      <point x="831" y="145" type="curve"/>
      <point x="844" y="145" type="line"/>
      <point x="838" y="84"/>
      <point x="831" y="12"/>
      <point x="831" y="-76" type="curve" smooth="yes"/>
      <point x="831" y="-492" type="line"/>
      <point x="1137" y="-492" type="line"/>
      <point x="1137" y="-76" type="line" smooth="yes"/>
      <point x="1137" y="12"/>
      <point x="1130" y="84"/>
      <point x="1124" y="145" type="curve"/>
      <point x="1137" y="145" type="line"/>
      <point x="1196" y="53"/>
      <point x="1292" y="-20"/>
      <point x="1454" y="-20" type="curve" smooth="yes"/>
      <point x="1704" y="-20"/>
      <point x="1876" y="178"/>
      <point x="1876" y="559" type="curve" smooth="yes"/>
      <point x="1876" y="948"/>
      <point x="1667" y="1139"/>
    </contour>
    <contour>
      <point x="618" y="893" type="curve" smooth="yes"/>
      <point x="764" y="893"/>
      <point x="831" y="801"/>
      <point x="831" y="555" type="curve" smooth="yes"/>
      <point x="831" y="328"/>
      <point x="772" y="223"/>
      <point x="612" y="223" type="curve" smooth="yes"/>
      <point x="483" y="223"/>
      <point x="403" y="334"/>
      <point x="403" y="559" type="curve" smooth="yes"/>
      <point x="403" y="797"/>
      <point x="479" y="893"/>
    </contour>
    <contour>
      <point x="1350" y="893" type="curve" smooth="yes"/>
      <point x="1489" y="893"/>
      <point x="1565" y="797"/>
      <point x="1565" y="559" type="curve" smooth="yes"/>
      <point x="1565" y="334"/>
      <point x="1485" y="223"/>
      <point x="1356" y="223" type="curve" smooth="yes"/>
      <point x="1196" y="223"/>
      <point x="1137" y="328"/>
      <point x="1137" y="555" type="curve" smooth="yes"/>
      <point x="1137" y="801"/>
      <point x="1204" y="893"/>
    </contour>
  </outline>
</glyph>
<glyph name="uni023B" format="2">
  <advance width="1305"/>
  <unicode hex="023B"/>
  <anchor x="758" y="0" name="bottom"/>
  <anchor x="772" y="1462" name="top"/>
  <outline>
    <contour>
      <point x="1167" y="1556" type="line"/>
      <point x="969" y="1556" type="line"/>
      <point x="375" y="-154" type="line"/>
      <point x="573" y="-154" type="line"/>
    </contour>
    <component base="C"/>
  </outline>
</glyph>
<glyph name="uni023D" format="2">
  <advance width="1157"/>
  <unicode hex="023D"/>
  <anchor x="631" y="0" name="bottom"/>
  <anchor x="336" y="1462" name="top"/>
  <outline>
    <contour>
      <point x="47" y="596" type="line"/>
      <point x="731" y="596" type="line"/>
      <point x="731" y="850" type="line"/>
      <point x="47" y="850" type="line"/>
    </contour>
    <component base="L"/>
  </outline>
</glyph>
<glyph name="uni0240" format="2">
  <advance width="999"/>
  <unicode hex="0240"/>
  <anchor x="500" y="-492" name="bottom"/>
  <anchor x="500" y="1118" name="top"/>
  <outline>
    <contour>
      <point x="805" y="-492" type="curve" smooth="yes"/>
      <point x="872" y="-492"/>
      <point x="954" y="-481"/>
      <point x="999" y="-465" type="curve"/>
      <point x="999" y="-227" type="line"/>
      <point x="958" y="-240"/>
      <point x="913" y="-246"/>
      <point x="866" y="-246" type="curve" smooth="yes"/>
      <point x="772" y="-246"/>
      <point x="721" y="-197"/>
      <point x="657" y="-45" type="curve" smooth="yes"/>
      <point x="614" y="57"/>
      <point x="543" y="172"/>
      <point x="393" y="207" type="curve"/>
      <point x="920" y="920" type="line"/>
      <point x="920" y="1118" type="line"/>
      <point x="86" y="1118" type="line"/>
      <point x="86" y="885" type="line"/>
      <point x="573" y="885" type="line"/>
      <point x="55" y="180" type="line"/>
      <point x="55" y="0" type="line"/>
      <point x="174" y="0" type="line"/>
      <point x="313" y="0"/>
      <point x="360" y="-66"/>
      <point x="401" y="-180" type="curve" smooth="yes"/>
      <point x="461" y="-348"/>
      <point x="543" y="-492"/>
    </contour>
  </outline>
</glyph>
<glyph name="uni0242" format="2">
  <advance width="1001"/>
  <unicode hex="0242"/>
  <anchor x="502" y="0" name="bottom"/>
  <anchor x="502" y="1118" name="top"/>
  <outline>
    <contour>
      <point x="451" y="1139" type="curve" smooth="yes"/>
      <point x="281" y="1139"/>
      <point x="139" y="1087"/>
      <point x="6" y="1014" type="curve"/>
      <point x="115" y="795" type="line"/>
      <point x="174" y="829"/>
      <point x="293" y="893"/>
      <point x="418" y="893" type="curve" smooth="yes"/>
      <point x="535" y="893"/>
      <point x="621" y="813"/>
      <point x="621" y="698" type="curve" smooth="yes"/>
      <point x="621" y="580"/>
      <point x="555" y="428"/>
      <point x="252" y="324" type="curve"/>
      <point x="252" y="0" type="line"/>
      <point x="557" y="0" type="line"/>
      <point x="557" y="195" type="line"/>
      <point x="805" y="319"/>
      <point x="928" y="477"/>
      <point x="928" y="711" type="curve" smooth="yes"/>
      <point x="928" y="956"/>
      <point x="752" y="1139"/>
    </contour>
  </outline>
</glyph>
<glyph name="uni0246" format="2">
  <advance width="1147"/>
  <unicode hex="0246"/>
  <anchor x="621" y="0" name="bottom"/>
  <anchor x="616" y="1462" name="top"/>
  <outline>
    <contour>
      <point x="989" y="1556" type="line"/>
      <point x="793" y="1556" type="line"/>
      <point x="356" y="-154" type="line"/>
      <point x="553" y="-154" type="line"/>
    </contour>
    <component base="E"/>
  </outline>
</glyph>
<glyph name="uni024B" format="2">
  <advance width="1296"/>
  <unicode hex="024B"/>
  <anchor x="649" y="-492" name="bottom"/>
  <anchor x="649" y="1118" name="top"/>
  <outline>
    <contour>
      <point x="520" y="1139" type="curve" smooth="yes"/>
      <point x="266" y="1139"/>
      <point x="92" y="938"/>
      <point x="92" y="557" type="curve" smooth="yes"/>
      <point x="92" y="178"/>
      <point x="262" y="-20"/>
      <point x="514" y="-20" type="curve" smooth="yes"/>
      <point x="678" y="-20"/>
      <point x="774" y="53"/>
      <point x="831" y="145" type="curve"/>
      <point x="844" y="145" type="line"/>
      <point x="838" y="84"/>
      <point x="831" y="4"/>
      <point x="831" y="-55" type="curve" smooth="yes"/>
      <point x="831" y="-131" type="line" smooth="yes"/>
      <point x="831" y="-348"/>
      <point x="920" y="-492"/>
      <point x="1171" y="-492" type="curve" smooth="yes"/>
      <point x="1241" y="-492"/>
      <point x="1313" y="-483"/>
      <point x="1358" y="-461" type="curve"/>
      <point x="1358" y="-227" type="line"/>
      <point x="1319" y="-240"/>
      <point x="1290" y="-248"/>
      <point x="1245" y="-248" type="curve" smooth="yes"/>
      <point x="1178" y="-248"/>
      <point x="1137" y="-201"/>
      <point x="1137" y="-125" type="curve" smooth="yes"/>
      <point x="1137" y="1118" type="line"/>
      <point x="879" y="1118" type="line"/>
      <point x="852" y="975" type="line"/>
      <point x="844" y="975" type="line"/>
      <point x="780" y="1067"/>
      <point x="684" y="1139"/>
    </contour>
    <contour>
      <point x="618" y="891" type="curve" smooth="yes"/>
      <point x="797" y="891"/>
      <point x="852" y="772"/>
      <point x="852" y="555" type="curve" smooth="yes"/>
      <point x="852" y="518" type="line" smooth="yes"/>
      <point x="848" y="317"/>
      <point x="791" y="219"/>
      <point x="623" y="219" type="curve" smooth="yes"/>
      <point x="473" y="219"/>
      <point x="403" y="330"/>
      <point x="403" y="553" type="curve" smooth="yes"/>
      <point x="403" y="772"/>
      <point x="473" y="891"/>
    </contour>
  </outline>
</glyph>
<glyph name="uni024C" format="2">
  <advance width="1352"/>
  <unicode hex="024C"/>
  <anchor x="733" y="0" name="bottom"/>
  <anchor x="692" y="1462" name="top"/>
  <outline>
    <contour>
      <point x="246" y="561" type="line"/>
      <point x="246" y="813" type="line"/>
      <point x="20" y="813" type="line"/>
      <point x="20" y="561" type="line"/>
    </contour>
    <component base="R"/>
  </outline>
</glyph>
<glyph name="uni024F" format="2">
  <advance width="1165"/>
  <unicode hex="024F"/>
  <anchor x="246" y="-492" name="bottom"/>
  <anchor x="584" y="1118" name="top"/>
  <outline>
    <contour>
      <point x="1145" y="788" type="line"/>
      <point x="20" y="788" type="line"/>
      <point x="20" y="590" type="line"/>
      <point x="1145" y="590" type="line"/>
    </contour>
    <component base="y"/>
  </outline>
</glyph>
<glyph name="uni0253" format="2">
  <advance width="1296"/>
  <unicode hex="0253"/>
  <anchor x="649" y="0" name="bottom"/>
  <anchor x="649" y="1567" name="top"/>
  <outline>
    <contour>
      <point x="518" y="1567" type="curve" smooth="yes"/>
      <point x="305" y="1567"/>
      <point x="160" y="1466"/>
      <point x="160" y="1214" type="curve" smooth="yes"/>
      <point x="160" y="0" type="line"/>
      <point x="393" y="0" type="line"/>
      <point x="444" y="123" type="line"/>
      <point x="465" y="123" type="line"/>
      <point x="524" y="49"/>
      <point x="610" y="-20"/>
      <point x="774" y="-20" type="curve" smooth="yes"/>
      <point x="1030" y="-20"/>
      <point x="1204" y="178"/>
      <point x="1204" y="561" type="curve" smooth="yes"/>
      <point x="1204" y="940"/>
      <point x="1032" y="1139"/>
      <point x="782" y="1139" type="curve" smooth="yes"/>
      <point x="621" y="1139"/>
      <point x="524" y="1065"/>
      <point x="465" y="973" type="curve"/>
      <point x="453" y="973" type="line"/>
      <point x="459" y="1044"/>
      <point x="465" y="1120"/>
      <point x="465" y="1194" type="curve" smooth="yes"/>
      <point x="465" y="1208" type="line" smooth="yes"/>
      <point x="469" y="1290"/>
      <point x="502" y="1323"/>
      <point x="565" y="1323" type="curve" smooth="yes"/>
      <point x="612" y="1323"/>
      <point x="655" y="1311"/>
      <point x="678" y="1303" type="curve"/>
      <point x="678" y="1536" type="line"/>
      <point x="649" y="1548"/>
      <point x="588" y="1567"/>
    </contour>
    <contour>
      <point x="684" y="895" type="curve" smooth="yes"/>
      <point x="813" y="895"/>
      <point x="893" y="784"/>
      <point x="893" y="565" type="curve" smooth="yes"/>
      <point x="893" y="346"/>
      <point x="813" y="227"/>
      <point x="688" y="227" type="curve" smooth="yes"/>
      <point x="518" y="227"/>
      <point x="465" y="346"/>
      <point x="465" y="575" type="curve" smooth="yes"/>
      <point x="469" y="797"/>
      <point x="524" y="895"/>
    </contour>
  </outline>
</glyph>
<glyph name="uni0254" format="2">
  <advance width="1053"/>
  <unicode hex="0254"/>
  <anchor x="444" y="0" name="bottom"/>
  <anchor x="444" y="1118" name="top"/>
  <outline>
    <contour>
      <point x="424" y="1139" type="curve" smooth="yes"/>
      <point x="272" y="1139"/>
      <point x="152" y="1108"/>
      <point x="63" y="1063" type="curve"/>
      <point x="150" y="827" type="line"/>
      <point x="231" y="866"/>
      <point x="307" y="893"/>
      <point x="389" y="893" type="curve" smooth="yes"/>
      <point x="549" y="893"/>
      <point x="649" y="786"/>
      <point x="649" y="561" type="curve" smooth="yes"/>
      <point x="649" y="340"/>
      <point x="551" y="227"/>
      <point x="399" y="227" type="curve" smooth="yes"/>
      <point x="272" y="227"/>
      <point x="182" y="262"/>
      <point x="88" y="324" type="curve"/>
      <point x="88" y="63" type="line"/>
      <point x="182" y="4"/>
      <point x="272" y="-20"/>
      <point x="422" y="-20" type="curve" smooth="yes"/>
      <point x="756" y="-20"/>
      <point x="961" y="174"/>
      <point x="961" y="561" type="curve" smooth="yes"/>
      <point x="961" y="956"/>
      <point x="756" y="1139"/>
    </contour>
  </outline>
</glyph>
<glyph name="uni0255" format="2">
  <advance width="1126"/>
  <unicode hex="0255"/>
  <anchor x="563" y="0" name="bottom"/>
  <anchor x="563" y="1118" name="top"/>
  <outline>
    <contour>
      <point x="666" y="1139" type="curve" smooth="yes"/>
      <point x="319" y="1139"/>
      <point x="92" y="965"/>
      <point x="92" y="553" type="curve" smooth="yes"/>
      <point x="92" y="393"/>
      <point x="127" y="276"/>
      <point x="197" y="174" type="curve"/>
      <point x="158" y="104"/>
      <point x="127" y="43"/>
      <point x="96" y="-41" type="curve"/>
      <point x="248" y="-109" type="line"/>
      <point x="272" y="-41"/>
      <point x="293" y="2"/>
      <point x="322" y="59" type="curve"/>
      <point x="401" y="6"/>
      <point x="506" y="-20"/>
      <point x="647" y="-20" type="curve" smooth="yes"/>
      <point x="868" y="-20"/>
      <point x="1059" y="70"/>
      <point x="1059" y="301" type="curve" smooth="yes"/>
      <point x="1059" y="475"/>
      <point x="936" y="586"/>
      <point x="731" y="586" type="curve" smooth="yes"/>
      <point x="600" y="586"/>
      <point x="489" y="537"/>
      <point x="412" y="465" type="curve"/>
      <point x="406" y="500"/>
      <point x="403" y="530"/>
      <point x="403" y="555" type="curve" smooth="yes"/>
      <point x="403" y="786"/>
      <point x="485" y="893"/>
      <point x="666" y="893" type="curve" smooth="yes"/>
      <point x="754" y="893"/>
      <point x="827" y="864"/>
      <point x="920" y="827" type="curve"/>
      <point x="1010" y="1063" type="line"/>
      <point x="926" y="1102"/>
      <point x="825" y="1139"/>
    </contour>
    <contour>
      <point x="711" y="403" type="curve" smooth="yes"/>
      <point x="795" y="403"/>
      <point x="838" y="367"/>
      <point x="838" y="309" type="curve" smooth="yes"/>
      <point x="838" y="244"/>
      <point x="770" y="203"/>
      <point x="676" y="203" type="curve" smooth="yes"/>
      <point x="584" y="203"/>
      <point x="516" y="236"/>
      <point x="475" y="293" type="curve"/>
      <point x="522" y="344"/>
      <point x="604" y="403"/>
    </contour>
  </outline>
</glyph>
<glyph name="schwahook" format="2">
  <advance width="1714"/>
  <unicode hex="025A"/>
  <anchor x="575" y="0" name="bottom"/>
  <anchor x="575" y="1118" name="top"/>
  <outline>
    <contour>
      <point x="604" y="-20" type="curve" smooth="yes"/>
      <point x="977" y="-20"/>
      <point x="1143" y="223"/>
      <point x="1143" y="567" type="curve"/>
      <point x="1198" y="588" type="line"/>
      <point x="1251" y="418"/>
      <point x="1343" y="348"/>
      <point x="1479" y="348" type="curve" smooth="yes"/>
      <point x="1573" y="348"/>
      <point x="1651" y="383"/>
      <point x="1714" y="432" type="curve"/>
      <point x="1647" y="612" type="line"/>
      <point x="1606" y="584"/>
      <point x="1563" y="559"/>
      <point x="1505" y="559" type="curve" smooth="yes"/>
      <point x="1440" y="559"/>
      <point x="1415" y="604"/>
      <point x="1380" y="731" type="curve" smooth="yes"/>
      <point x="1352" y="838" type="line"/>
      <point x="1116" y="768" type="line"/>
      <point x="1047" y="1018"/>
      <point x="834" y="1139"/>
      <point x="557" y="1139" type="curve" smooth="yes"/>
      <point x="381" y="1139"/>
      <point x="268" y="1114"/>
      <point x="156" y="1059" type="curve"/>
      <point x="156" y="823" type="line"/>
      <point x="285" y="883"/>
      <point x="399" y="911"/>
      <point x="547" y="911" type="curve" smooth="yes"/>
      <point x="702" y="911"/>
      <point x="795" y="844"/>
      <point x="831" y="690" type="curve"/>
      <point x="92" y="487" type="line"/>
      <point x="92" y="162"/>
      <point x="289" y="-20"/>
    </contour>
    <contour>
      <point x="600" y="197" type="curve" smooth="yes"/>
      <point x="451" y="197"/>
      <point x="399" y="297"/>
      <point x="385" y="371" type="curve"/>
      <point x="836" y="492" type="line"/>
      <point x="836" y="281"/>
      <point x="745" y="197"/>
    </contour>
  </outline>
</glyph>
<glyph name="uni025E" format="2">
  <advance width="1288"/>
  <unicode hex="025E"/>
  <anchor x="645" y="0" name="bottom"/>
  <anchor x="645" y="1118" name="top"/>
  <outline>
    <contour>
      <point x="698" y="1139" type="curve" smooth="yes"/>
      <point x="354" y="1139"/>
      <point x="92" y="932"/>
      <point x="92" y="561" type="curve" smooth="yes"/>
      <point x="92" y="158"/>
      <point x="342" y="-20"/>
      <point x="676" y="-20" type="curve" smooth="yes"/>
      <point x="995" y="-20"/>
      <point x="1210" y="115"/>
      <point x="1210" y="340" type="curve" smooth="yes"/>
      <point x="1210" y="487"/>
      <point x="1098" y="549"/>
      <point x="956" y="575" type="curve"/>
      <point x="956" y="586" type="line"/>
      <point x="1094" y="623"/>
      <point x="1180" y="694"/>
      <point x="1180" y="829" type="curve" smooth="yes"/>
      <point x="1180" y="1036"/>
      <point x="999" y="1139"/>
    </contour>
    <contour>
      <point x="690" y="913" type="curve" smooth="yes"/>
      <point x="811" y="913"/>
      <point x="907" y="872"/>
      <point x="907" y="801" type="curve" smooth="yes"/>
      <point x="907" y="707"/>
      <point x="829" y="678"/>
      <point x="637" y="678" type="curve" smooth="yes"/>
      <point x="604" y="678" type="line"/>
      <point x="604" y="467" type="line"/>
      <point x="643" y="467" type="line" smooth="yes"/>
      <point x="838" y="467"/>
      <point x="913" y="440"/>
      <point x="913" y="350" type="curve" smooth="yes"/>
      <point x="913" y="254"/>
      <point x="807" y="215"/>
      <point x="682" y="215" type="curve" smooth="yes"/>
      <point x="526" y="215"/>
      <point x="403" y="287"/>
      <point x="403" y="561" type="curve" smooth="yes"/>
      <point x="403" y="793"/>
      <point x="528" y="913"/>
    </contour>
  </outline>
</glyph>
<glyph name="uni025F" format="2">
  <advance width="625"/>
  <unicode hex="025F"/>
  <anchor x="313" y="-492" name="bottom"/>
  <anchor x="313" y="1118" name="top"/>
  <anchor x="524" y="1118" name="topright"/>
  <outline>
    <contour>
      <point x="70" y="-492" type="curve" smooth="yes"/>
      <point x="356" y="-492"/>
      <point x="465" y="-326"/>
      <point x="465" y="-121" type="curve" smooth="yes"/>
      <point x="465" y="471" type="line"/>
      <point x="625" y="471" type="line"/>
      <point x="625" y="670" type="line"/>
      <point x="465" y="670" type="line"/>
      <point x="465" y="1118" type="line"/>
      <point x="160" y="1118" type="line"/>
      <point x="160" y="670" type="line"/>
      <point x="-2" y="670" type="line"/>
      <point x="-2" y="471" type="line"/>
      <point x="160" y="471" type="line"/>
      <point x="160" y="-76" type="line" smooth="yes"/>
      <point x="160" y="-211"/>
      <point x="94" y="-246"/>
      <point x="12" y="-246" type="curve" smooth="yes"/>
      <point x="-43" y="-246"/>
      <point x="-82" y="-240"/>
      <point x="-131" y="-227" type="curve"/>
      <point x="-131" y="-467" type="line"/>
      <point x="-82" y="-481"/>
      <point x="0" y="-492"/>
    </contour>
  </outline>
</glyph>
<glyph name="uni0260" format="2">
  <advance width="1296"/>
  <unicode hex="0260"/>
  <anchor x="649" y="-492" name="bottom"/>
  <anchor x="649" y="1571" name="top"/>
  <outline>
    <contour>
      <point x="1186" y="1571" type="curve" smooth="yes"/>
      <point x="952" y="1571"/>
      <point x="831" y="1464"/>
      <point x="831" y="1214" type="curve" smooth="yes"/>
      <point x="831" y="1198" type="line" smooth="yes"/>
      <point x="831" y="1118"/>
      <point x="844" y="1040"/>
      <point x="854" y="975" type="curve"/>
      <point x="846" y="975" type="line"/>
      <point x="768" y="1083"/>
      <point x="659" y="1139"/>
      <point x="522" y="1139" type="curve" smooth="yes"/>
      <point x="254" y="1139"/>
      <point x="92" y="924"/>
      <point x="92" y="557" type="curve" smooth="yes"/>
      <point x="92" y="195"/>
      <point x="250" y="-20"/>
      <point x="514" y="-20" type="curve" smooth="yes"/>
      <point x="647" y="-20"/>
      <point x="756" y="29"/>
      <point x="831" y="145" type="curve"/>
      <point x="836" y="145" type="line"/>
      <point x="831" y="98"/>
      <point x="831" y="55"/>
      <point x="831" y="8" type="curve" smooth="yes"/>
      <point x="831" y="-14" type="line" smooth="yes"/>
      <point x="831" y="-184"/>
      <point x="754" y="-268"/>
      <point x="596" y="-268" type="curve" smooth="yes"/>
      <point x="442" y="-268"/>
      <point x="297" y="-240"/>
      <point x="160" y="-182" type="curve"/>
      <point x="160" y="-426" type="line"/>
      <point x="289" y="-475"/>
      <point x="420" y="-492"/>
      <point x="578" y="-492" type="curve" smooth="yes"/>
      <point x="946" y="-492"/>
      <point x="1137" y="-322"/>
      <point x="1137" y="-2" type="curve"/>
      <point x="1137" y="1204" type="line" smooth="yes"/>
      <point x="1137" y="1286"/>
      <point x="1182" y="1327"/>
      <point x="1247" y="1327" type="curve" smooth="yes"/>
      <point x="1294" y="1327"/>
      <point x="1335" y="1315"/>
      <point x="1358" y="1307" type="curve"/>
      <point x="1358" y="1540" type="line"/>
      <point x="1329" y="1552"/>
      <point x="1264" y="1571"/>
    </contour>
    <contour>
      <point x="618" y="891" type="curve" smooth="yes"/>
      <point x="782" y="891"/>
      <point x="852" y="795"/>
      <point x="852" y="555" type="curve" smooth="yes"/>
      <point x="852" y="518" type="line" smooth="yes"/>
      <point x="852" y="299"/>
      <point x="778" y="219"/>
      <point x="623" y="219" type="curve" smooth="yes"/>
      <point x="473" y="219"/>
      <point x="403" y="330"/>
      <point x="403" y="553" type="curve" smooth="yes"/>
      <point x="403" y="778"/>
      <point x="475" y="891"/>
    </contour>
  </outline>
</glyph>
<glyph name="uni0262" format="2">
  <advance width="1227"/>
  <unicode hex="0262"/>
  <anchor x="614" y="0" name="bottom"/>
  <anchor x="614" y="1118" name="top"/>
  <anchor x="1153" y="1118" name="topright"/>
  <outline>
    <contour>
      <point x="698" y="1139" type="curve" smooth="yes"/>
      <point x="291" y="1139"/>
      <point x="92" y="889"/>
      <point x="92" y="561" type="curve" smooth="yes"/>
      <point x="92" y="207"/>
      <point x="266" y="-20"/>
      <point x="649" y="-20" type="curve" smooth="yes"/>
      <point x="825" y="-20"/>
      <point x="985" y="14"/>
      <point x="1104" y="68" type="curve"/>
      <point x="1104" y="633" type="line"/>
      <point x="598" y="633" type="line"/>
      <point x="598" y="430" type="line"/>
      <point x="811" y="430" type="line"/>
      <point x="811" y="242" type="line"/>
      <point x="768" y="231"/>
      <point x="733" y="225"/>
      <point x="680" y="225" type="curve" smooth="yes"/>
      <point x="483" y="225"/>
      <point x="403" y="354"/>
      <point x="403" y="561" type="curve" smooth="yes"/>
      <point x="403" y="791"/>
      <point x="549" y="893"/>
      <point x="715" y="893" type="curve" smooth="yes"/>
      <point x="825" y="893"/>
      <point x="913" y="860"/>
      <point x="995" y="817" type="curve"/>
      <point x="1085" y="1053" type="line"/>
      <point x="950" y="1118"/>
      <point x="834" y="1139"/>
    </contour>
  </outline>
</glyph>
<glyph name="uni0266" format="2">
  <advance width="1346"/>
  <unicode hex="0266"/>
  <anchor x="674" y="0" name="bottom"/>
  <anchor x="674" y="1567" name="top"/>
  <outline>
    <contour>
      <point x="160" y="0" type="line"/>
      <point x="465" y="0" type="line"/>
      <point x="465" y="506" type="line" smooth="yes"/>
      <point x="465" y="743"/>
      <point x="522" y="874"/>
      <point x="707" y="874" type="curve" smooth="yes"/>
      <point x="829" y="874"/>
      <point x="887" y="793"/>
      <point x="887" y="633" type="curve" smooth="yes"/>
      <point x="887" y="0" type="line"/>
      <point x="1192" y="0" type="line"/>
      <point x="1192" y="709" type="line"/>
      <point x="1192" y="995"/>
      <point x="1032" y="1118"/>
      <point x="791" y="1118" type="curve" smooth="yes"/>
      <point x="653" y="1118"/>
      <point x="539" y="1069"/>
      <point x="467" y="954" type="curve"/>
      <point x="451" y="954" type="line"/>
      <point x="455" y="975"/>
      <point x="465" y="1077"/>
      <point x="465" y="1169" type="curve" smooth="yes"/>
      <point x="465" y="1208" type="line" smooth="yes"/>
      <point x="465" y="1290"/>
      <point x="502" y="1323"/>
      <point x="565" y="1323" type="curve" smooth="yes"/>
      <point x="612" y="1323"/>
      <point x="655" y="1311"/>
      <point x="678" y="1303" type="curve"/>
      <point x="678" y="1536" type="line"/>
      <point x="649" y="1548"/>
      <point x="588" y="1567"/>
      <point x="518" y="1567" type="curve" smooth="yes"/>
      <point x="305" y="1567"/>
      <point x="160" y="1466"/>
      <point x="160" y="1214" type="curve" smooth="yes"/>
    </contour>
  </outline>
</glyph>
<glyph name="uni026A" format="2">
  <advance width="739"/>
  <unicode hex="026A"/>
  <anchor x="371" y="0" name="bottom"/>
  <anchor x="371" y="1118" name="top"/>
  <outline>
    <contour>
      <point x="698" y="1118" type="line"/>
      <point x="41" y="1118" type="line"/>
      <point x="41" y="971" type="line"/>
      <point x="217" y="885" type="line"/>
      <point x="217" y="233" type="line"/>
      <point x="41" y="147" type="line"/>
      <point x="41" y="0" type="line"/>
      <point x="698" y="0" type="line"/>
      <point x="698" y="147" type="line"/>
      <point x="522" y="233" type="line"/>
      <point x="522" y="885" type="line"/>
      <point x="698" y="971" type="line"/>
    </contour>
  </outline>
</glyph>
<glyph name="uni026C" format="2">
  <advance width="829"/>
  <unicode hex="026C"/>
  <anchor x="416" y="0" name="bottom"/>
  <anchor x="416" y="1556" name="top"/>
  <outline>
    <contour>
      <point x="324" y="0" type="line"/>
      <point x="629" y="0" type="line"/>
      <point x="629" y="598" type="line"/>
      <point x="829" y="598" type="line"/>
      <point x="829" y="756" type="line"/>
      <point x="629" y="756" type="line"/>
      <point x="629" y="1556" type="line"/>
      <point x="324" y="1556" type="line"/>
      <point x="324" y="1010" type="line"/>
      <point x="293" y="1032"/>
      <point x="254" y="1047"/>
      <point x="211" y="1047" type="curve" smooth="yes"/>
      <point x="66" y="1047"/>
      <point x="-20" y="956"/>
      <point x="-20" y="819" type="curve" smooth="yes"/>
      <point x="-20" y="690"/>
      <point x="61" y="598"/>
      <point x="252" y="598" type="curve" smooth="yes"/>
      <point x="324" y="598" type="line"/>
    </contour>
    <contour>
      <point x="262" y="756" type="line" smooth="yes"/>
      <point x="203" y="756"/>
      <point x="164" y="772"/>
      <point x="164" y="823" type="curve" smooth="yes"/>
      <point x="164" y="864"/>
      <point x="190" y="889"/>
      <point x="236" y="889" type="curve" smooth="yes"/>
      <point x="291" y="889"/>
      <point x="324" y="856"/>
      <point x="324" y="784" type="curve" smooth="yes"/>
      <point x="324" y="756" type="line"/>
    </contour>
  </outline>
</glyph>
<glyph name="uni026D" format="2">
  <advance width="625"/>
  <unicode hex="026D"/>
  <anchor x="313" y="-492" name="bottom"/>
  <anchor x="313" y="1556" name="top"/>
  <outline>
    <contour>
      <point x="500" y="-492" type="curve" smooth="yes"/>
      <point x="569" y="-492"/>
      <point x="641" y="-483"/>
      <point x="686" y="-461" type="curve"/>
      <point x="686" y="-227" type="line"/>
      <point x="647" y="-240"/>
      <point x="618" y="-248"/>
      <point x="573" y="-248" type="curve" smooth="yes"/>
      <point x="506" y="-248"/>
      <point x="465" y="-201"/>
      <point x="465" y="-125" type="curve" smooth="yes"/>
      <point x="465" y="1556" type="line"/>
      <point x="160" y="1556" type="line"/>
      <point x="160" y="-131" type="line" smooth="yes"/>
      <point x="160" y="-348"/>
      <point x="248" y="-492"/>
    </contour>
  </outline>
</glyph>
<glyph name="uni0270" format="2">
  <advance width="2011"/>
  <unicode hex="0270"/>
  <anchor x="1006" y="-492" name="bottom"/>
  <anchor x="1006" y="1118" name="top"/>
  <outline>
    <contour>
      <point x="1546" y="-492" type="line"/>
      <point x="1851" y="-492" type="line"/>
      <point x="1851" y="1118" type="line"/>
      <point x="1546" y="1118" type="line"/>
      <point x="1546" y="592" type="line" smooth="yes"/>
      <point x="1546" y="354"/>
      <point x="1493" y="223"/>
      <point x="1323" y="223" type="curve" smooth="yes"/>
      <point x="1208" y="223"/>
      <point x="1155" y="305"/>
      <point x="1155" y="465" type="curve" smooth="yes"/>
      <point x="1155" y="1118" type="line"/>
      <point x="850" y="1118" type="line"/>
      <point x="850" y="557" type="line" smooth="yes"/>
      <point x="850" y="342"/>
      <point x="788" y="223"/>
      <point x="627" y="223" type="curve" smooth="yes"/>
      <point x="512" y="223"/>
      <point x="459" y="305"/>
      <point x="459" y="465" type="curve" smooth="yes"/>
      <point x="459" y="1118" type="line"/>
      <point x="154" y="1118" type="line"/>
      <point x="154" y="389" type="line" smooth="yes"/>
      <point x="154" y="102"/>
      <point x="285" y="-20"/>
      <point x="539" y="-20" type="curve" smooth="yes"/>
      <point x="668" y="-20"/>
      <point x="801" y="29"/>
      <point x="868" y="143" type="curve"/>
      <point x="895" y="143" type="line"/>
      <point x="956" y="31"/>
      <point x="1071" y="-20"/>
      <point x="1235" y="-20" type="curve" smooth="yes"/>
      <point x="1364" y="-20"/>
      <point x="1475" y="31"/>
      <point x="1546" y="145" type="curve"/>
      <point x="1559" y="145" type="line"/>
      <point x="1550" y="92"/>
      <point x="1546" y="27"/>
      <point x="1546" y="-23" type="curve" smooth="yes"/>
    </contour>
  </outline>
</glyph>
<glyph name="uni0271" format="2">
  <advance width="2011"/>
  <unicode hex="0271"/>
  <anchor x="1006" y="-492" name="bottom"/>
  <anchor x="1006" y="1118" name="top"/>
  <anchor x="1909" y="1118" name="topright"/>
  <outline>
    <contour>
      <point x="1473" y="1139" type="curve" smooth="yes"/>
      <point x="1343" y="1139"/>
      <point x="1210" y="1090"/>
      <point x="1143" y="975" type="curve"/>
      <point x="1116" y="975" type="line"/>
      <point x="1055" y="1087"/>
      <point x="940" y="1139"/>
      <point x="776" y="1139" type="curve" smooth="yes"/>
      <point x="647" y="1139"/>
      <point x="518" y="1090"/>
      <point x="451" y="975" type="curve"/>
      <point x="434" y="975" type="line"/>
      <point x="393" y="1118" type="line"/>
      <point x="160" y="1118" type="line"/>
      <point x="160" y="0" type="line"/>
      <point x="465" y="0" type="line"/>
      <point x="465" y="526" type="line" smooth="yes"/>
      <point x="465" y="764"/>
      <point x="518" y="895"/>
      <point x="688" y="895" type="curve" smooth="yes"/>
      <point x="803" y="895"/>
      <point x="856" y="813"/>
      <point x="856" y="653" type="curve" smooth="yes"/>
      <point x="856" y="0" type="line"/>
      <point x="1161" y="0" type="line"/>
      <point x="1161" y="561" type="line"/>
      <point x="1161" y="776"/>
      <point x="1223" y="895"/>
      <point x="1384" y="895" type="curve" smooth="yes"/>
      <point x="1499" y="895"/>
      <point x="1552" y="813"/>
      <point x="1552" y="653" type="curve" smooth="yes"/>
      <point x="1552" y="-76" type="line" smooth="yes"/>
      <point x="1552" y="-211"/>
      <point x="1497" y="-246"/>
      <point x="1430" y="-246" type="curve" smooth="yes"/>
      <point x="1384" y="-246"/>
      <point x="1352" y="-240"/>
      <point x="1311" y="-227" type="curve"/>
      <point x="1311" y="-467" type="line"/>
      <point x="1356" y="-481"/>
      <point x="1432" y="-492"/>
      <point x="1495" y="-492" type="curve" smooth="yes"/>
      <point x="1757" y="-492"/>
      <point x="1858" y="-326"/>
      <point x="1858" y="-121" type="curve" smooth="yes"/>
      <point x="1858" y="729" type="line" smooth="yes"/>
      <point x="1858" y="1016"/>
      <point x="1726" y="1139"/>
    </contour>
  </outline>
</glyph>
<glyph name="uni0272" format="2">
  <advance width="1346"/>
  <unicode hex="0272"/>
  <anchor x="674" y="-492" name="bottom"/>
  <anchor x="674" y="1118" name="top"/>
  <anchor x="1243" y="1118" name="topright"/>
  <outline>
    <contour>
      <point x="795" y="1139" type="curve" smooth="yes"/>
      <point x="655" y="1139"/>
      <point x="522" y="1090"/>
      <point x="451" y="975" type="curve"/>
      <point x="434" y="975" type="line"/>
      <point x="393" y="1118" type="line"/>
      <point x="160" y="1118" type="line"/>
      <point x="160" y="-125" type="line" smooth="yes"/>
      <point x="160" y="-201"/>
      <point x="119" y="-248"/>
      <point x="51" y="-248" type="curve" smooth="yes"/>
      <point x="6" y="-248"/>
      <point x="-23" y="-240"/>
      <point x="-61" y="-227" type="curve"/>
      <point x="-61" y="-461" type="line"/>
      <point x="-16" y="-483"/>
      <point x="51" y="-492"/>
      <point x="115" y="-492" type="curve" smooth="yes"/>
      <point x="377" y="-492"/>
      <point x="465" y="-326"/>
      <point x="465" y="-121" type="curve" smooth="yes"/>
      <point x="465" y="526" type="line" smooth="yes"/>
      <point x="465" y="764"/>
      <point x="520" y="895"/>
      <point x="707" y="895" type="curve" smooth="yes"/>
      <point x="831" y="895"/>
      <point x="887" y="813"/>
      <point x="887" y="653" type="curve" smooth="yes"/>
      <point x="887" y="0" type="line"/>
      <point x="1192" y="0" type="line"/>
      <point x="1192" y="729" type="line"/>
      <point x="1192" y="1016"/>
      <point x="1034" y="1139"/>
    </contour>
  </outline>
</glyph>
<glyph name="uni0273" format="2">
  <advance width="1346"/>
  <unicode hex="0273"/>
  <anchor x="674" y="-492" name="bottom"/>
  <anchor x="674" y="1118" name="top"/>
  <anchor x="1243" y="1118" name="topright"/>
  <outline>
    <contour>
      <point x="1192" y="-125" type="curve" smooth="yes"/>
      <point x="1192" y="729" type="line"/>
      <point x="1192" y="1016"/>
      <point x="1034" y="1139"/>
      <point x="795" y="1139" type="curve" smooth="yes"/>
      <point x="655" y="1139"/>
      <point x="522" y="1090"/>
      <point x="451" y="975" type="curve"/>
      <point x="434" y="975" type="line"/>
      <point x="393" y="1118" type="line"/>
      <point x="160" y="1118" type="line"/>
      <point x="160" y="0" type="line"/>
      <point x="465" y="0" type="line"/>
      <point x="465" y="526" type="line" smooth="yes"/>
      <point x="465" y="764"/>
      <point x="520" y="895"/>
      <point x="707" y="895" type="curve" smooth="yes"/>
      <point x="831" y="895"/>
      <point x="887" y="813"/>
      <point x="887" y="653" type="curve" smooth="yes"/>
      <point x="887" y="-131" type="line" smooth="yes"/>
      <point x="887" y="-348"/>
      <point x="975" y="-492"/>
      <point x="1227" y="-492" type="curve" smooth="yes"/>
      <point x="1296" y="-492"/>
      <point x="1368" y="-483"/>
      <point x="1413" y="-461" type="curve"/>
      <point x="1413" y="-227" type="line"/>
      <point x="1374" y="-240"/>
      <point x="1346" y="-248"/>
      <point x="1300" y="-248" type="curve" smooth="yes"/>
      <point x="1233" y="-248"/>
      <point x="1192" y="-201"/>
    </contour>
  </outline>
</glyph>
<glyph name="uni027B" format="2">
  <advance width="930"/>
  <unicode hex="027B"/>
  <anchor x="465" y="-492" name="bottom"/>
  <anchor x="465" y="1118" name="top"/>
  <outline>
    <contour>
      <point x="797" y="-492" type="curve" smooth="yes"/>
      <point x="866" y="-492"/>
      <point x="938" y="-483"/>
      <point x="983" y="-461" type="curve"/>
      <point x="983" y="-227" type="line"/>
      <point x="944" y="-240"/>
      <point x="915" y="-248"/>
      <point x="870" y="-248" type="curve" smooth="yes"/>
      <point x="803" y="-248"/>
      <point x="770" y="-201"/>
      <point x="770" y="-125" type="curve" smooth="yes"/>
      <point x="770" y="1118" type="line"/>
      <point x="465" y="1118" type="line"/>
      <point x="465" y="549" type="line" smooth="yes"/>
      <point x="465" y="338"/>
      <point x="313" y="264"/>
      <point x="156" y="264" type="curve" smooth="yes"/>
      <point x="129" y="264"/>
      <point x="86" y="268"/>
      <point x="66" y="274" type="curve"/>
      <point x="43" y="-12" type="line"/>
      <point x="68" y="-16"/>
      <point x="115" y="-20"/>
      <point x="145" y="-20" type="curve" smooth="yes"/>
      <point x="295" y="-20"/>
      <point x="401" y="66"/>
      <point x="467" y="170" type="curve"/>
      <point x="477" y="170" type="line"/>
      <point x="469" y="102"/>
      <point x="465" y="43"/>
      <point x="465" y="-72" type="curve" smooth="yes"/>
      <point x="465" y="-131" type="line" smooth="yes"/>
      <point x="465" y="-348"/>
      <point x="551" y="-492"/>
    </contour>
  </outline>
</glyph>
<glyph name="uni027D" format="2">
  <advance width="930"/>
  <unicode hex="027D"/>
  <anchor x="465" y="-492" name="bottom"/>
  <anchor x="465" y="1118" name="top"/>
  <outline>
    <contour>
      <point x="784" y="1139" type="curve" smooth="yes"/>
      <point x="635" y="1139"/>
      <point x="516" y="1044"/>
      <point x="451" y="930" type="curve"/>
      <point x="436" y="930" type="line"/>
      <point x="391" y="1118" type="line"/>
      <point x="160" y="1118" type="line"/>
      <point x="160" y="-131" type="line" smooth="yes"/>
      <point x="160" y="-348"/>
      <point x="248" y="-492"/>
      <point x="500" y="-492" type="curve" smooth="yes"/>
      <point x="569" y="-492"/>
      <point x="641" y="-483"/>
      <point x="686" y="-461" type="curve"/>
      <point x="686" y="-227" type="line"/>
      <point x="647" y="-240"/>
      <point x="618" y="-248"/>
      <point x="573" y="-248" type="curve" smooth="yes"/>
      <point x="506" y="-248"/>
      <point x="465" y="-201"/>
      <point x="465" y="-125" type="curve" smooth="yes"/>
      <point x="465" y="569" type="line" smooth="yes"/>
      <point x="465" y="780"/>
      <point x="616" y="854"/>
      <point x="774" y="854" type="curve" smooth="yes"/>
      <point x="801" y="854"/>
      <point x="844" y="850"/>
      <point x="864" y="844" type="curve"/>
      <point x="887" y="1130" type="line"/>
      <point x="862" y="1135"/>
      <point x="815" y="1139"/>
    </contour>
  </outline>
</glyph>
<glyph name="uni0280" format="2">
  <advance width="1239"/>
  <unicode hex="0280"/>
  <anchor x="621" y="0" name="bottom"/>
  <anchor x="621" y="1118" name="top"/>
  <outline>
    <contour>
      <point x="172" y="0" type="line"/>
      <point x="477" y="0" type="line"/>
      <point x="477" y="416" type="line"/>
      <point x="635" y="416" type="line"/>
      <point x="905" y="0" type="line"/>
      <point x="1239" y="0" type="line"/>
      <point x="909" y="471" type="line"/>
      <point x="1044" y="520"/>
      <point x="1145" y="608"/>
      <point x="1145" y="780" type="curve" smooth="yes"/>
      <point x="1145" y="1006"/>
      <point x="969" y="1118"/>
      <point x="702" y="1118" type="curve" smooth="yes"/>
      <point x="172" y="1118" type="line"/>
    </contour>
    <contour>
      <point x="477" y="621" type="line"/>
      <point x="477" y="903" type="line"/>
      <point x="682" y="903" type="line" smooth="yes"/>
      <point x="793" y="903"/>
      <point x="846" y="842"/>
      <point x="846" y="770" type="curve" smooth="yes"/>
      <point x="846" y="676"/>
      <point x="770" y="621"/>
      <point x="653" y="621" type="curve" smooth="yes"/>
    </contour>
  </outline>
</glyph>
<glyph name="uni0284" format="2">
  <advance width="625"/>
  <unicode hex="0284"/>
  <anchor x="313" y="-492" name="bottom"/>
  <anchor x="313" y="1571" name="top"/>
  <outline>
    <contour>
      <point x="115" y="-492" type="curve" smooth="yes"/>
      <point x="377" y="-492"/>
      <point x="465" y="-326"/>
      <point x="465" y="-121" type="curve" smooth="yes"/>
      <point x="465" y="508" type="line"/>
      <point x="625" y="508" type="line"/>
      <point x="625" y="737" type="line"/>
      <point x="465" y="737" type="line"/>
      <point x="465" y="1204" type="line"/>
      <point x="465" y="1286"/>
      <point x="510" y="1327"/>
      <point x="575" y="1327" type="curve" smooth="yes"/>
      <point x="623" y="1327"/>
      <point x="664" y="1315"/>
      <point x="686" y="1307" type="curve"/>
      <point x="686" y="1540" type="line"/>
      <point x="657" y="1552"/>
      <point x="592" y="1571"/>
      <point x="514" y="1571" type="curve" smooth="yes"/>
      <point x="281" y="1571"/>
      <point x="160" y="1464"/>
      <point x="160" y="1214" type="curve" smooth="yes"/>
      <point x="160" y="737" type="line"/>
      <point x="0" y="737" type="line"/>
      <point x="0" y="508" type="line"/>
      <point x="160" y="508" type="line"/>
      <point x="160" y="-125" type="line" smooth="yes"/>
      <point x="160" y="-201"/>
      <point x="119" y="-248"/>
      <point x="51" y="-248" type="curve" smooth="yes"/>
      <point x="6" y="-248"/>
      <point x="-23" y="-240"/>
      <point x="-61" y="-227" type="curve"/>
      <point x="-61" y="-461" type="line"/>
      <point x="-16" y="-483"/>
      <point x="51" y="-492"/>
    </contour>
  </outline>
</glyph>
<glyph name="eshsquatreversed" format="2">
  <advance width="625"/>
  <unicode hex="0285"/>
  <anchor x="313" y="-492" name="bottom"/>
  <anchor x="313" y="1118" name="top"/>
  <outline>
    <contour>
      <point x="510" y="-492" type="curve" smooth="yes"/>
      <point x="573" y="-492"/>
      <point x="641" y="-483"/>
      <point x="686" y="-461" type="curve"/>
      <point x="686" y="-227" type="line"/>
      <point x="647" y="-240"/>
      <point x="618" y="-248"/>
      <point x="573" y="-248" type="curve" smooth="yes"/>
      <point x="506" y="-248"/>
      <point x="465" y="-201"/>
      <point x="465" y="-125" type="curve" smooth="yes"/>
      <point x="465" y="782" type="line" smooth="yes"/>
      <point x="465" y="1032"/>
      <point x="344" y="1139"/>
      <point x="111" y="1139" type="curve" smooth="yes"/>
      <point x="33" y="1139"/>
      <point x="-33" y="1120"/>
      <point x="-61" y="1108" type="curve"/>
      <point x="-61" y="874" type="line"/>
      <point x="-39" y="883"/>
      <point x="2" y="895"/>
      <point x="49" y="895" type="curve" smooth="yes"/>
      <point x="115" y="895"/>
      <point x="160" y="854"/>
      <point x="160" y="772" type="curve"/>
      <point x="160" y="-131" type="line" smooth="yes"/>
      <point x="160" y="-336"/>
      <point x="248" y="-492"/>
    </contour>
  </outline>
</glyph>
<glyph name="eshcurl" format="2">
  <advance width="625"/>
  <unicode hex="0286"/>
  <anchor x="313" y="-492" name="bottom"/>
  <anchor x="313" y="1571" name="top"/>
  <outline>
    <contour>
      <point x="109" y="-492" type="curve" smooth="yes"/>
      <point x="340" y="-492"/>
      <point x="446" y="-354"/>
      <point x="463" y="-158" type="curve"/>
      <point x="604" y="-158" type="line"/>
      <point x="604" y="0" type="line"/>
      <point x="465" y="0" type="line"/>
      <point x="465" y="1204" type="line" smooth="yes"/>
      <point x="465" y="1286"/>
      <point x="510" y="1327"/>
      <point x="575" y="1327" type="curve" smooth="yes"/>
      <point x="623" y="1327"/>
      <point x="664" y="1315"/>
      <point x="686" y="1307" type="curve"/>
      <point x="686" y="1540" type="line"/>
      <point x="657" y="1552"/>
      <point x="592" y="1571"/>
      <point x="514" y="1571" type="curve" smooth="yes"/>
      <point x="281" y="1571"/>
      <point x="160" y="1464"/>
      <point x="160" y="1214" type="curve" smooth="yes"/>
      <point x="160" y="0" type="line"/>
      <point x="104" y="0" type="line"/>
      <point x="-96" y="0"/>
      <point x="-186" y="-104"/>
      <point x="-186" y="-252" type="curve" smooth="yes"/>
      <point x="-186" y="-377"/>
      <point x="-90" y="-492"/>
    </contour>
    <contour>
      <point x="72" y="-324" type="curve" smooth="yes"/>
      <point x="27" y="-324"/>
      <point x="-2" y="-291"/>
      <point x="-2" y="-250" type="curve" smooth="yes"/>
      <point x="-2" y="-199"/>
      <point x="37" y="-158"/>
      <point x="111" y="-158" type="curve" smooth="yes"/>
      <point x="160" y="-158" type="line"/>
      <point x="160" y="-221" type="line" smooth="yes"/>
      <point x="160" y="-291"/>
      <point x="125" y="-324"/>
    </contour>
  </outline>
</glyph>
<glyph name="uni0288" format="2">
  <advance width="889"/>
  <unicode hex="0288"/>
  <anchor x="444" y="-492" name="bottom"/>
  <anchor x="408" y="1356" name="top"/>
  <anchor x="811" y="1356" name="topright"/>
  <outline>
    <contour>
      <point x="631" y="-248" type="curve" smooth="yes"/>
      <point x="551" y="-248"/>
      <point x="498" y="-207"/>
      <point x="498" y="-121" type="curve" smooth="yes"/>
      <point x="498" y="889" type="line"/>
      <point x="811" y="889" type="line"/>
      <point x="811" y="1118" type="line"/>
      <point x="498" y="1118" type="line"/>
      <point x="498" y="1356" type="line"/>
      <point x="303" y="1356" type="line"/>
      <point x="215" y="1120" type="line"/>
      <point x="47" y="1018" type="line"/>
      <point x="47" y="889" type="line"/>
      <point x="193" y="889" type="line"/>
      <point x="193" y="-121" type="line" smooth="yes"/>
      <point x="193" y="-410"/>
      <point x="342" y="-492"/>
      <point x="543" y="-492" type="curve" smooth="yes"/>
      <point x="657" y="-492"/>
      <point x="758" y="-469"/>
      <point x="823" y="-440" type="curve"/>
      <point x="823" y="-213" type="line"/>
      <point x="760" y="-233"/>
      <point x="698" y="-248"/>
    </contour>
  </outline>
</glyph>
<glyph name="uni028B" format="2">
  <advance width="1372"/>
  <unicode hex="028B"/>
  <anchor x="686" y="0" name="bottom"/>
  <anchor x="686" y="1118" name="top"/>
  <outline>
    <contour>
      <point x="893" y="1139" type="curve" smooth="yes"/>
      <point x="829" y="1139"/>
      <point x="748" y="1128"/>
      <point x="698" y="1108" type="curve"/>
      <point x="698" y="874" type="line"/>
      <point x="737" y="887"/>
      <point x="764" y="895"/>
      <point x="809" y="895" type="curve" smooth="yes"/>
      <point x="879" y="895"/>
      <point x="918" y="848"/>
      <point x="918" y="770" type="curve" smooth="yes"/>
      <point x="918" y="500" type="line" smooth="yes"/>
      <point x="918" y="305"/>
      <point x="844" y="225"/>
      <point x="698" y="225" type="curve" smooth="yes"/>
      <point x="532" y="225"/>
      <point x="459" y="305"/>
      <point x="459" y="500" type="curve" smooth="yes"/>
      <point x="459" y="1118" type="line"/>
      <point x="154" y="1118" type="line"/>
      <point x="154" y="510" type="line" smooth="yes"/>
      <point x="154" y="213"/>
      <point x="268" y="-20"/>
      <point x="686" y="-20" type="curve" smooth="yes"/>
      <point x="1094" y="-20"/>
      <point x="1223" y="213"/>
      <point x="1223" y="510" type="curve" smooth="yes"/>
      <point x="1223" y="778" type="line"/>
      <point x="1223" y="983"/>
      <point x="1137" y="1139"/>
    </contour>
  </outline>
</glyph>
<glyph name="uni028F" format="2">
  <advance width="1165"/>
  <unicode hex="028F"/>
  <anchor x="584" y="0" name="bottom"/>
  <anchor x="584" y="1118" name="top"/>
  <outline>
    <contour>
      <point x="1165" y="1118" type="line"/>
      <point x="821" y="1118" type="line"/>
      <point x="586" y="694" type="line"/>
      <point x="344" y="1118" type="line"/>
      <point x="0" y="1118" type="line"/>
      <point x="430" y="418" type="line"/>
      <point x="430" y="0" type="line"/>
      <point x="735" y="0" type="line"/>
      <point x="735" y="418" type="line"/>
    </contour>
  </outline>
</glyph>
<glyph name="uni0290" format="2">
  <advance width="999"/>
  <unicode hex="0290"/>
  <anchor x="500" y="-492" name="bottom"/>
  <anchor x="500" y="1118" name="top"/>
  <outline>
    <contour>
      <point x="965" y="-492" type="curve" smooth="yes"/>
      <point x="1028" y="-492"/>
      <point x="1094" y="-481"/>
      <point x="1139" y="-465" type="curve"/>
      <point x="1139" y="-252" type="line"/>
      <point x="1110" y="-262"/>
      <point x="1075" y="-270"/>
      <point x="1040" y="-270" type="curve" smooth="yes"/>
      <point x="973" y="-270"/>
      <point x="938" y="-240"/>
      <point x="938" y="-152" type="curve" smooth="yes"/>
      <point x="938" y="233" type="line"/>
      <point x="416" y="233" type="line"/>
      <point x="920" y="920" type="line"/>
      <point x="920" y="1118" type="line"/>
      <point x="86" y="1118" type="line"/>
      <point x="86" y="885" type="line"/>
      <point x="573" y="885" type="line"/>
      <point x="55" y="180" type="line"/>
      <point x="55" y="0" type="line"/>
      <point x="684" y="0" type="line"/>
      <point x="684" y="-172" type="line" smooth="yes"/>
      <point x="684" y="-397"/>
      <point x="795" y="-492"/>
    </contour>
  </outline>
</glyph>
<glyph name="uni0291" format="2">
  <advance width="1178"/>
  <unicode hex="0291"/>
  <anchor x="590" y="-178" name="bottom"/>
  <anchor x="590" y="1118" name="top"/>
  <outline>
    <contour>
      <point x="545" y="-178" type="line"/>
      <point x="569" y="-111"/>
      <point x="592" y="-57"/>
      <point x="616" y="0" type="curve"/>
      <point x="774" y="0" type="line"/>
      <point x="1022" y="0"/>
      <point x="1178" y="78"/>
      <point x="1178" y="309" type="curve" smooth="yes"/>
      <point x="1178" y="461"/>
      <point x="1079" y="559"/>
      <point x="932" y="559" type="curve" smooth="yes"/>
      <point x="754" y="559"/>
      <point x="651" y="457"/>
      <point x="535" y="233" type="curve"/>
      <point x="412" y="233" type="line"/>
      <point x="928" y="934" type="line"/>
      <point x="928" y="1118" type="line"/>
      <point x="86" y="1118" type="line"/>
      <point x="86" y="885" type="line"/>
      <point x="573" y="885" type="line"/>
      <point x="55" y="180" type="line"/>
      <point x="55" y="0" type="line"/>
      <point x="434" y="0" type="line"/>
      <point x="418" y="-35"/>
      <point x="399" y="-78"/>
      <point x="383" y="-121" type="curve"/>
    </contour>
    <contour>
      <point x="735" y="233" type="line"/>
      <point x="786" y="324"/>
      <point x="827" y="377"/>
      <point x="891" y="377" type="curve" smooth="yes"/>
      <point x="934" y="377"/>
      <point x="956" y="352"/>
      <point x="956" y="313" type="curve" smooth="yes"/>
      <point x="956" y="260"/>
      <point x="905" y="233"/>
      <point x="799" y="233" type="curve" smooth="yes"/>
    </contour>
  </outline>
</glyph>
<glyph name="ezhcurl" format="2">
  <advance width="1190"/>
  <unicode hex="0293"/>
  <anchor x="596" y="-492" name="bottom"/>
  <anchor x="596" y="1118" name="top"/>
  <outline>
    <contour>
      <point x="461" y="-492" type="curve" smooth="yes"/>
      <point x="643" y="-492"/>
      <point x="758" y="-455"/>
      <point x="852" y="-401" type="curve"/>
      <point x="877" y="-426"/>
      <point x="913" y="-467"/>
      <point x="934" y="-492" type="curve"/>
      <point x="1073" y="-362" type="line"/>
      <point x="1049" y="-338"/>
      <point x="1016" y="-305"/>
      <point x="997" y="-289" type="curve"/>
      <point x="1055" y="-227"/>
      <point x="1110" y="-123"/>
      <point x="1110" y="33" type="curve" smooth="yes"/>
      <point x="1110" y="276"/>
      <point x="958" y="498"/>
      <point x="623" y="535" type="curve"/>
      <point x="1065" y="920" type="line"/>
      <point x="1065" y="1118" type="line"/>
      <point x="98" y="1118" type="line"/>
      <point x="98" y="885" type="line"/>
      <point x="688" y="885" type="line"/>
      <point x="283" y="526" type="line"/>
      <point x="283" y="324" type="line"/>
      <point x="385" y="324" type="line" smooth="yes"/>
      <point x="686" y="324"/>
      <point x="801" y="186"/>
      <point x="801" y="29" type="curve" smooth="yes"/>
      <point x="801" y="-18"/>
      <point x="799" y="-43"/>
      <point x="784" y="-80" type="curve"/>
      <point x="659" y="39"/>
      <point x="524" y="115"/>
      <point x="348" y="115" type="curve" smooth="yes"/>
      <point x="141" y="115"/>
      <point x="0" y="10"/>
      <point x="0" y="-164" type="curve" smooth="yes"/>
      <point x="0" y="-403"/>
      <point x="215" y="-492"/>
    </contour>
    <contour>
      <point x="414" y="-268" type="curve" smooth="yes"/>
      <point x="299" y="-268"/>
      <point x="221" y="-229"/>
      <point x="221" y="-162" type="curve" smooth="yes"/>
      <point x="221" y="-100"/>
      <point x="268" y="-68"/>
      <point x="348" y="-68" type="curve" smooth="yes"/>
      <point x="457" y="-68"/>
      <point x="547" y="-123"/>
      <point x="651" y="-217" type="curve"/>
      <point x="598" y="-250"/>
      <point x="492" y="-268"/>
    </contour>
  </outline>
</glyph>
<glyph name="uni0294" format="2">
  <advance width="981"/>
  <unicode hex="0294"/>
  <anchor x="399" y="0" name="bottom"/>
  <anchor x="492" y="1567" name="top"/>
  <anchor x="903" y="1587" name="topright"/>
  <outline>
    <contour>
      <point x="451" y="1567" type="curve" smooth="yes"/>
      <point x="281" y="1567"/>
      <point x="139" y="1516"/>
      <point x="6" y="1442" type="curve"/>
      <point x="115" y="1223" type="line"/>
      <point x="174" y="1257"/>
      <point x="297" y="1321"/>
      <point x="422" y="1321" type="curve" smooth="yes"/>
      <point x="539" y="1321"/>
      <point x="625" y="1241"/>
      <point x="625" y="1126" type="curve" smooth="yes"/>
      <point x="625" y="1008"/>
      <point x="555" y="856"/>
      <point x="252" y="752" type="curve"/>
      <point x="252" y="0" type="line"/>
      <point x="557" y="0" type="line"/>
      <point x="557" y="623" type="line"/>
      <point x="805" y="748"/>
      <point x="932" y="905"/>
      <point x="932" y="1139" type="curve" smooth="yes"/>
      <point x="932" y="1384"/>
      <point x="752" y="1567"/>
    </contour>
  </outline>
</glyph>
<glyph name="glottalturned" format="2">
  <advance width="981"/>
  <unicode hex="0296"/>
  <anchor x="492" y="0" name="bottom"/>
  <anchor x="492" y="1556" name="top"/>
  <outline>
    <contour>
      <point x="430" y="-20" type="curve" smooth="yes"/>
      <point x="741" y="-20"/>
      <point x="932" y="172"/>
      <point x="932" y="418" type="curve" smooth="yes"/>
      <point x="932" y="651"/>
      <point x="805" y="809"/>
      <point x="557" y="924" type="curve"/>
      <point x="557" y="1556" type="line"/>
      <point x="252" y="1556" type="line"/>
      <point x="252" y="795" type="line"/>
      <point x="555" y="690"/>
      <point x="625" y="539"/>
      <point x="625" y="420" type="curve" smooth="yes"/>
      <point x="625" y="305"/>
      <point x="539" y="225"/>
      <point x="422" y="225" type="curve" smooth="yes"/>
      <point x="297" y="225"/>
      <point x="174" y="289"/>
      <point x="115" y="324" type="curve"/>
      <point x="6" y="104" type="line"/>
      <point x="129" y="31"/>
      <point x="260" y="-20"/>
    </contour>
  </outline>
</glyph>
